<svg xmlns="http://www.w3.org/2000/svg" viewBox="0 0 3000 3000" width="3000" height="3000"><g transform="translate(249.64285714285714 860.3571428571428) rotate(0.0 1289.4642857142856 866.25) scale(1.072281674630448 1.072329142223339)"><svg width="2405.085" height="1615.642" viewBox="0 0 2405.085 1615.642"><clipPath id="a"><path d="M2176.012 36.787c-73.439-64.825-441.286 231.908-821.609 662.771-53.487 60.595-104.373 120.616-152.126 179.206l591.857-150.405c278.729-346.343 443.412-637.256 381.878-691.572z"/></clipPath><clipPath id="b"><path d="M571.129 682.738c-29.506-30.441-178.467 66.085-332.715 215.596a1987.25 1987.25 0 0 0-29.413 29.112l230.956-17.448c98.261-110.445 154.075-203.631 131.172-227.26z"/></clipPath><clipPath id="c"><path d="M12.55 1224.164c29.506 30.441 178.467-66.085 332.715-215.596 28.243-27.375 54.697-54.626 78.899-81.07 5.752-6.285.827-16.37-7.669-15.728l-186.644 14.1a55.454 55.454 0 0 0-35.666 16.715C65.405 1075.634-14.031 1196.741 12.55 1224.164z"/></clipPath><clipPath id="d"><path d="M786.341 1603.676c74.082 65.392 445.147-233.937 828.798-668.57 51.1-57.89 99.842-115.259 145.777-171.376 9.478-11.578-1.329-28.536-15.83-24.85l-530.795 144.681a77.161 77.161 0 0 0-41.017 26.329c-284.557 352.423-449.416 638.633-386.933 693.786z"/></clipPath><path d="M1694.998 362.553a12.55 12.55 0 0 1-1.873-.141c-6.827-1.026-11.53-7.392-10.504-14.219 5.899-39.248-13.466-84.596-30.75-115.728-3.351-6.036-1.175-13.645 4.861-16.996 6.035-3.351 13.645-1.175 16.996 4.861 19.168 34.525 40.56 85.378 33.615 131.579-.932 6.197-6.264 10.644-12.346 10.644zm-117.33 93.276c-1.36 0-2.741-.223-4.099-.694-25.068-8.698-47.946-25.816-67.997-50.881-15.17-18.963-28.424-41.991-39.393-68.447-2.644-6.377.382-13.69 6.76-16.334 6.374-2.645 13.689.383 16.334 6.759 13.238 31.929 42.857 88.063 92.491 105.283 6.521 2.263 9.975 9.385 7.712 15.907-1.792 5.166-6.633 8.406-11.809 8.406z" fill="#232323"/><path d="M2176.012 36.787c-73.439-64.825-441.286 231.908-821.609 662.771-53.487 60.595-104.373 120.616-152.126 179.206l591.857-150.405c278.729-346.343 443.412-637.256 381.878-691.572z" fill="#fff"/><path d="M1202.276 881.764a3 3 0 0 1-2.325-4.895c48.449-59.444 99.657-119.768 152.202-179.296 184.05-208.507 370.942-392.334 526.252-517.618 75.621-61.002 139.677-104.818 190.387-130.229 53.504-26.812 90.247-31.921 109.205-15.187 39.245 34.642-12.438 149.625-62.705 239.983-69.2 124.393-182.427 286.237-318.822 455.719a3 3 0 0 1-1.598 1.027l-591.856 150.405a3.022 3.022 0 0 1-.739.092zm946.128-850.861c-48.55 0-142.252 53.709-266.232 153.721-155.054 125.078-341.688 308.656-525.521 516.918-50.42 57.121-99.604 114.971-146.3 172.073l582.071-147.918c135.911-168.943 248.691-330.178 317.626-454.094 69.542-125.006 92.263-207.601 63.978-232.568-6.172-5.448-14.775-8.133-25.622-8.133z" fill="#232323"/><g clip-path="url(#a)"><path d="M1195.017 856.725a3 3 0 0 1-2.325-4.895c48.446-59.441 99.646-119.755 152.177-179.266 184.02-208.473 370.882-392.27 526.165-517.533 75.609-60.992 139.654-104.801 190.356-130.208 53.494-26.808 90.23-31.918 109.188-15.184 39.238 34.636-12.436 149.6-62.694 239.944-69.189 124.373-182.397 286.19-318.771 455.644a3 3 0 0 1-1.598 1.027l-591.759 150.38a2.974 2.974 0 0 1-.739.092zM2140.989 6.004c-48.542 0-142.229 53.7-266.188 153.696-155.028 125.057-341.632 308.606-525.435 516.834-50.406 57.104-99.582 114.944-146.274 172.043l581.975-147.894c135.888-168.916 248.649-330.124 317.573-454.019 69.525-124.978 92.239-207.56 63.967-232.529-6.171-5.447-14.772-8.132-25.617-8.132z" fill="#232323"/></g><path d="M571.129 682.738c-29.506-30.441-178.467 66.085-332.715 215.596a1987.25 1987.25 0 0 0-29.413 29.112l230.956-17.448c98.261-110.445 154.075-203.631 131.172-227.26z" fill="#fff"/><path d="M209.001 930.445a3 3 0 0 1-2.131-5.11 1993.807 1993.807 0 0 1 29.457-29.157c74.737-72.441 150.592-134.819 213.592-175.643 45.401-29.419 103.655-60.219 123.365-39.886 12.3 12.689 5.668 41.178-19.713 84.673-23.834 40.847-62.346 91.563-111.372 146.668a3.006 3.006 0 0 1-2.016.998l-230.955 17.448a2.89 2.89 0 0 1-.227.009zm345.778-250.309c-6.755 0-15.293 1.752-25.411 5.255-20.2 6.992-45.833 20.511-76.186 40.179-62.683 40.618-138.214 102.737-212.68 174.916a1987.215 1987.215 0 0 0-23.696 23.36l221.716-16.75C535.956 797.41 589.58 706.08 568.975 684.824c-3.03-3.126-7.819-4.688-14.196-4.688z" fill="#232323"/><g clip-path="url(#b)"><path d="M204.386 908.566a3 3 0 0 1-2.095-5.147 1948.389 1948.389 0 0 1 29.25-27.948c74.188-69.416 149.293-128.99 211.481-167.75 44.836-27.944 102.252-57.011 121.172-36.793 11.811 12.623 4.851 40.34-20.686 82.383-23.966 39.457-62.426 88.295-111.222 141.233a3 3 0 0 1-2.033.962l-225.695 13.056a3.434 3.434 0 0 1-.174.005zm341.019-238.343c-6.474 0-14.592 1.565-24.18 4.696-19.829 6.475-45.071 19.224-75.027 37.894-61.868 38.56-136.645 97.881-210.556 167.039a1941.688 1941.688 0 0 0-23.388 22.255l216.443-12.521c96.937-105.332 150.831-193.489 131.117-214.558-2.997-3.203-7.862-4.805-14.41-4.805z" fill="#232323"/></g><path d="M2259.06 478.359c-41.093-313.338-553.658-181.546-553.658-181.546-18.042 60.891-69.517 107.34-119.527 136.441-261.606 152.228-526.595 131.367-526.595 131.367S753.697 735.454 574.407 778.303c-120.07 28.696-199.587-36.084-275.137-121.782-54.04-61.299-111.427-58.934-198.46-50.743-95.847 9.021-72.433 49.363 13.531 204.098 21.095 37.971 46.644 79.037 81.884 118.533l249.869-18.877-249.869 18.877c46.506 52.122 109.897 101.511 202.274 137.435 131.317 51.068 335.925 93.592 613.42 93.592 697.243 0 1292.244-337.156 1247.14-681.078z" fill="#00676c"/><path d="M12.55 1224.164c29.506 30.441 178.467-66.085 332.715-215.596 28.243-27.375 54.697-54.626 78.899-81.07 5.752-6.285.827-16.37-7.669-15.728l-186.644 14.1a55.454 55.454 0 0 0-35.666 16.715C65.405 1075.634-14.031 1196.741 12.55 1224.164z" fill="#fff"/><path d="M28.943 1232.809c-7.742 0-14.117-1.986-18.548-6.557-17.737-18.299 7.717-67.146 32.194-104.9 33.504-51.678 86.576-115.906 149.439-180.854a58.383 58.383 0 0 1 37.596-17.62l186.644-14.1c5.181-.396 9.83 2.274 12.106 6.958 2.272 4.674 1.507 9.957-1.999 13.787-24.752 27.045-51.339 54.365-79.023 81.199-74.737 72.441-150.592 134.819-213.592 175.643-35.195 22.806-78.118 46.444-104.817 46.444zm-14.239-10.733c6.241 6.438 19.937 6.242 39.608-.567 20.2-6.993 45.833-20.511 76.186-40.179 62.683-40.618 138.214-102.737 212.68-174.916 27.599-26.751 54.102-53.984 78.773-80.941 2.16-2.361 1.948-5.222 1.029-7.113-.923-1.899-3.061-3.838-6.26-3.599l-186.644 14.101a52.385 52.385 0 0 0-33.736 15.81c-62.602 64.677-115.417 128.583-148.716 179.945-32.446 50.047-44.446 85.57-32.92 97.46z" fill="#232323"/><g clip-path="url(#c)"><path d="M23.988 1214.762c-7.575 0-13.812-1.943-18.149-6.417-17.345-17.895 7.51-65.606 31.416-102.479 32.705-50.445 84.51-113.141 145.873-176.538a57.06 57.06 0 0 1 36.742-17.22l182.18-13.763c5.013-.371 9.686 2.302 11.887 6.832 2.231 4.589 1.479 9.776-1.963 13.537-24.162 26.402-50.115 53.068-77.137 79.26-72.951 70.711-146.996 131.6-208.493 171.45-34.359 22.265-76.267 45.339-102.355 45.339zm-13.84-10.593c6.07 6.262 19.413 6.065 38.585-.571 19.711-6.823 44.726-20.015 74.348-39.21 61.18-39.644 134.9-100.274 207.58-170.723 26.936-26.108 52.805-52.688 76.887-79.002 2.084-2.278 1.88-5.038.993-6.862-.891-1.832-2.949-3.713-6.04-3.472l-182.179 13.763a51.062 51.062 0 0 0-32.882 15.41c-61.101 63.126-112.649 125.5-145.15 175.629-31.65 48.819-43.366 83.459-32.142 95.039z" fill="#232323"/></g><path d="M786.341 1603.676c74.082 65.392 445.147-233.937 828.798-668.57 51.1-57.89 99.842-115.259 145.777-171.376 9.478-11.578-1.329-28.536-15.83-24.85l-530.795 144.681a77.161 77.161 0 0 0-41.017 26.329c-284.557 352.423-449.416 638.633-386.933 693.786z" fill="#fff"/><path d="M814.201 1615.627c-12.549 0-22.515-3.23-29.846-9.702-16.224-14.32-18.519-42.973-6.823-85.163 11.054-39.873 34.444-91.677 69.521-153.975 70.163-124.612 182.161-283.256 323.886-458.782 10.824-13.406 25.957-23.12 42.611-27.352l530.746-144.667c7.934-2.016 15.858 1.123 20.23 7.99 4.368 6.862 3.861 15.362-1.29 21.655-46.572 56.895-95.644 114.583-145.85 171.46-185.658 210.331-374.186 395.765-530.853 522.144-76.282 61.535-140.896 105.732-192.048 131.366-33.269 16.671-60.112 25.025-80.286 25.025zm-25.875-14.2c34.103 30.103 141.426-23.427 294.441-146.861 156.412-126.173 344.68-311.359 530.122-521.445 50.157-56.822 99.18-114.453 145.705-171.291 4.225-5.161 3.22-10.942.871-14.632-2.353-3.695-7.174-7.056-13.641-5.41l-530.746 144.667c-15.456 3.928-29.456 12.915-39.472 25.319-141.52 175.271-253.323 333.63-323.326 457.957-34.839 61.875-58.043 113.229-68.967 152.634-11.03 39.79-9.345 66.39 5.012 79.062z" fill="#232323"/><g clip-path="url(#d)"><path d="M807.004 1590.467c-12.546 0-22.511-3.23-29.841-9.7-16.221-14.318-18.516-42.966-6.821-85.149 11.051-39.865 34.438-91.662 69.509-153.95 70.152-124.591 182.132-283.209 323.834-458.707 10.822-13.403 25.952-23.115 42.604-27.347l530.658-144.644c7.938-2.017 15.857 1.123 20.229 7.99 4.366 6.86 3.86 15.359-1.29 21.651-46.578 56.901-95.642 114.579-145.826 171.433-185.629 210.296-374.125 395.7-530.766 522.058-76.27 61.524-140.873 105.715-192.017 131.344-33.263 16.669-60.103 25.021-80.273 25.021zm-25.87-14.198c34.095 30.096 141.399-23.422 294.393-146.837 156.387-126.152 344.623-311.308 530.035-521.359 50.136-56.798 99.15-114.419 145.682-171.263 4.224-5.16 3.219-10.94.87-14.629-2.351-3.693-7.171-7.053-13.638-5.409l-530.658 144.644c-15.454 3.928-29.452 12.913-39.465 25.314-141.496 175.242-253.282 333.575-323.273 457.881-34.834 61.866-58.034 113.21-68.956 152.609-11.028 39.783-9.343 66.378 5.011 79.048z" fill="#232323"/></g><g fill="#232323"><path d="M2199.138 810.635c-3.994 0-7.984-.233-11.971-.703-47.494-5.601-88.088-44.083-114.303-108.359-25.972-63.682-34.792-145.252-24.837-229.687 9.956-84.435 37.507-161.718 77.578-217.612 40.445-56.417 88.877-84.402 136.371-78.802 47.495 5.6 88.089 44.083 114.304 108.359 25.972 63.681 34.792 145.252 24.837 229.688l-2.979-.352 2.979.352c-9.956 84.435-37.507 161.717-77.578 217.611-37.052 51.682-80.806 79.505-124.401 79.505zm50.894-629.865c-41.619 0-83.669 26.951-119.55 77-39.49 55.083-66.656 131.374-76.495 214.818-20.237 171.635 39.822 320.294 133.884 331.385 45.23 5.331 91.678-21.779 130.792-76.339 39.49-55.083 66.657-131.374 76.496-214.818 9.839-83.445 1.161-163.961-24.434-226.719-25.353-62.162-64.224-99.334-109.451-104.667-3.74-.441-7.49-.66-11.242-.66z"/><path d="M2205.429 764.98c-.117 0-.236-.007-.355-.021-59.52-7.018-103.634-86.666-109.773-198.193a3 3 0 0 1 2.83-3.161 2.99 2.99 0 0 1 3.16 2.831c5.974 108.514 47.964 185.9 104.486 192.564a3 3 0 0 1-.348 5.98zm165.685-379.56a3 3 0 0 1-2.961-2.545c-6.087-39.639-17.634-74.365-33.396-100.425-15.932-26.341-35.893-43.254-57.727-48.912a3 3 0 0 1 1.506-5.808c46.864 12.144 82.583 69.802 95.546 154.234a3 3 0 0 1-2.969 3.456z"/><path d="M2217.672 726.42c-.117 0-.236-.007-.355-.021-39.961-4.712-70.41-56.627-79.465-135.486a3.001 3.001 0 0 1 5.961-.685c4.227 36.813 13.348 68.451 26.377 91.495 13.108 23.185 29.648 36.573 47.83 38.717a3 3 0 0 1-.348 5.98zm122.925-360.837a3 3 0 0 1-2.945-2.448c-9.511-50.779-31.948-84.562-60.021-90.371a3 3 0 1 1 1.215-5.876c30.541 6.319 54.729 41.886 64.704 95.142a3.001 3.001 0 0 1-2.952 3.553z"/><ellipse cx="2239.231" cy="492.702" rx="87.714" ry="48.446" transform="matrix(.11710408 -.99311965 .99311965 .11710408 1487.707 2658.833)"/></g><path d="M811.101 1013.496c-2.56 0-4.99-.978-6.918-2.8-2.288-2.164-3.556-5.272-3.477-8.528l2.167-90.157c.125-5.211 3.725-9.685 8.561-10.637l79.594-15.678a2.993 2.993 0 0 1 3.523 2.364 3 3 0 0 1-2.363 3.523l-79.594 15.678c-2.099.414-3.664 2.472-3.723 4.895l-2.167 90.158c-.038 1.559.546 3.025 1.602 4.023.878.831 1.998 1.238 3.127 1.146l77.154-6.193a2.977 2.977 0 0 1 3.23 2.75 2.999 2.999 0 0 1-2.75 3.23l-77.154 6.193a10.08 10.08 0 0 1-.813.033zm-100.328 4.079c-2.353 0-4.585-.898-6.354-2.571-2.091-1.977-3.249-4.814-3.178-7.783l1.912-79.526c.114-4.761 3.413-8.849 7.845-9.721l70.307-13.827a3 3 0 0 1 1.158 5.888l-70.307 13.827c-1.693.333-2.957 2.006-3.005 3.978l-1.912 79.526c-.03 1.272.444 2.468 1.303 3.28.704.666 1.596.991 2.498.919l68.153-5.46a2.991 2.991 0 0 1 3.229 2.75 2.999 2.999 0 0 1-2.751 3.23l-68.153 5.46c-.249.02-.498.03-.745.03zm-96.548 5.523c-2.014 0-3.933-.772-5.464-2.213-1.893-1.78-2.94-4.366-2.875-7.094l1.639-68.163c.102-4.266 2.979-7.942 6.842-8.742l57.6-11.916a3 3 0 0 1 1.215 5.876l-57.6 11.916c-1.138.235-2.023 1.529-2.059 3.01l-1.639 68.163c-.024 1.01.346 1.975.988 2.58.313.294.813.631 1.518.576l55.828-4.742a3 3 0 1 1 .508 5.978l-55.828 4.742a8.008 8.008 0 0 1-.673.029z" fill="#fff"/></svg></g><g transform="translate(180.0 2352.8571428571427) rotate(0.0 328.3928571428571 88.92857142857156) scale(1.0716558393879847 1.069656550035442)"><svg width="612.87" height="166.275" viewBox="0 0 612.87 166.275"><g fill="#232323"><path d="M350.618 166.275c-89.629 0-171.23-9.764-224.189-26.848a3 3 0 0 1 1.841-5.71c103.868 33.506 331.538 38.411 480.76-5.175a3 3 0 0 1 1.682 5.76c-69.993 20.445-161.575 31.799-257.876 31.972l-2.218.002zm6.328-99.178c-42.483 0-87.612-2.676-133.528-8.039C133.536 48.559 52.741 29.12 1.749 5.727A3 3 0 0 1 4.251.273c99.197 45.509 324.708 77.2 478.021 51.495a3.001 3.001 0 0 1 .992 5.918c-37.393 6.269-80.302 9.411-126.318 9.411z"/></g></svg></g><g transform="translate(1146.4285714285713 214.28571428571428) rotate(0.0 498.7500000000001 692.6785714285714) scale(1.0706281877350554 1.0707751749760919)"><svg width="931.696" height="1293.789" viewBox="0 0 931.696 1293.789"><g><g><g><path d="M654.233 549.67c21.183 107.899 149.276 240.568 188.162 222.269 31.964-15.04-86.969-175.768-188.162-222.269Z" style="fill:#232323"/><path d="M834.034 776.652c-6.74 0-14.786-2.351-24.052-7.041-27.081-13.707-62.774-47.024-93.151-86.948-34.37-45.174-57.647-92.2-65.542-132.416a3.001 3.001 0 0 1 4.196-3.304c40.516 18.618 88.374 57.706 131.305 107.241 38.727 44.684 63.81 86.812 63.902 107.325.037 8.115-3.798 11.626-7.021 13.143-2.834 1.333-6.052 1.999-9.638 1.999ZM658.438 555.007c19.89 86.482 104.739 184.189 154.254 209.251 12.284 6.217 22.113 7.936 28.425 4.966.892-.419 3.603-1.695 3.575-7.687-.085-18.868-25.177-60.431-62.437-103.423-40.466-46.691-85.243-83.926-123.817-103.107Z" style="fill:#232323"/></g><g><path d="M923.597 562.643c-13.712 84.452-55.538 136.695-97.077 169.576-.469.377-.95.754-1.418 1.12h-.012a267.84 267.84 0 0 1-112.78 51.066.524.524 0 0 1-.136.023c-.698.127-97.633 7.117-120.566-108.547-15.732-79.346 62.628-126.208 62.628-126.208 13.209-1.876 26.431-3.298 39.48-4.186 0 0 40.613-102.361 29.736-212.728-10.877-110.367-31.981-181.882-64.05-242.464-30.879-58.328-17.201-61.805 7.435-33.739 24.589 28.02 36.027 40.602 36.027 40.602s-19.18-39.058-28.593-59.473-8.257-33.499 12.009-14.291c20.266 19.208 18.872 20.015 27.448 29.736-31.451-50.898-22.782-59.381-5.146-41.745 20.587 20.587 29.736 33.167 41.173 46.892-11.433-24.018-21.73-53.756 2.858-27.415 29.566 31.674 208.299 301.922 170.984 531.779Z" style="fill:#fff"/><g><path d="M750.419 32.911c-5.575-5.973-8.519-8.128-9.914-8.906.105 3.714 3.146 14.472 11.959 32.985a3 3 0 0 1-5.014 3.21 904.061 904.061 0 0 1-7.244-8.844c-8.707-10.723-17.709-21.812-33.745-37.848-6.117-6.117-9.588-7.47-10.614-7.513-.929 2.269 1.021 14.143 20.434 45.56a3 3 0 0 1-4.802 3.562c-2.543-2.883-4.213-4.979-5.827-7.006-3.871-4.861-7.215-9.059-21.436-22.538-8.514-8.069-11.734-8.552-12.38-8.552h-.011c-.488 1.023-.818 6.422 5.171 19.41 9.289 20.149 28.369 59.017 28.561 59.407a3 3 0 0 1-4.912 3.34c-.114-.126-11.737-12.922-36.063-40.641-12.454-14.187-18.529-16.245-19.664-16.039-.36.602-3.407 7.59 17.136 46.395 34.315 64.824 54.172 139.945 64.385 243.573 10.822 109.821-29.524 213.099-29.934 214.129a3.002 3.002 0 0 1-2.584 1.887c-12.488.85-25.483 2.221-38.64 4.075-3.135 1.976-20.5 13.367-36.052 32.508-22.707 27.946-31.01 58.305-24.679 90.234 9.247 46.639 31.5 78.662 66.142 95.18 26.296 12.539 49.715 11.076 51.084 10.975 40.387-7.855 78.934-25.313 111.478-50.486.053-.041.105-.079.16-.115.407-.319.822-.646 1.229-.972 52.361-41.449 84.652-97.873 95.993-167.717 19.601-120.737-21.919-250.734-60.2-338.528C815.491 120.56 763.335 46.749 750.419 32.913Z" style="fill:none"/><path d="M919.719 386.431c-10.827-52.601-28.923-108.181-53.783-165.195-45.256-103.787-98.034-178.39-111.13-192.419-9.32-9.985-14.363-12.915-17.981-10.452-1.509 1.026-4.961 3.374 1.722 21.475-7.138-8.632-15.392-18.124-27.843-30.575-8.434-8.433-14.686-11.146-18.577-8.064-4.289 3.395-2.608 12.951 4.985 28.508a497.897 497.897 0 0 0-8.769-8.491c-9.751-9.244-15.927-12.056-20.016-9.123-5.689 4.08-1.39 16.852 3.22 26.848 5.035 10.921 12.927 27.302 19.15 40.121a5415.236 5415.236 0 0 1-21.605-24.485c-13.082-14.903-22.36-20.637-27.586-17.035-2.433 1.677-9.835 6.781 15.245 54.156 33.933 64.103 53.584 138.539 63.717 241.354 9.907 100.537-23.668 195.602-28.874 209.576-12.24.881-24.938 2.25-37.779 4.075-.396.056-.775.19-1.118.396-.818.489-20.247 12.237-38 34.029-23.642 29.021-32.644 61.988-26.03 95.337 12.101 61.033 44.905 87.975 70.294 99.83 21.367 9.977 41.069 11.223 49.471 11.223a61.43 61.43 0 0 0 3.878-.106v.014c.225-.01.446-.041.662-.092 41.216-8.025 80.558-25.829 113.79-51.494.065-.044.13-.09.192-.139.477-.374.966-.757 1.43-1.129 53.557-42.396 86.588-100.079 98.175-171.447 8.641-53.224 6.34-112.672-6.839-176.693Zm-208.301 395.11.015-.004-.015.004Zm212.179-218.898Zm-2.961-.481c-11.341 69.844-43.632 126.268-95.993 167.717-.406.326-.821.653-1.229.972a2.932 2.932 0 0 0-.16.115c-32.544 25.174-71.091 42.631-111.478 50.486-1.369.101-24.788 1.564-51.084-10.975-34.642-16.518-56.895-48.542-66.142-95.18-6.331-31.929 1.972-62.288 24.679-90.234 15.552-19.141 32.917-30.532 36.052-32.508 13.156-1.854 26.151-3.225 38.64-4.075a3.002 3.002 0 0 0 2.584-1.887c.409-1.03 40.756-104.308 29.934-214.129-10.213-103.628-30.069-178.749-64.385-243.573-20.543-38.805-17.496-45.793-17.136-46.395 1.135-.206 7.21 1.852 19.664 16.039 24.325 27.719 35.948 40.515 36.063 40.641a3 3 0 0 0 4.912-3.34c-.191-.39-19.271-39.258-28.561-59.407-5.989-12.987-5.659-18.386-5.171-19.41h.011c.646 0 3.866.483 12.38 8.552 14.221 13.479 17.564 17.677 21.436 22.538 1.614 2.027 3.284 4.123 5.827 7.006a3 3 0 0 0 4.802-3.562c-19.413-31.417-21.362-43.291-20.434-45.56 1.026.043 4.497 1.396 10.614 7.513 16.036 16.036 25.038 27.125 33.745 37.848 2.343 2.885 4.765 5.868 7.244 8.844a3 3 0 0 0 5.014-3.21c-8.813-18.513-11.854-29.271-11.959-32.985 1.396.778 4.339 2.933 9.914 8.906 12.916 13.836 65.071 87.647 110.017 190.723 38.281 87.793 79.801 217.791 60.2 338.528Z" style="fill:#232323"/></g></g><g><path d="M706.235 179.354s-15.099-57.9-9.878-60.647c7.305-3.844 46.327 39.309 69.68 77.498" style="fill:#fff"/><path d="M766.04 199.205a2.999 2.999 0 0 1-2.563-1.435c-10.373-16.963-24.956-36.541-39.01-52.371-15.486-17.443-23.45-22.769-26.197-23.752-.771 6.529 4.807 33.712 10.867 56.95a3 3 0 0 1-5.806 1.514c-.037-.145-3.828-14.714-6.929-29.432-6.207-29.458-4.325-33.11-1.442-34.627 2.066-1.089 7.565-3.984 32.447 23.633 14.78 16.405 30.179 36.949 41.189 54.954a3 3 0 0 1-2.557 4.565Z" style="fill:#232323"/></g><g><path d="M738.322 95.588a3 3 0 0 1-2.635-1.56c-.146-.266-14.726-26.823-27.413-42.847a3 3 0 1 1 4.705-3.724c13.005 16.427 27.366 42.585 27.972 43.691a3.001 3.001 0 0 1-2.629 4.441Zm27.448-11.443c-.94 0-1.866-.44-2.451-1.266-.081-.115-8.307-11.733-23.019-33.234a3 3 0 1 1 4.951-3.388c14.681 21.456 22.882 33.039 22.964 33.154a3 3 0 0 1-2.445 4.734Zm-41.172 466.63c-.207 0-.418-.022-.629-.067-11.354-2.422-20.138-2.619-32.376-2.135a3 3 0 1 1-.236-5.995c12.728-.503 21.889-.291 33.864 2.263a3 3 0 0 1-.623 5.935Z" style="fill:#232323"/></g><path d="M812.507 176.387a2.995 2.995 0 0 1-2.385-1.178c-12.647-16.537-39.254-32.394-65.582-30.709a3.016 3.016 0 0 1-3.186-2.802 3.002 3.002 0 0 1 2.803-3.186c25.097-1.607 54.856 12.292 70.73 33.052a2.998 2.998 0 0 1-2.381 4.822Z" style="fill:#232323"/><path d="M437.703 652.624c9.142-48.756 143.415-99.38 219.448-106.634 13.176 74.732 129.709 240.005 186.894 228.567 0 0-128.601 66.003-292.148 71.722 0 0-56.735-8.97-78.624-48.643-48.619-88.122-35.569-145.012-35.569-145.012Z" style="fill:#d9c6f4"/></g><g><path d="M477.338 383.512c-1.563-17.494-14.333-33.796-30.361-38.762l-.063-.019c-12.6-3.605-26.187-1.435-37.01 5.777-11.838-19.35-31.358-22.943-46.164-19.644-16.961 3.78-29.711 16.195-32.407 30.979-23.048-9.584-42.863.168-54.053 13.061-14.009 16.141-16.23 38.291-5.401 53.865 20.495 29.475 20.66 50.973 20.222 56.86a3 3 0 0 0 2.277 3.136c19.021 4.666 61.09 42.432 61.513 42.813a3.002 3.002 0 0 0 4.476-.521c.651-.94 65.431-94.193 94.091-109.069 15.985-8.295 24.325-22.319 22.881-38.476Z" style="fill:#232323"/><g><g><path d="M388.682 713.521c-19.016 0-67.017-4.588-104.481-46.846-.128-.044 45.528-91.696 32.896-105.158-91.066-5.669-59.28-114.174 8.899-58.629 5.15 3.795 14.827 11.559 20.102 11.102 7.642 0 9.954-8.673 13.455-21.802 11.39-49.74 49.647-66.816 91.906-70.618a416.405 416.405 0 0 0 14.479 50.964c9.67 34.749 64.991 61.39 30.512 97.144-25.06 22.002-63.798 22.637-68.133 22.637-1.405.103-2.711.847-2.547 2.292.176 1.528 3.264 32.85 12.596 69.786 30.214 30.708-10.718 48.882-49.683 49.126Z" style="fill:#fff"/><path d="M388.683 716.521c-19.333 0-68.433-4.663-106.726-47.856a2.978 2.978 0 0 1-.521-.83c-.526-1.256-.283-1.763.885-4.199 30.135-62.82 36.717-92.297 33.17-99.222-29.825-2.243-50.841-16.131-56.349-37.325-3.937-15.146 1.425-30.461 13.34-38.111 6.923-4.444 26.17-12.207 55.354 11.539.532.392 1.11.825 1.727 1.286 4.123 3.087 12.707 9.506 16.278 9.199.086-.007.173-.011.259-.011 5.094 0 7.122-6.694 10.543-19.523 5.458-23.789 17.44-42.059 35.613-54.302 15.095-10.17 34.924-16.422 58.936-18.582a2.994 2.994 0 0 1 3.201 2.354 413.58 413.58 0 0 0 14.374 50.595c.023.065.045.131.063.198 3.213 11.549 12.016 22.514 20.528 33.118 16.478 20.526 33.517 41.752 9.252 66.913-.058.06-.117.117-.18.172-25.042 21.986-63.084 23.317-69.566 23.38.947 8.663 4.35 36.206 12.215 67.568 12.271 12.786 11.843 22.786 9.28 28.957-6.95 16.736-36.833 24.526-61.657 24.681h-.019Zm-100.915-50.367c36.475 40.004 82.608 44.367 100.91 44.367 27.554-.176 51.163-8.999 56.14-20.983 2.772-6.676-.118-14.428-8.591-23.039a2.996 2.996 0 0 1-.77-1.369c-8.299-32.847-11.762-61.722-12.626-69.789l-.042-.387c-.15-1.335.225-2.616 1.054-3.616.97-1.168 2.481-1.883 4.256-2.013.072-.005.146-.008.219-.008 4.214 0 41.822-.612 66.06-21.81 20.472-21.319 6.489-38.738-9.699-58.903-8.867-11.046-18.036-22.469-21.601-35.164a419.724 419.724 0 0 1-13.978-48.627c-48.958 5.081-77.305 27.359-86.622 68.045a3.1 3.1 0 0 1-.025.103c-3.703 13.893-6.385 23.946-16.232 24.028-5.413.372-12.662-4.7-20.254-10.384-.626-.468-1.212-.907-1.748-1.302a3.499 3.499 0 0 1-.115-.089c-18.432-15.016-36.065-19.093-48.38-11.187-9.727 6.244-14.057 18.924-10.774 31.553 4.911 18.894 24.476 31.209 52.336 32.944a2.995 2.995 0 0 1 2.001.941c3.713 3.956 6.841 13.931-8.784 54.705-5.799 15.131-13.447 32.621-22.733 51.984Zm140.983-71.881Z" style="fill:#232323"/></g><g><path d="M496.45 569.679c-25.06 22.002-63.798 22.637-68.133 22.637-1.405.103-2.686 1.195-2.547 2.292" style="fill:#fff"/><path d="M425.766 597.609a3.001 3.001 0 0 1-2.973-2.624c-.155-1.229.223-2.472 1.064-3.5 1.009-1.232 2.595-2.039 4.241-2.16.072-.005.146-.008.219-.008 4.219 0 41.919-.614 66.153-21.892a3 3 0 0 1 3.959 4.509c-25.282 22.197-63.814 23.34-69.744 23.382a3 3 0 0 1-2.92 2.294Z" style="fill:#232323"/></g></g><path d="M378.124 467.121c-2.506-11.445 3.545-23.861 13.49-29.777 6.445-4.811 26.749-5.615 22.917 6.515-4.376 4.88-9.831 8.084-14.385 12.537-4.963 3.427-16.736 22.25-22.021 10.725Zm12.37 13.49c4.887-2.153 16.734-7.047 26.933-15.252a3.304 3.304 0 0 1 4.669.525c2.944 3.712 6.636 10.553-1.032 15.246-9.422 5.771-26.517 6.011-31 2.325a1.697 1.697 0 0 1 .431-2.844Zm67.705-24.883c-5.047 1.748-8.959 2.169-18.681 3.01a3.321 3.321 0 0 0-3.064 3.56c.368 4.728 3.614 8.893 11.179 8.143 8.427-.834 12.301-8.006 12.818-12.921a1.707 1.707 0 0 0-2.253-1.792Zm-139.731 108.84c-1.057 0-1.628-.06-1.707-.069a3.002 3.002 0 0 1-2.645-3.318 3.007 3.007 0 0 1 3.301-2.646c.138.012 6.319.543 18.154-3.168a3 3 0 1 1 1.795 5.725c-9.695 3.04-16.054 3.476-18.898 3.476Zm132.566-145.526c-3.64-.072-7.277.646-10.582 2.272-5.291 2.26-13.811 11.584-5.921 15.652 5.852.911 11.496.042 17.23.551.877-.077 2.082.023 3.481.201-1.122-8.084-2.491-11.504-4.208-18.676Z" style="fill:#232323"/><g><path d="M428.592 591.79s-28.169-1.949-44.802-13.074c-4.717 4.333.327 41.519 45.627 45.18-8.457-33.941-.824-32.106-.824-32.106Z" style="fill:#232323"/><path d="M429.416 626.395c-.066 0-.134-.003-.201-.008-33.884-2.738-44.47-23.186-47.448-31.85-2.671-7.767-2.533-15.03.332-17.662a2.5 2.5 0 0 1 3.081-.237c14.93 9.986 40.085 12.368 43.256 12.632.267.003.517.035.741.089a2.5 2.5 0 0 1-.407 4.925c-.538.864-2.648 6.044 3.072 29.008a2.504 2.504 0 0 1-2.426 3.105Zm-44.458-44.005c-.291 2.468.022 7.071 2.34 12.636 3.541 8.5 13.247 22.83 38.859 26.023-3.816-16.34-3.587-23.724-2.6-27.256-8.377-1.021-25.787-3.932-38.6-11.403Z" style="fill:#232323"/></g><path d="M462.26 520.438a14.515 14.515 0 0 1-4.022 4.794 19.603 19.603 0 0 1-5.357 2.956 21.683 21.683 0 0 1-12.193.897 22.045 22.045 0 0 1-5.788-2.309 20.334 20.334 0 0 1-4.815-3.939 17.032 17.032 0 0 1-4.536-11.26 2.47 2.47 0 0 1 4.791-.835l.055.153a16.874 16.874 0 0 0 4.744 6.95 16.518 16.518 0 0 0 3.437 2.314 16.085 16.085 0 0 0 3.866 1.438c2.75.578 5.596.529 8.325-.142a16.319 16.319 0 0 0 7.46-3.795l.13-.123a2.469 2.469 0 0 1 3.902 2.896v.005Zm-137.337 15.053a2.999 2.999 0 0 1-2.621-1.536c-14.706-26.299-37.677-19.989-38.646-19.708a3.001 3.001 0 0 1-1.701-5.754c.282-.084 28.479-8.06 45.584 22.533a3 3 0 0 1-2.615 4.465Zm126.209-38.092a3 3 0 0 1-2.174-5.066c4.022-4.234 4.732-6.409 4.62-7.488-.189-1.818-3.271-3.942-6.533-6.191-11.912-8.209-11.358-16.118-11.256-16.993a2.998 2.998 0 0 1 3.328-2.631 3.002 3.002 0 0 1 2.64 3.25c-.007.25-.012 5.436 8.692 11.434 4.434 3.056 8.621 5.942 9.097 10.51.368 3.537-1.556 7.313-6.238 12.242a2.991 2.991 0 0 1-2.175.934Z" style="fill:#232323"/><g><path d="M446.089 347.616c-12.831-3.672-25.691-5.355-36.184 2.893l-.05-.081c-5.615 4.631-12.118 13.099-13.694 28.006a3 3 0 1 1-5.966-.631c1.815-17.165 9.524-26.938 16.212-32.299-22.055-26.817-71.112-10.125-72.568 20.791-43.114-21.706-81.439 29.205-59.496 60.762 8.056 11.586 22.426 36.271 20.75 58.796 19.981 4.901 62.807 43.497 62.807 43.497s65.519-94.631 95.176-110.024c37.025-19.214 20.333-63.246-6.986-71.709Z" style="fill:none"/><path d="M390.193 377.802a3 3 0 0 0 5.966.631c1.577-14.908 8.079-23.375 13.694-28.006a38.814 38.814 0 0 0-3.449-4.924c-6.688 5.361-14.397 15.134-16.212 32.299Z" style="fill:#fff"/></g></g><g><path d="M283.211 661.726c-12.484 27.818-64.13 86.195-64.13 86.195l84.785 410.016 307.501-125.235s-38.262-231.106-173.219-382.074c0 0-3.415 55.127-45.591 54.666-62.239.902-109.347-43.567-109.347-43.567Z" style="fill:#d9c6f4"/><g><g><path d="M488.254 714.994c12.081 26.383 8.551 37.898 2.486 42.87-11.243 9.217-35.05-.394-50.662-14.585-10.247-9.317-20.413-20.357-27.271-28.141 1.533 6.458 3.309 14.78 4.643 23.508 3.994 26.144 2.243 43.415-5.202 51.332-3.141 3.34-7.164 5.018-12.006 5.018-1.79 0-3.691-.229-5.701-.689-21.917-5.01-54.454-37.59-96.567-84.967a3 3 0 1 1 4.484-3.986c35.777 40.25 71.857 78.176 93.42 83.104 5.291 1.21 9.221.364 11.998-2.589 12.443-13.229 1.25-63.465-4.112-81.705-.018-.06-.022-.12-.036-.18-3.383.786-7.09 1.251-11.17 1.311-62.239.902-108.288-43.149-108.288-43.149-13.468 26.049-65.189 85.777-65.189 85.777l84.785 410.016 321.259-130.47s-38.949-169.105-136.87-312.473Z" style="fill:none"/><path d="M444.115 738.838c14.979 13.62 35.39 20.477 42.821 14.385 3.768-3.089 9.787-14.849-15.641-57.228a2.993 2.993 0 0 1 .668-3.847c-10.641-14.285-21.904-28.196-33.815-41.521 0 0 1.188 39.967-28.55 51.556 3.263 3.927 18.809 22.374 34.517 36.654Z" style="fill:none"/><path d="M407.876 785.868c-2.777 2.954-6.707 3.799-11.998 2.589-21.563-4.929-57.643-42.854-93.42-83.104a3 3 0 0 0-4.484 3.986c42.113 47.377 74.65 79.958 96.567 84.967 2.01.459 3.911.689 5.701.689 4.842 0 8.865-1.678 12.006-5.018 7.445-7.917 9.196-25.188 5.202-51.332-1.334-8.728-3.109-17.051-4.643-23.508 6.857 7.784 17.023 18.824 27.271 28.141 15.612 14.192 39.419 23.803 50.662 14.585 6.065-4.972 9.595-16.486-2.486-42.87a684.889 684.889 0 0 0-16.29-22.845 2.993 2.993 0 0 0-.668 3.847c25.428 42.378 19.408 54.139 15.641 57.228-7.432 6.091-27.842-.765-42.821-14.385-15.708-14.281-31.254-32.728-34.517-36.654a43.028 43.028 0 0 1-5.871 1.799c.014.06.019.12.036.18 5.362 18.24 16.556 68.477 4.112 81.705Z" style="fill:#fff"/></g><g><path d="M438.148 650.628s1.189 40.095-28.698 51.611c3.549 7.574 7.421 15.626 11.521 24.151 27.349 56.863 46.265 98.367 40.537 114.597-4.065 11.522-23.313 14.433-24.13 14.551a3 3 0 0 1-.86-5.939c4.57-.669 16.957-3.881 19.331-10.609 5.341-15.134-19.958-67.734-40.286-110-4.142-8.611-8.054-16.745-11.64-24.402a3.013 3.013 0 0 1-.206-.604c-3.381.785-7.085 1.25-11.162 1.309-62.239.902-108.288-43.149-108.288-43.149-13.468 26.049-65.189 85.777-65.189 85.777l84.785 410.016 321.259-130.47s-45.609-229.679-186.976-376.839Z" style="fill:none"/><path d="M415.564 728.991c20.328 42.266 45.627 94.866 40.286 110-2.374 6.728-14.761 9.94-19.331 10.609a3 3 0 1 0 .86 5.939c.817-.119 20.064-3.029 24.13-14.551 5.728-16.23-13.188-57.734-40.537-114.597-4.1-8.525-7.973-16.578-11.521-24.151a43.063 43.063 0 0 1-5.731 1.746c.047.204.113.406.206.604 3.586 7.658 7.498 15.791 11.64 24.402Z" style="fill:#fff"/></g><circle cx="441.638" cy="820.156" r="3.802" style="fill:#fff"/><circle cx="430.477" cy="782.005" r="3.802" style="fill:#fff"/><g><path d="M441.297 642.571c-.285.37-.561.837-.832 1.389 8.05 9.844 70.514 88.032 123.718 206.153a3 3 0 1 1-5.47 2.464C509.34 742.963 452.006 668.015 438.141 650.633c-4.985 17.315-12.29 53.463-45.583 54.661-62.239.902-108.288-43.149-108.288-43.149-13.468 26.049-65.189 85.777-65.189 85.777l84.785 410.016 321.259-130.47S582.02 789.947 441.298 642.572Z" style="fill:none"/><path d="M561.45 854.346a3 3 0 0 0 2.733-4.233C510.979 731.992 448.515 653.804 440.465 643.96c-.78 1.586-1.523 3.888-2.325 6.673 13.865 17.383 71.199 92.331 120.572 201.944a3 3 0 0 0 2.737 1.769Z" style="fill:#fff"/></g></g></g><g><g><path d="M329.628 1031.571c-97.216-19.443-338.145 58.315-324.42 124.65 15.12 73.083 324.42-124.65 324.42-124.65Z" style="fill:#232323"/><path d="M31.371 1175.391c-6.424 0-11.792-.907-16.104-2.724-7.066-2.979-11.439-8.308-12.997-15.838-2.624-12.683 2.952-26.067 16.573-39.779 25.698-25.869 80.358-52.406 146.217-70.986 65.543-18.491 127.285-25.008 165.155-17.434a2.999 2.999 0 0 1 1.028 5.47c-.639.408-64.63 41.229-134.931 78.512-78.716 41.746-134.02 62.781-164.942 62.781Zm262.591-143.877c-35.247 0-80.206 7.045-127.272 20.324-64.908 18.313-118.586 44.271-143.589 69.44-12.114 12.195-17.146 23.747-14.955 34.335 1.15 5.558 4.242 9.328 9.453 11.525 22.988 9.693 83.808-10.988 175.873-59.812 56.965-30.209 109.783-62.754 127.909-74.101-8.246-1.146-17.445-1.711-27.419-1.711Z" style="fill:#232323"/></g><g><path d="M753.187 1037.277s-4.575 12.58-111.614 58.053c-107.038 45.473-222.347 178.691-373.612 194.109-121.701 12.409-187.304-62.881-206.873-139.392-4.628-17.857-6.915-39.841-6.437-58.283 6.84-62.93 48.314-120.517 112.179-135.436 131.191-30.645 163.481 72.506 163.481 72.506l-4.872 22.168c32.275-16.401 67.181-30.948 102.075-43.597 34.894-12.649 69.778-23.378 101.995-32.149 21.239-8.887 36.107-16.893 56.694-32.904 20.587-16.012 52.609-54.897 45.748-18.299a88.43 88.43 0 0 1-11.254 29.901c29.336-5.581 50.082-7.96 57.001-7.021 25.162 3.431 25.162 21.73 25.162 21.73 18.299 8.005 17.156 25.161 17.156 25.161a34.042 34.042 0 0 1 17.155 22.874c11.44 3.423 16.016 20.579 16.016 20.579Z" style="fill:#fff"/><path d="M242.136 1293.782c-19.726 0-38.438-2.418-55.887-7.236-22.892-6.321-43.711-16.785-61.88-31.101-31.836-25.083-55.342-62.25-66.187-104.654-4.589-17.704-7.03-39.802-6.529-59.104.002-.082.008-.164.017-.246 3.479-32.017 16.03-63.009 35.341-87.266 20.65-25.942 48.016-43.497 79.138-50.767 30.394-7.1 58.082-7.634 82.3-1.589 19.479 4.863 36.748 13.96 51.324 27.038 24.799 22.252 33.063 47.997 33.403 49.082.156.499.179 1.03.066 1.54l-3.52 16.014c28.787-14.305 61.308-28.054 96.77-40.909 32.23-11.683 66.561-22.507 102.04-32.171 19.864-8.32 34.673-15.976 55.829-32.429 4.787-3.723 10.347-8.839 15.724-13.786 15.694-14.44 25.638-23.107 32.011-19.574 4.958 2.748 4.104 11.054 2.804 17.983a91.004 91.004 0 0 1-8.489 25.232c25.519-4.652 44.611-6.839 51.692-5.878 22.335 3.046 26.701 17.359 27.553 22.694 14.766 7.275 17.013 20.439 17.321 25.404a36.969 36.969 0 0 1 16.738 22.366c11.648 4.84 16.176 21.347 16.371 22.079a3.003 3.003 0 0 1-.079 1.799c-.839 2.305-10.24 16.023-113.261 59.789-38.678 16.432-78.657 44.557-120.984 74.334-73.367 51.614-156.523 110.114-253.495 119.998-8.883.906-17.604 1.358-26.131 1.358ZM57.649 1091.965c-.474 18.744 1.896 40.166 6.345 57.329 19.031 74.411 82.543 149.511 203.664 137.161 95.412-9.725 177.887-67.746 250.652-118.937 42.595-29.965 82.827-58.269 122.091-74.949 88.58-37.632 106.264-52.463 109.469-55.865-1.287-3.847-5.582-14.746-13.558-17.132a2.997 2.997 0 0 1-2.073-2.248 30.993 30.993 0 0 0-15.644-20.859 3 3 0 0 1-1.571-2.841c.034-.604.684-15.193-15.364-22.213a3.001 3.001 0 0 1-1.798-2.749c-.009-.622-.473-15.745-22.567-18.757-5.187-.703-22.975.706-56.035 6.996a2.994 2.994 0 0 1-3.021-1.232 2.997 2.997 0 0 1-.109-3.262 85.173 85.173 0 0 0 10.871-28.887c1.9-10.137.204-11.638.187-11.651-.013-.007-1.786-.655-8.458 4.332-4.892 3.656-10.833 9.124-16.579 14.411-5.468 5.03-11.121 10.232-16.104 14.107-21.75 16.915-36.945 24.755-57.377 33.303a2.99 2.99 0 0 1-.37.127c-35.39 9.635-69.627 20.426-101.761 32.075-37.569 13.619-71.799 28.238-101.737 43.452a3 3 0 0 1-4.289-3.319l4.691-21.349c-1.517-4.279-10.217-26.74-31.645-45.873-31.689-28.295-74.774-36.331-128.044-23.887-58.537 13.674-102.676 66.998-109.865 132.715Zm692.869-56.045Z" style="fill:#232323"/></g><g><path d="M518.416 981.218a3 3 0 0 1-.788-5.895c35.631-9.717 65.311-16.004 99.676-23.285l6.514-1.38a2.999 2.999 0 1 1 1.244 5.869l-6.514 1.381c-34.275 7.261-63.877 13.532-99.342 23.204a3 3 0 0 1-.791.106Zm142.602-5.251a2.999 2.999 0 0 1-1.525-5.585c20.179-11.883 37.582-7.49 46.161-3.813a3 3 0 0 1-2.363 5.515c-7.535-3.229-22.852-7.073-40.753 3.469a2.993 2.993 0 0 1-1.52.415Zm16.115 27.14a2.998 2.998 0 0 1-1.647-5.509c16.983-11.126 36.34-10.881 47.988-5.704a3 3 0 0 1-2.438 5.483c-10.162-4.516-27.169-4.648-42.264 5.24a2.986 2.986 0 0 1-1.641.491Zm18.872 23.446a3 3 0 0 1-1.54-5.577c16.147-9.638 34.936-8.353 44.699-6.729a3 3 0 1 1-.984 5.919c-8.953-1.49-26.135-2.694-40.641 5.962a2.977 2.977 0 0 1-1.534.424Zm-490.184 103.781a3 3 0 0 1-1.946-5.284c30.554-26.025 63.104-45.551 120.204-76.955a3 3 0 1 1 2.89 5.257c-56.736 31.205-89.046 50.577-119.204 76.265a2.986 2.986 0 0 1-1.944.716Z" style="fill:#232323"/></g><path d="M270.547 683.874c-45.92-23.934-147.538 48.035-218.448 234.458-70.637 196.69-48.965 241.648-48.965 241.648s-1.357-40.357 79.845-80.381c73.036-36.003 192.196-57.173 249.385-48.028 0-.001 45.695-291.656-61.817-347.697Z" style="fill:#d9c6f4"/><g><path d="M438.148 650.628s1.606 53.982-45.591 54.666c-62.239.902-108.288-43.149-108.288-43.149-2.454 4.59-6.147 10.318-10.547 16.619 109.45 60.415 59.528 350.692 58.816 353.536a3 3 0 0 1-5.821-1.452c1.31-5.466 13.023-79.082 11.693-155.992-.795-45.981-6.001-84.936-15.473-115.781-11.457-37.311-29.19-62.657-52.713-75.383-20.277 28.128-51.144 64.231-51.144 64.231l84.785 410.016 321.259-130.47S579.3 799.511 438.148 650.63Z" style="fill:none"/><path d="M322.937 759.073c9.472 30.846 14.678 69.8 15.473 115.781 1.33 76.911-10.384 150.526-11.693 155.992a3 3 0 0 0 5.821 1.452c.712-2.843 50.634-293.121-58.816-353.536a412.913 412.913 0 0 1-3.498 4.927c23.523 12.726 41.257 38.072 52.713 75.383Z" style="fill:#fff"/></g></g></g></svg></g></svg>