<svg xmlns="http://www.w3.org/2000/svg" viewBox="0 0 1800 1800" width="1800" height="1800"><g transform="translate(800.0 1307.0) rotate(0.0 250.5 33.0) scale(1.2214924150441053 1.2199404816916508)"><svg width="410.154" height="54.101" viewBox="0 0 410.154 54.101"><ellipse cx="205.077" cy="27.05" fill="#cbc8ff" rx="205.077" ry="27.05"/></svg></g><g transform="translate(778.0 521.0) rotate(0.0 140.0 116.0) scale(1.0024847300093804 1.0019131358585576)"><svg width="279.306" height="231.557" viewBox="0 0 279.306 231.557"><circle cx="249.73" cy="141.181" fill="#ffd6c0" r="28.57"/><path d="M236.717 166.615a28.567 28.567 0 0 0 37.721-11.09 28.572 28.572 0 0 1-44.087-34.662q.353-.681.734-1.335a28.592 28.592 0 0 0 5.632 47.087z" fill="#f5b9ab"/><path d="M249.7 170.766a29.617 29.617 0 0 1-28.46-21.666 1 1 0 1 1 1.926-.535 27.569 27.569 0 1 0 3.042-21.764 1 1 0 0 1-1.707-1.041 29.677 29.677 0 0 1 38.7-10.9 29.57 29.57 0 0 1-4.385 54.462 29.675 29.675 0 0 1-9.116 1.444z" fill="#112c41"/><path d="M234.121 142.449a.978.978 0 0 1-.142-.01 1 1 0 0 1-.849-1.131 18.126 18.126 0 0 1 20.262-15.634 17.634 17.634 0 0 1 12.763 8.639 1 1 0 0 1-1.725 1.012 15.641 15.641 0 0 0-11.319-7.67 16.114 16.114 0 0 0-18 13.934 1 1 0 0 1-.99.86z" fill="#112c41"/><circle cx="143.381" cy="128.057" fill="#ffd6c0" r="102.5"/><path d="M141.648 25.571c.346-.005.687.007 1.032 0l6.889 12.368C96.143 39 54.153 80.513 55.043 133.15c.892 52.733 44.483 96.663 98.045 95.757a98.341 98.341 0 0 0 15.617-1.5 102.511 102.511 0 1 1-27.057-201.836z" fill="#f5b9ab"/><path d="M143.356 231.557a103.526 103.526 0 1 1 1.776-.015c-.593.01-1.186.015-1.776.015zM41.9 129.774a101.5 101.5 0 1 0 28.507-72.265A101.6 101.6 0 0 0 41.9 129.774z" fill="#112c41"/><ellipse cx="132.993" cy="107.291" fill="#112c41" rx="6.828" ry="9.104" transform="matrix(.99985699 -.01691143 .01691143 .99985699 -1.795 2.264)"/><ellipse cx="128.408" cy="77.058" fill="#112c41" rx="14.13" ry="9.336" transform="matrix(.987 -.163 .163 .987 -10.826 21.917)"/><ellipse cx="207.812" cy="145.729" fill="#ffa9dc" rx="12.121" ry="8.009" transform="matrix(.99256953 -.12167879 .12167879 .99256953 -16.188 26.369)"/><ellipse cx="115.545" cy="130.048" fill="#ffa9dc" rx="8.009" ry="12.121" transform="matrix(.42770497 -.90391839 .90391839 .42770497 -51.427 178.869)"/><g fill="#112c41"><ellipse cx="215.699" cy="93.264" rx="8.6" ry="13.016" transform="matrix(.5539729 -.8325347 .8325347 .5539729 18.562 221.174)"/><path d="M211.366 85.1a15.023 15.023 0 0 1 7.989 2.667c4.971 3.308 7.5 8.619 5.516 11.6-1.192 1.791-3.543 2.058-4.839 2.058a16.09 16.09 0 0 1-13.522-8.976c-.508-1.2-1.181-3.487.017-5.288s3.543-2.059 4.839-2.059m0-2c-2.805 0-5.194.983-6.5 2.951-2.631 3.954.088 10.388 6.073 14.371a16.862 16.862 0 0 0 9.1 3c2.806 0 5.194-.983 6.5-2.95 2.631-3.955-.088-10.389-6.073-14.371a16.861 16.861 0 0 0-9.1-3z"/><ellipse cx="201.551" cy="119.031" rx="9.104" ry="6.828" transform="matrix(.34021543 -.94034752 .94034752 .34021543 21.049 268.063)"/><path d="M181.025 146.913a2.935 2.935 0 0 1-3.44 3.07l-17.46-3.11-12.76-2.28a2.923 2.923 0 0 1-2.18-4.03 32.737 32.737 0 0 1 2.07-4c4.65-7.58 11.87-12 19.05-10.72 8.35 1.49 14.095 10.24 14.72 21.07z"/><path d="M178.1 151.029a3.968 3.968 0 0 1-.693-.062l-30.222-5.39a3.924 3.924 0 0 1-2.922-5.412 33.864 33.864 0 0 1 2.133-4.122c5.037-8.211 12.73-12.494 20.08-11.184 8.621 1.538 14.867 10.378 15.543 22a3.939 3.939 0 0 1-3.919 4.173zm-14.259-24.4c-5.811 0-11.677 3.839-15.738 10.459a31.861 31.861 0 0 0-2 3.875 1.892 1.892 0 0 0 .072 1.657 1.927 1.927 0 0 0 1.366.992L177.76 149a1.936 1.936 0 0 0 2.267-2.027c-.621-10.676-6.206-18.771-13.9-20.144a13.1 13.1 0 0 0-2.282-.203z"/></g><path d="m160.125 146.873-12.76-2.28a2.923 2.923 0 0 1-2.18-4.03 32.737 32.737 0 0 1 2.07-4 20.807 20.807 0 0 1 12.87 10.31z" fill="#ffa6e0"/><path d="M160.125 147.873a1.055 1.055 0 0 1-.176-.015l-12.76-2.281a3.924 3.924 0 0 1-2.922-5.412 33.864 33.864 0 0 1 2.133-4.122 1 1 0 0 1 1.141-.438 21.74 21.74 0 0 1 13.481 10.827 1 1 0 0 1-.9 1.441zm-12.414-10.117a31.755 31.755 0 0 0-1.609 3.2 1.892 1.892 0 0 0 .072 1.657 1.927 1.927 0 0 0 1.366.992l10.652 1.9a20.149 20.149 0 0 0-10.481-7.749z" fill="#112c41"/><circle cx="31.5" cy="106.445" fill="#ffd6c0" r="30.5"/><path d="M54.915 126.151a33.19 33.19 0 0 1-6.944 3.128c-15.966 5.387-33.359-3.775-38.742-19.732-3.535-10.469-.776-20.8 5.849-28.673C3.445 88.2-2.4 102.061 2.194 115.678a30.493 30.493 0 0 0 38.647 19.155c5.488-1.848 10.599-4.538 14.074-8.682z" fill="#f5b9ab"/><path d="M31.485 137.946a31.5 31.5 0 0 1-.518-63 31.61 31.61 0 0 1 31.9 28.582 1 1 0 0 1-1.992.183A29.5 29.5 0 0 0 2 106.945a29.5 29.5 0 0 0 29.995 29 31.465 31.465 0 0 0 22.169-10.454 1 1 0 1 1 1.494 1.33 33.527 33.527 0 0 1-23.629 11.124c-.179-.001-.362.001-.544.001z" fill="#112c41"/><path d="M48.815 111.862h-.062a1 1 0 0 1-.938-1.059 17.274 17.274 0 0 0-15.91-18.5 16.759 16.759 0 0 0-13.533 5.623 1 1 0 0 1-1.488-1.336 18.735 18.735 0 0 1 15.143-6.283 19.277 19.277 0 0 1 17.785 20.613 1 1 0 0 1-.997.942z" fill="#112c41"/><path d="M50.994 71.061C75.564 59.6 106.816 53.544 140.5 55.255a213.343 213.343 0 0 1 41.038 6.057 64.009 64.009 0 0 0-.385-27.517c.092.138.2.276.277.415a75.841 75.841 0 0 1 11.927 30.473c2.423.769 4.8 1.589 7.143 2.439 17.208 6.29 32.223 14.738 44.1 24.688a1.861 1.861 0 0 0 3.065-1.512 89.559 89.559 0 0 0-7.46-30.7C224.774 24.606 187.657.29 144.734 1.016a108.758 108.758 0 0 0-21.252 2.45C87.7 11.252 59.254 36.686 48.974 69.275a1.477 1.477 0 0 0 2.02 1.786z" fill="#fcaa51"/><path d="M50.994 71.061a155.865 155.865 0 0 1 19.894-7.628c9.343-28.912 34.695-51.454 66.523-58.373a98.06 98.06 0 0 1 32.87-1.446 109.117 109.117 0 0 0-46.8-.148C87.7 11.252 59.254 36.686 48.974 69.275a1.477 1.477 0 0 0 2.02 1.786z" fill="#ff9522"/><path d="M245.93 93.257a3.306 3.306 0 0 1-2.105-.792c-13.46-11.241-31.016-20.519-50.771-26.832a1 1 0 0 1-.682-.788 76.824 76.824 0 0 0-9.224-26.073 66.81 66.81 0 0 1-.631 22.733 1 1 0 0 1-1.225.777 212.238 212.238 0 0 0-40.838-6.028c-31.948-1.624-63.4 3.875-88.546 15.486a2.872 2.872 0 0 1-3.121-.333 2.674 2.674 0 0 1-.595-2.962C59.1 35.461 87.865 10.189 123.271 2.491A109.98 109.98 0 0 1 144.717.016a106.715 106.715 0 0 1 58.592 16.05A97.233 97.233 0 0 1 241.122 59.2a89.886 89.886 0 0 1 7.535 30.862 2.9 2.9 0 0 1-1.473 2.9 2.774 2.774 0 0 1-1.254.295zm-51.688-29.343c19.763 6.386 37.34 15.72 50.866 27.016a1.137 1.137 0 0 0 1.174.248c.371-.187.4-.7.379-1A87.885 87.885 0 0 0 239.292 60a95.24 95.24 0 0 0-37.043-42.24 104.611 104.611 0 0 0-57.5-15.746A107.764 107.764 0 0 0 123.7 4.446c-34.718 7.547-62.922 32.311-73.6 64.626-.063.19-.185.652.028.842a.937.937 0 0 0 .951.009c25.44-11.742 57.219-17.306 89.485-15.667a214.687 214.687 0 0 1 40.195 5.83 62.871 62.871 0 0 0-.571-26.051 1 1 0 0 1 1.79-.812 76.634 76.634 0 0 1 12.264 30.691z" fill="#112c41"/></svg></g><g transform="translate(1291.0 1012.0) rotate(0.0 118.5 85.0) scale(0.9980334109581541 1.0016615797970752)"><svg width="237.467" height="169.718" viewBox="0 0 237.467 169.718"><circle cx="118.734" cy="84.858" fill="#b2b0f7" r="70.86"/><path d="M118.734 156.718a71.86 71.86 0 1 1 71.86-71.86 71.94 71.94 0 0 1-71.86 71.86zm0-141.719a69.86 69.86 0 1 0 69.86 69.859A69.939 69.939 0 0 0 118.734 15z" fill="#112c41"/><path d="M189.594 84.859a70.9 70.9 0 0 1-96.07 66.24 71.248 71.248 0 0 1-25.61-16.87 70.883 70.883 0 0 1 76.37-115.49 69.879 69.879 0 0 1 8.41 3.91 71.131 71.131 0 0 1 30 31.67 69.95 69.95 0 0 1 4.04 10.56q.93 3.18 1.58 6.49a70.484 70.484 0 0 1 1.27 12.84c.01.22.01.43.01.65z" fill="#cbc8ff"/><path d="M118.734 156.719a71.417 71.417 0 0 1-25.567-4.685A72.243 72.243 0 0 1 67.2 134.925a71.883 71.883 0 0 1 77.444-117.119 70.919 70.919 0 0 1 8.53 3.966A72.6 72.6 0 0 1 183.6 53.887a71.287 71.287 0 0 1 4.1 10.71 73.058 73.058 0 0 1 1.6 6.58 71.7 71.7 0 0 1 1.284 13.023c.009.2.01.422.01.657a71.941 71.941 0 0 1-71.86 71.862zm0-141.72a69.853 69.853 0 0 0-41.941 125.719 70.029 70.029 0 0 0 17.086 9.447 69.9 69.9 0 0 0 94.715-65.306c0-.2 0-.4-.009-.6a69.9 69.9 0 0 0-1.253-12.7 71.868 71.868 0 0 0-1.558-6.4 69.169 69.169 0 0 0-3.982-10.407 70.6 70.6 0 0 0-29.578-31.226 68.915 68.915 0 0 0-8.291-3.854A69.7 69.7 0 0 0 118.734 15z" fill="#112c41"/><path d="M188.314 71.369q-1.275 1.23-2.61 2.49c-14.12 13.32-32.46 27.95-53.37 42.1a450.763 450.763 0 0 1-50.11 29.63 69.482 69.482 0 0 0 11.3 5.51 518.007 518.007 0 0 0 44.34-26.97 501.926 501.926 0 0 0 50.36-38.71c.46-.4.909-.8 1.36-1.21a70.484 70.484 0 0 0-1.27-12.84z" fill="#b2b0f7"/><path d="M172.614 130.879a70.863 70.863 0 1 1-92.461-105.47 70.871 70.871 0 0 0 92.461 105.47z" fill="#b2b0f7"/><path d="M118.734 156.718a71.86 71.86 0 1 1 71.86-71.86 71.94 71.94 0 0 1-71.86 71.86zm0-141.719a69.86 69.86 0 1 0 69.86 69.859A69.939 69.939 0 0 0 118.734 15z" fill="#112c41"/><path d="M234.754 6.349c-7.74-11.45-40.27-3.9-81.25 16.75a72.97 72.97 0 0 1 7.05 4.54c28.26-13.2 49.579-17.72 54.79-10.03 5.15 7.6-6.63 25.38-28.88 46.38-14.12 13.32-32.46 27.95-53.37 42.1-20.89 14.14-41.28 25.72-58.9 33.87-27.771 12.86-48.66 17.19-53.811 9.58-5.21-7.7 6.921-25.81 29.681-47.14a67.953 67.953 0 0 1-1.58-8.23c-34.41 30.36-53.52 57.75-45.77 69.2s40.28 3.9 81.26-16.76a502.212 502.212 0 0 0 54.65-32.35 501.926 501.926 0 0 0 50.36-38.71c34.41-30.36 53.516-57.749 45.77-69.2z" fill="#fff"/><path d="M17.072 169.646c-7.379 0-12.59-1.876-15.187-5.718-7.836-11.577 9.766-38.594 45.937-70.509a1 1 0 0 1 1.653.622 67.543 67.543 0 0 0 1.557 8.11 1 1 0 0 1-.285.978c-22.858 21.422-34.176 38.991-29.535 45.849 4.581 6.77 24.722 2.965 52.561-9.927 18.26-8.445 38.579-20.129 58.76-33.791s38.6-28.185 53.244-42c22.308-21.053 33.32-38.332 28.739-45.091-4.644-6.854-25.16-2.88-53.539 10.376a1.008 1.008 0 0 1-1.013-.1 72.316 72.316 0 0 0-6.953-4.478 1 1 0 0 1 .042-1.762c43.078-21.709 74.7-28 82.529-16.417 7.837 11.578-9.765 38.6-45.937 70.509a499.975 499.975 0 0 1-50.461 38.79 500.71 500.71 0 0 1-54.76 32.413c-28.797 14.52-52.477 22.146-67.352 22.146zm30.684-73.5c-33.908 30.2-51.238 56.281-44.214 66.658 7.114 10.526 38.51 3.815 79.982-17.092a498.442 498.442 0 0 0 54.539-32.285A497.893 497.893 0 0 0 188.322 74.8c34.823-30.722 52.723-57.371 45.6-67.888C226.908-3.47 196.254 2.92 155.6 23.166a73.806 73.806 0 0 1 5.06 3.319c29.926-13.908 50.146-17.351 55.508-9.437 5.326 7.86-5.252 25.234-29.022 47.668-14.719 13.886-33.218 28.479-53.5 42.2s-40.685 25.46-59.041 33.949C44.949 154.6 24.88 157.969 19.555 150.1c-5.357-7.917 5.355-25.409 29.4-48.026a67.898 67.898 0 0 1-1.199-5.924z" fill="#112c41"/></svg></g><g transform="translate(1455.0 836.0) rotate(0.0 28.0 28.0) scale(1.045693051743133 1.045693051743133)"><svg width="53.553" height="53.553" viewBox="0 0 53.553 53.553"><circle cx="26.777" cy="26.777" fill="#ffe993" r="25.777"/><path d="M26.777 53.553a26.777 26.777 0 1 1 26.777-26.776 26.806 26.806 0 0 1-26.777 26.776zm0-51.553a24.777 24.777 0 1 0 24.777 24.777A24.805 24.805 0 0 0 26.777 2z" fill="#112c41"/><path d="M46.686 43.153a25.78 25.78 0 1 1-31.02-39.64 25.784 25.784 0 0 0 31.02 39.64z" fill="#ffd169"/><path d="M26.777 53.553a26.777 26.777 0 1 1 26.777-26.776 26.806 26.806 0 0 1-26.777 26.776zm0-51.553a24.777 24.777 0 1 0 24.777 24.777A24.805 24.805 0 0 0 26.777 2z" fill="#112c41"/></svg></g><g transform="translate(207.0 505.0) rotate(0.0 578.0 299.5) scale(0.9985885003377578 0.9990693143949376)"><svg width="1157.634" height="599.558" viewBox="0 0 1157.634 599.558"><path d="M1156.634 325.571a143.826 143.826 0 0 1-2.85 29.33c-.14.62-.27 1.24-.41 1.86q-.557 2.52-1.23 4.99c-.22.85-.46 1.68-.7 2.52-.211.71-.421 1.41-.621 2.11-39.869 130.51-202.07 119.84-260.229 99.33-.64-.23-1.26-.45-1.87-.68s-1.21-.45-1.79-.68a22.436 22.436 0 0 1 1.089-4.12c.131-.39.261-.79.411-1.21.44-1.29.98-2.75 1.589-4.38.311-.8.631-1.65.98-2.54v-.01c.32-.82.661-1.68 1.02-2.57.431-1.08.881-2.21 1.351-3.38.26-.62.52-1.25.78-1.9q.66-1.62 1.38-3.33c15.06-36.12 45.269-100.79 52.67-108.3 0 0 44.77 21.1 64.68-6.47 24.34-33.7-6.46-105.87-54.46-150.81-36.91-34.55-61.79-35.23-58.22-51.06 3.56-15.76 42.13-6.64 42.13-6.64l-36-40.34s36-48.85 64.59-55.49c79.059 54.17 185.559 195.75 185.71 303.77z" fill="#ffd6c0"/><path d="M1157.114 322.671a156.734 156.734 0 0 1-3.33 32.23c-.14.62-.27 1.24-.41 1.86q-.57 2.52-1.23 4.99c-.22.85-.46 1.68-.7 2.52-.211.71-.421 1.41-.621 2.11-39.869 130.51-202.07 119.84-260.229 99.33-.64-.23-1.26-.45-1.87-.68s-1.21-.45-1.79-.68a22.436 22.436 0 0 1 1.089-4.12c.131-.39.261-.79.411-1.21.44-1.29.98-2.75 1.589-4.38.311-.81.631-1.66.98-2.54v-.01c.32-.83.661-1.68 1.02-2.57.431-1.08.881-2.21 1.351-3.38.26-.62.51-1.25.78-1.9q.66-1.62 1.38-3.33c62.91 21.14 215.06 34.37 256.61-96.9a143.015 143.015 0 0 0 4.49-18.44c.166-.971.33-1.93.48-2.9z" fill="#f5b9ab"/><path d="M973.206 479.083c-29.878 0-60.861-4.641-82.945-12.428l-.39-.141a82.716 82.716 0 0 1-1.5-.548l-.446-.167a69.586 69.586 0 0 1-1.36-.518 1 1 0 0 1-.626-1.019 22.716 22.716 0 0 1 1.136-4.345l.083-.249c.106-.319.214-.645.335-.983.419-1.229.921-2.6 1.6-4.394l.373-.971c.188-.49.382-1 .587-1.518a.644.644 0 0 1 .025-.074c.321-.824.663-1.687 1.024-2.582.442-1.109.886-2.224 1.35-3.378.263-.629.521-1.254.779-1.9q.666-1.634 1.387-3.347c15.622-37.467 45.368-100.99 52.879-108.614a1 1 0 0 1 1.139-.2c.44.207 44.252 20.421 63.443-6.151 11.23-15.55 11.15-40.5-.226-70.248-10.821-28.3-30.542-57.184-54.107-79.246-16.455-15.4-30.477-24.025-40.715-30.321-12.848-7.9-19.926-12.251-17.8-21.69a10.41 10.41 0 0 1 4.908-6.659c9.156-5.718 28.047-2.806 35.421-1.37l-33.97-38.064a1 1 0 0 1-.058-1.259c1.478-2.007 36.548-49.224 65.168-55.872a1 1 0 0 1 .792.149c77.625 53.188 185.992 194.794 186.145 304.594a145.336 145.336 0 0 1-2.871 29.534l-.414 1.878a104.501 104.501 0 0 1-1.241 5.032c-.2.763-.414 1.521-.632 2.284l-.206.7c-.165.555-.328 1.105-.485 1.655-12.517 40.974-37.964 71.389-75.638 90.414-35.916 18.138-75.624 21.981-102.61 22.013zm-85.154-15.372.572.215.452.169c.483.183.971.358 1.471.537l.385.139c37.68 13.287 121.045 22.463 184.314-9.486 37.168-18.771 62.274-48.781 74.621-89.2.154-.539.319-1.095.486-1.657l.2-.683c.214-.748.426-1.491.622-2.248.451-1.652.86-3.314 1.222-4.955l.411-1.866a143.254 143.254 0 0 0 2.826-29.108c-.152-108.968-107.673-249.558-184.91-302.69-26.059 6.426-58.736 48.6-63.1 54.359l35.455 39.728a1 1 0 0 1-.977 1.64c-.262-.063-26.338-6.116-36.908.484a8.369 8.369 0 0 0-4.016 5.4c-1.814 8.043 4.438 11.886 16.893 19.546 10.311 6.34 24.432 15.022 41.035 30.563 23.778 22.263 43.682 51.419 54.608 79.993 11.625 30.4 11.617 56.019-.021 72.133-18.8 26.04-59.477 9.6-65.237 7.092-7.853 9.264-36.691 70.76-52 107.477q-.72 1.71-1.377 3.323-.39.973-.784 1.909c-.457 1.138-.9 2.251-1.325 3.315-.368.914-.7 1.749-1.01 2.545a.791.791 0 0 1-.027.078q-.317.808-.606 1.57l-.372.967a160.768 160.768 0 0 0-1.901 5.294l-.083.25c-.512 1.556-.782 2.539-.919 3.167z" fill="#112c41"/><path d="M929.952 423.041c-.12.24-.24.48-.36.73-15.3 30.62-35.89 57.29-55.63 61.01a24.826 24.826 0 0 1-4.9.45c-.91-.01-1.89-.08-2.92-.19-.21-.02-.42-.04-.63-.07l-.95-.12c-.31-.05-.64-.09-.96-.15-.51-.07-1.04-.16-1.56-.26-31.81 81.03-111.47 122.96-194.87 112.55-70.78-8.83-126.89-55.01-150.72-115.37a76.118 76.118 0 0 1-10.98 5.36c-10.13 3.89-25.09-3.97-40.46-16.23a.176.176 0 0 1-.05-.04 1.71 1.71 0 0 0-.14-.11c-36.33-30.06-78.79-92.64-79.28-124.09-.14-8.43 4.09-20.95 33.7-36.32.68-.36 1.37-.71 2.08-1.07 52.89-27.6 139.1-46.69 235.19-47.77q13.89-.15 28.03.2 23.655.6 47.8 2.71c65.65 5.8 132.96 20.47 195.24 46.73.24.1.47.2.71.3 6.47 2.74 22.85 10.45 24.89 24.89 2.67 18.79-7.39 54.89-23.23 86.86z" fill="#ffe993"/><path d="M692.483 599.579a205.372 205.372 0 0 1-25.435-1.6c-68.206-8.508-126-52.495-151.1-114.919a75.633 75.633 0 0 1-10.12 4.851c-9.363 3.6-23.306-1.916-41.442-16.381a1.215 1.215 0 0 1-.13-.11l-.062-.041c-35.444-29.327-79.154-92.694-79.655-124.855-.287-17.285 19.4-29.523 34.239-37.224.679-.358 1.374-.712 2.089-1.074 55.462-28.942 143.552-46.843 235.631-47.878 9.43-.1 18.873-.034 28.066.2a768.783 768.783 0 0 1 47.863 2.714c70.962 6.27 136.751 22.017 195.54 46.8l.708.3c15.217 6.442 24.031 15.318 25.494 25.672 2.625 18.469-6.967 54.428-23.324 87.444-.118.234-.235.47-.353.714-17.86 35.745-38.4 58.176-56.346 61.559a26.1 26.1 0 0 1-5.1.468c-.88-.01-1.866-.073-3.013-.195-.251-.025-.459-.045-.667-.075l-1.308-.174a23.737 23.737 0 0 1-.642-.1 25.743 25.743 0 0 1-.748-.114c-15.5 39.011-42.54 70.224-78.228 90.307a186.5 186.5 0 0 1-91.957 23.711zM516.452 480.622a1.024 1.024 0 0 1 .327.054 1 1 0 0 1 .6.578C541.982 543.565 599.426 587.533 667.3 596c41.395 5.167 81.565-2.394 116.167-21.865 35.514-19.983 62.364-51.126 77.648-90.058a1 1 0 0 1 1.121-.616c.5.1 1.014.183 1.506.251.233.042.424.07.611.1l1.291.171c.192.028.37.045.547.063 1.143.12 2.067.18 2.886.189a23.552 23.552 0 0 0 4.7-.433c17.331-3.266 37.349-25.307 54.92-60.474.116-.24.237-.484.359-.727 16.195-32.687 25.709-68.166 23.136-86.275-1.359-9.62-9.759-17.957-24.29-24.11l-.707-.3c-58.6-24.707-124.186-40.405-194.941-46.656a767.122 767.122 0 0 0-47.738-2.706c-9.169-.234-18.587-.3-27.993-.2-91.779 1.031-179.531 18.848-234.739 47.657-.715.363-1.4.71-2.075 1.067-33.467 17.373-33.241 30.956-33.167 35.42.493 31.666 43.806 94.284 78.917 123.336a1.821 1.821 0 0 1 .16.126l.016.012c17.542 13.992 30.825 19.406 39.478 16.078a75.112 75.112 0 0 0 10.835-5.289 1 1 0 0 1 .504-.139z" fill="#112c41"/><path d="M929.952 423.041c-.12.24-.24.48-.36.73-15.54 30.59-36.18 57.23-55.63 61.01a24.826 24.826 0 0 1-4.9.45c-.91-.01-1.89-.08-2.92-.19-.21-.02-.42-.04-.63-.07l-.95-.12c-.31-.05-.64-.09-.96-.15-.52-.08-1.04-.17-1.56-.26a134.107 134.107 0 0 1-16.79-4.51c58.98-47.75 83.06-127.29 82.33-168.94.24.1.47.2.71.3 6.47 2.74 22.85 10.45 24.89 24.89 2.67 18.79-7.39 54.89-23.23 86.86z" fill="#fff"/><path d="m504.491 429.184.385 4.229.2 2.282a.039.039 0 0 1 0 .033c8.961 81.767 74.218 150.3 162.1 161.265 90.072 11.24 175.793-38.577 201.57-132.772 6.694-24.463 5.562-48.5 3.715-63.017" fill="#ffe993"/><path d="M691.986 599.54a201.4 201.4 0 0 1-24.933-1.555c-42.87-5.348-81.334-24.149-111.234-54.37a182.313 182.313 0 0 1-51.738-107.778q-.006-.063-.006-.126l-.58-6.436a1 1 0 0 1 1.992-.182l.587 6.515a.775.775 0 0 1 0 .084 180.313 180.313 0 0 0 51.164 106.517c29.581 29.9 67.639 48.5 110.059 53.792 44.321 5.533 88.442-3.952 124.235-26.7 37.553-23.867 63.918-60.294 76.246-105.343 6.923-25.3 5.282-50.1 3.688-62.627a1 1 0 1 1 1.984-.252c1.613 12.677 3.272 37.773-3.743 63.406-12.461 45.538-39.123 82.366-77.1 106.5-29.447 18.72-64.465 28.555-100.621 28.555z" fill="#112c41"/><path d="M516.275 482.177a1 1 0 0 1-.931-.634 178.727 178.727 0 0 1-11.263-45.706q-.006-.063-.006-.126l-.58-6.436a1 1 0 0 1 1.992-.182l.587 6.515a.775.775 0 0 1 0 .084 176.71 176.71 0 0 0 11.129 45.12 1 1 0 0 1-.566 1.3.98.98 0 0 1-.362.065z" fill="#112c41"/><path d="M764.749 584.17c-20.5 7.605-44.062 15.391-86.26 13.226a190.621 190.621 0 0 1-48.24-8.752.028.028 0 0 0-.022 0c-68.793-22.92-132.063-94.674-126.276-187.444 7.511 2.294 24.207 21.743 26.213 28.727 2.553 8.89 5.878 21.866 9.806 31.382 28.481 68.988 84.206 123.934 163.173 128 22.263 1.14 47.701-.791 61.606-5.139z" fill="#ffd169"/><path d="M406.572 319.4c-19.043 11.16-20.763 20.368-20.651 27.331.491 31.453 42.575 93.806 78.9 123.869.06.044.124.1.187.15 13.976 11.528 27.089 18.263 36.636 16.584 10.272-1.793 21.827-10.3 29.707-16.45 11.676-9.618 26.917-20.621 40.913-28.367" fill="#ffe993"/><path d="M684.542 261.551c-84.3 5.96-195.53 29.04-243.94 64.77-7.63-7.27-14.49-10.8-22.13-15.48a2.212 2.212 0 0 0 .77-.65c.68-.36 1.37-.71 2.08-1.07 57.978-30.26 156.02-50.28 263.22-47.57z" fill="#ffd169"/><path d="M534.862 468.5c-7.791 6.483-18.6 14.339-29.388 18.482-10.137 3.892-25.091-3.976-40.463-16.229a3.723 3.723 0 0 0-.187-.15c-36.328-30.063-78.8-92.644-79.287-124.1-.133-8.262 3.523-20.973 35.468-36.971 20.6 10.911 43.129 33.383 63.908 58.911 27.197 33.414 48.015 74.848 49.949 100.057z" fill="#fff"/><g fill="#112c41"><path d="M498.632 476.681c-2.23 1.65-6.22.74-11.41-2.32-.05-.03-.11-.06-.16-.09q-.465-.27-.93-.57c-6.48-4.02-14.68-11.1-23.66-20.41a353.192 353.192 0 0 1-27.95-33.16c-16.86-22.54-29.46-44.22-34.98-59.04-.62-1.67-1.15-3.26-1.59-4.75-.05-.12-.08-.25-.12-.38-1.95-6.76-1.89-11.47.55-13.3 2.53-1.9 7.32-.45 13.61 3.69a4.53 4.53 0 0 1 .46.3c.45.3.91.62 1.38.95 12.79 9.01 30.95 27.92 48.64 51.61a349.949 349.949 0 0 1 24.43 37.06c6 10.67 10.26 20.04 12.28 27.14.22.73.41 1.44.57 2.12.07.31.13.59.2.87 1.1 5.15.74 8.73-1.32 10.28z"/><path d="M495.865 478.5c-2.393 0-5.453-1.093-9.151-3.274l-.17-.095c-.307-.178-.63-.376-.953-.584-6.528-4.05-14.777-11.162-23.839-20.557a356.181 356.181 0 0 1-28.031-33.255c-16.255-21.735-29.382-43.899-35.116-59.295a74.986 74.986 0 0 1-1.6-4.773c-.038-.1-.07-.206-.1-.312l-.029-.1c-2.16-7.489-1.854-12.326.906-14.394 2.853-2.146 7.819-.913 14.759 3.654a4.823 4.823 0 0 1 .5.327c.423.282.889.6 1.366.94 13.427 9.459 31.695 28.835 48.866 51.83a352.029 352.029 0 0 1 24.5 37.167c6.074 10.8 10.352 20.262 12.371 27.358.216.717.413 1.449.581 2.163l.053.237c.048.215.093.418.144.621 1.23 5.757.659 9.554-1.689 11.321h-.006a5.494 5.494 0 0 1-3.362 1.021zM401.16 342.837a3.542 3.542 0 0 0-2.177.624c-1.971 1.477-2.038 5.818-.19 12.223l.036.123a1.415 1.415 0 0 0 .046.152.833.833 0 0 1 .036.1c.441 1.493.969 3.07 1.568 4.686 5.671 15.224 18.7 37.2 34.844 58.789a353.888 353.888 0 0 0 27.868 33.066c8.95 9.278 17.065 16.282 23.468 20.255.31.2.607.382.9.554l.166.093c4.851 2.86 8.51 3.7 10.306 2.38 1.644-1.242 1.969-4.447.939-9.269-.047-.186-.1-.4-.148-.638l-.05-.221a34.026 34.026 0 0 0-.552-2.05c-1.981-6.963-6.2-16.274-12.194-26.94a350.026 350.026 0 0 0-24.359-36.95c-17.053-22.838-35.151-42.049-48.415-51.392a70.77 70.77 0 0 0-1.36-.937 4.1 4.1 0 0 0-.394-.259c-4.398-2.9-7.946-4.389-10.338-4.389zm115.116 139.942a1 1 0 0 1-.5-1.863 118.3 118.3 0 0 0 13.192-9.422l1.775-1.4c13.481-11.1 28.449-21.482 41.045-28.453a1 1 0 0 1 .968 1.75c-12.493 6.914-27.35 17.216-40.761 28.263l-1.789 1.406a119.734 119.734 0 0 1-13.422 9.577.99.99 0 0 1-.508.142zM733.272 268.9c0 11.93-17.74 21.61-39.62 21.61s-39.62-9.68-39.62-21.61a13.268 13.268 0 0 1 2.48-7.55q13.89-.15 28.03.2 23.655.6 47.8 2.71a12.2 12.2 0 0 1 .93 4.64z"/><path d="M692.483 599.579a205.372 205.372 0 0 1-25.435-1.6c-68.206-8.508-126-52.495-151.1-114.919a75.633 75.633 0 0 1-10.12 4.851c-9.363 3.6-23.306-1.916-41.442-16.381a1.215 1.215 0 0 1-.13-.11l-.062-.041c-35.444-29.327-79.154-92.694-79.655-124.855-.287-17.285 19.4-29.523 34.239-37.224.679-.358 1.374-.712 2.089-1.074 55.462-28.942 143.552-46.843 235.631-47.878 9.43-.1 18.873-.034 28.066.2a768.783 768.783 0 0 1 47.863 2.714c70.962 6.27 136.751 22.017 195.54 46.8l.708.3c15.217 6.442 24.031 15.318 25.494 25.672 2.625 18.469-6.967 54.428-23.324 87.444-.118.234-.235.47-.353.714-17.86 35.745-38.4 58.176-56.346 61.559a26.1 26.1 0 0 1-5.1.468c-.88-.01-1.866-.073-3.013-.195-.251-.025-.459-.045-.667-.075l-1.308-.174a23.737 23.737 0 0 1-.642-.1 25.743 25.743 0 0 1-.748-.114c-15.5 39.011-42.54 70.224-78.228 90.307a186.5 186.5 0 0 1-91.957 23.711zM516.452 480.622a1.024 1.024 0 0 1 .327.054 1 1 0 0 1 .6.578C541.982 543.565 599.426 587.533 667.3 596c41.395 5.167 81.565-2.394 116.167-21.865 35.514-19.983 62.364-51.126 77.648-90.058a1 1 0 0 1 1.121-.616c.5.1 1.014.183 1.506.251.233.042.424.07.611.1l1.291.171c.192.028.37.045.547.063 1.143.12 2.067.18 2.886.189a23.552 23.552 0 0 0 4.7-.433c17.331-3.266 37.349-25.307 54.92-60.474.116-.24.237-.484.359-.727 16.195-32.687 25.709-68.166 23.136-86.275-1.359-9.62-9.759-17.957-24.29-24.11l-.707-.3c-58.6-24.707-124.186-40.405-194.941-46.656a767.122 767.122 0 0 0-47.738-2.706c-9.169-.234-18.587-.3-27.993-.2-91.779 1.031-179.531 18.848-234.739 47.657-.715.363-1.4.71-2.075 1.067-33.467 17.373-33.241 30.956-33.167 35.42.493 31.666 43.806 94.284 78.917 123.336a1.821 1.821 0 0 1 .16.126l.016.012c17.542 13.992 30.825 19.406 39.478 16.078a75.112 75.112 0 0 0 10.835-5.289 1 1 0 0 1 .504-.139z"/></g><path d="M499.182 463.411C428.887 532.779 346.884 565 263.7 543.5c-68.17-17.617-117.952-69.445-162.893-85.276-37.308-13.142-75.234-4.681-82.809-20.851-5.132-10.958 8.511-20.766 8.511-20.766-12 0-20.711-3.532-23.319-12.766-3.149-11.149 15.4-24.511 15.4-24.511-9.83-.511-16.874-4.074-17.553-12.574-1.341-16.788 34.915-43.6 104.429-38.187-5.429-19.579 2.908-40.558 13.464-40.728 16.507-.266 19.917 27.914 44.171 52.681 23.264 23.757 75.031 56.266 125.191 64.766 42.78 7.25 80.691-17.089 111.251-44.2 1.72-1.52 3.43-3.06 5.11-4.59q4.965-4.515 9.18-8.9c12.79 9.01 30.95 27.92 48.64 51.61a349.949 349.949 0 0 1 24.43 37.06c5.997 10.673 10.259 20.043 12.279 27.143z" fill="#ffd6c0"/><path d="M315.046 551.1a205.585 205.585 0 0 1-51.6-6.628c-40.037-10.346-73.893-32.536-103.764-52.113-20.917-13.709-40.674-26.657-59.211-33.187-16.3-5.744-32.47-7.308-46.735-8.688-17.97-1.739-32.164-3.112-36.647-12.684-2.262-4.829-1.423-10.189 2.426-15.5a31.517 31.517 0 0 1 4.292-4.751c-11.971-.575-19.227-5.085-21.584-13.431-2.676-9.474 8.844-20.036 13.719-24-12.3-1.411-15.472-7.9-15.9-13.282-.4-5.01 2.322-10.718 7.665-16.073 13.664-13.691 46.132-26.92 96.44-23.294-3.536-14.383.152-28.046 5.232-34.838 2.79-3.731 6.088-5.733 9.537-5.789h.256c9.736 0 14.953 9.032 22.152 21.493 5.351 9.26 12.011 20.787 22.493 31.492 24.679 25.2 76.75 56.363 124.644 64.478 45.806 7.768 84.956-21.37 110.42-43.96a460.505 460.505 0 0 0 5.1-4.581c3.333-3.032 6.405-6.01 9.131-8.853a1 1 0 0 1 1.3-.125c13.426 9.458 31.694 28.834 48.865 51.829a352.029 352.029 0 0 1 24.5 37.167c6.074 10.8 10.352 20.262 12.371 27.358a1 1 0 0 1-.26.986c-35.93 35.456-74.042 60.471-113.277 74.35a213.666 213.666 0 0 1-71.565 12.624zM87.59 328.859c-40.313 0-66.653 11.477-78.47 23.317-4.923 4.933-7.44 10.083-7.087 14.5.574 7.193 6.162 11.115 16.608 11.657a1 1 0 0 1 .533 1.81c-.18.13-17.949 13.081-15.027 23.427 2.288 8.1 9.6 12.038 22.357 12.038a1 1 0 0 1 .584 1.811c-.129.094-12.906 9.46-8.189 19.531 4 8.538 17.693 9.863 35.029 11.54 14.378 1.391 30.675 2.969 47.206 8.792 18.767 6.611 38.622 19.624 59.643 33.4 29.742 19.493 63.452 41.586 103.169 51.851 40.333 10.422 81.377 8.422 121.994-5.947 38.8-13.725 76.52-38.444 112.115-73.47-2.04-6.883-6.189-15.978-12.025-26.357a350.026 350.026 0 0 0-24.359-36.95c-16.756-22.44-34.521-41.379-47.718-50.895-2.6 2.686-5.5 5.484-8.628 8.326a527.68 527.68 0 0 1-5.121 4.6c-22.849 20.271-56.623 45.745-96.5 45.747a93.143 93.143 0 0 1-15.577-1.311c-48.31-8.187-100.84-39.627-125.739-65.053-10.659-10.885-17.388-22.532-22.795-31.89-6.92-11.978-11.918-20.588-20.644-20.491-2.808.045-5.563 1.77-7.969 4.987-4.957 6.629-8.494 20.245-4.548 34.474a1 1 0 0 1-1.041 1.265 229.614 229.614 0 0 0-17.801-.709z" fill="#112c41"/><path d="M499.182 463.411c-70.29 69.37-152.3 101.59-235.49 80.09-55.81-14.43-99.3-51.78-137.89-73.53 38.8 19.38 83.25 51.17 137.5 61.22 82.26 15.25 168.82-26.01 225.26-91.92 5.13 9.429 8.79 17.71 10.62 24.14z" fill="#f5b9ab"/><path d="M315.046 551.1a205.585 205.585 0 0 1-51.6-6.628c-40.037-10.346-73.893-32.536-103.764-52.113-20.917-13.709-40.674-26.657-59.211-33.187-16.3-5.744-32.47-7.308-46.735-8.688-17.97-1.739-32.164-3.112-36.647-12.684-2.262-4.829-1.423-10.189 2.426-15.5a31.517 31.517 0 0 1 4.292-4.751c-11.971-.575-19.227-5.085-21.584-13.431-2.676-9.474 8.844-20.036 13.719-24-12.3-1.411-15.472-7.9-15.9-13.282-.4-5.01 2.322-10.718 7.665-16.073 13.664-13.691 46.132-26.92 96.44-23.294-3.536-14.383.152-28.046 5.232-34.838 2.79-3.731 6.088-5.733 9.537-5.789h.256c9.736 0 14.953 9.032 22.152 21.493 5.351 9.26 12.011 20.787 22.493 31.492 24.679 25.2 76.75 56.363 124.644 64.478 45.806 7.768 84.956-21.37 110.42-43.96a460.505 460.505 0 0 0 5.1-4.581c3.333-3.032 6.405-6.01 9.131-8.853a1 1 0 0 1 1.3-.125c13.426 9.458 31.694 28.834 48.865 51.829a352.029 352.029 0 0 1 24.5 37.167c6.074 10.8 10.352 20.262 12.371 27.358a1 1 0 0 1-.26.986c-35.93 35.456-74.042 60.471-113.277 74.35a213.666 213.666 0 0 1-71.565 12.624zM87.59 328.859c-40.313 0-66.653 11.477-78.47 23.317-4.923 4.933-7.44 10.083-7.087 14.5.574 7.193 6.162 11.115 16.608 11.657a1 1 0 0 1 .533 1.81c-.18.13-17.949 13.081-15.027 23.427 2.288 8.1 9.6 12.038 22.357 12.038a1 1 0 0 1 .584 1.811c-.129.094-12.906 9.46-8.189 19.531 4 8.538 17.693 9.863 35.029 11.54 14.378 1.391 30.675 2.969 47.206 8.792 18.767 6.611 38.622 19.624 59.643 33.4 29.742 19.493 63.452 41.586 103.169 51.851 40.333 10.422 81.377 8.422 121.994-5.947 38.8-13.725 76.52-38.444 112.115-73.47-2.04-6.883-6.189-15.978-12.025-26.357a350.026 350.026 0 0 0-24.359-36.95c-16.756-22.44-34.521-41.379-47.718-50.895-2.6 2.686-5.5 5.484-8.628 8.326a527.68 527.68 0 0 1-5.121 4.6c-22.849 20.271-56.623 45.745-96.5 45.747a93.143 93.143 0 0 1-15.577-1.311c-48.31-8.187-100.84-39.627-125.739-65.053-10.659-10.885-17.388-22.532-22.795-31.89-6.92-11.978-11.918-20.588-20.644-20.491-2.808.045-5.563 1.77-7.969 4.987-4.957 6.629-8.494 20.245-4.548 34.474a1 1 0 0 1-1.041 1.265 229.614 229.614 0 0 0-17.801-.709z" fill="#112c41"/><path d="M18.589 379.332c17.277-10.979 36.211-12.932 46.979-13.34" fill="#ffd6c0"/><path d="M18.59 380.333a1 1 0 0 1-.537-1.844c12.995-8.259 28.968-12.8 47.477-13.5a.972.972 0 0 1 1.037.961 1 1 0 0 1-.962 1.037c-18.149.683-33.788 5.12-46.48 13.185a.993.993 0 0 1-.535.161z" fill="#112c41"/><path d="M26.5 416.609c15.642-10.149 36.812-12.268 47.281-12.009" fill="#ffd6c0"/><path d="M26.505 417.609a1 1 0 0 1-.545-1.839c14.621-9.489 34.912-12.483 47.845-12.174a1 1 0 0 1-.049 2c-12.648-.315-32.47 2.612-46.708 11.852a1 1 0 0 1-.543.161z" fill="#112c41"/><path d="M65.568 349.97c-1.787 13.788 3.957 51.192 14.778 67.774" fill="#ffd6c0"/><path d="M80.347 418.744a1 1 0 0 1-.838-.453c-10.772-16.507-16.834-53.785-14.933-68.45a1 1 0 1 1 1.983.258c-1.82 14.045 4.261 51.218 14.625 67.1a1 1 0 0 1-.837 1.547z" fill="#112c41"/><path d="M105.465 328.571c1.262 5.027 2.456 8.646 3.209 10.737a9.964 9.964 0 0 1 .54 4.334c-.655 6.805-1.46 28.032 10.953 47.053" fill="#ffd6c0"/><path d="M120.168 391.7a1 1 0 0 1-.838-.453c-12.7-19.455-11.715-41.426-11.112-47.7a8.888 8.888 0 0 0-.485-3.9c-.781-2.167-1.976-5.806-3.238-10.833a1 1 0 1 1 1.94-.486c1.241 4.946 2.414 8.516 3.18 10.641a10.9 10.9 0 0 1 .594 4.769c-.588 6.106-1.546 27.5 10.8 46.41a1 1 0 0 1-.837 1.547z" fill="#112c41"/><path d="M958.419 175.332c-36.9-34.548-61.787-35.234-58.213-51.064 3.557-15.753 42.128-6.638 42.128-6.638 27.319-5.106 43.659 4.7 43.659 4.7" fill="#ffd6c0"/><path d="M958.419 176.333a1 1 0 0 1-.684-.27c-16.45-15.4-30.47-24.023-40.707-30.319-12.85-7.9-19.929-12.257-17.8-21.7a10.4 10.4 0 0 1 4.9-6.653c10.878-6.8 35.512-1.405 38.222-.785 27.253-5.031 43.472 4.456 44.151 4.863a1 1 0 0 1-1.028 1.716c-.161-.1-16.381-9.546-42.963-4.574a1.027 1.027 0 0 1-.413-.01c-.262-.061-26.343-6.116-36.911.486a8.359 8.359 0 0 0-4.011 5.4c-1.817 8.044 4.436 11.889 16.894 19.551 10.309 6.34 24.428 15.024 41.026 30.562a1 1 0 0 1-.683 1.731z" fill="#112c41"/><ellipse cx="899.129" cy="60.191" fill="#ffd6c0" rx="31.552" ry="16.072" transform="matrix(.17938603 -.98377876 .98377876 .17938603 678.616 933.935)"/><path d="M894.963 92.367a9.256 9.256 0 0 1-2.913-.468c-9.1-3-13.171-19.255-9.269-37 2.607-11.854 8.3-21.536 14.857-25.272a10.428 10.428 0 0 1 8.57-1.149c9.1 3 13.171 19.255 9.269 37-2.608 11.853-8.3 21.536-14.858 25.271a11.431 11.431 0 0 1-5.656 1.618zM892.677 90a8.386 8.386 0 0 0 6.953-.989c6.08-3.464 11.4-12.645 13.893-23.963 3.624-16.474.061-32.026-7.942-34.667a8.374 8.374 0 0 0-6.953.988c-6.081 3.463-11.4 12.645-13.894 23.963-3.623 16.473-.06 32.025 7.943 34.668z" fill="#112c41"/><ellipse cx="925.951" cy="42.322" fill="#ffd6c0" rx="31.904" ry="16.926" transform="matrix(.175 -.985 .985 .175 722.083 946.542)"/><path d="M921.963 74.874a10.042 10.042 0 0 1-3.165-.509c-9.4-3.1-13.893-19.971-10.015-37.6 2.586-11.757 8.362-21.435 15.073-25.258a11.25 11.25 0 0 1 9.248-1.226c9.4 3.1 13.893 19.971 10.015 37.6-2.586 11.757-8.362 21.436-15.073 25.258a12.3 12.3 0 0 1-6.083 1.735zm7.954-63.111a10.24 10.24 0 0 0-5.071 1.479c-6.235 3.552-11.641 12.728-14.11 23.95-3.664 16.659.234 32.483 8.689 35.274a9.191 9.191 0 0 0 7.631-1.065c6.235-3.552 11.641-12.729 14.11-23.95 3.664-16.659-.234-32.483-8.689-35.274a8.128 8.128 0 0 0-2.56-.414z" fill="#112c41"/><ellipse cx="952.372" cy="32.347" fill="#ffd6c0" rx="32.158" ry="17.098" transform="matrix(.26466419 -.96434064 .96434064 .26466419 669.118 942.196)"/><path d="M946.343 64.689a10.223 10.223 0 0 1-4.288-.928c-9.1-4.164-11.938-21.617-6.327-38.9 3.735-11.51 10.457-20.593 17.541-23.7a11.265 11.265 0 0 1 9.42-.219c9.1 4.164 11.937 21.617 6.326 38.905-3.735 11.51-10.457 20.593-17.54 23.705a12.773 12.773 0 0 1-5.132 1.137zM958.4 2a10.758 10.758 0 0 0-4.322.986C947.5 5.872 941.2 14.49 937.63 25.473c-5.308 16.355-2.95 32.714 5.257 36.47a9.211 9.211 0 0 0 7.783-.232c6.578-2.889 12.878-11.507 16.443-22.491 5.308-16.353 2.95-32.714-5.256-36.47A8.237 8.237 0 0 0 958.4 2z" fill="#112c41"/></svg></g><g transform="translate(454.0 1148.0) rotate(0.0 37.0 37.0) scale(1.0320493152213328 1.0320493152213328)"><svg width="71.702" height="71.702" viewBox="0 0 71.702 71.702"><circle cx="35.851" cy="35.851" fill="#ffa9dc" r="34.851"/><path d="M35.851 71.7A35.851 35.851 0 1 1 71.7 35.851 35.892 35.892 0 0 1 35.851 71.7zm0-69.7A33.851 33.851 0 1 0 69.7 35.851 33.89 33.89 0 0 0 35.851 2z" fill="#112c41"/><path d="M63.728 56.764a34.851 34.851 0 1 1-46.58-50.32 34.855 34.855 0 0 0 46.58 50.32z" fill="#ff90d8"/><path d="M35.851 71.7A35.851 35.851 0 1 1 71.7 35.851 35.892 35.892 0 0 1 35.851 71.7zm0-69.7A33.851 33.851 0 1 0 69.7 35.851 33.89 33.89 0 0 0 35.851 2z" fill="#112c41"/></svg></g><g transform="translate(641.0 432.0) rotate(0.0 71.0 61.0) scale(0.9973170765967608 0.9979141957384157)"><svg width="142.382" height="122.255" viewBox="0 0 142.382 122.255"><circle cx="113.042" cy="29.34" fill="#cbc8ff" r="28.34"/><path d="M113.042 58.681a29.341 29.341 0 1 1 29.34-29.341 29.374 29.374 0 0 1-29.34 29.341zm0-56.681a27.341 27.341 0 1 0 27.34 27.34A27.372 27.372 0 0 0 113.042 2z" fill="#112c41"/><path d="M134.931 47.346a28.344 28.344 0 1 1-34.105-43.583 28.349 28.349 0 0 0 34.105 43.583z" fill="#b2b0f7"/><g fill="#112c41"><path d="M113.042 58.681a29.341 29.341 0 1 1 29.34-29.341 29.374 29.374 0 0 1-29.34 29.341zm0-56.681a27.341 27.341 0 1 0 27.34 27.34A27.372 27.372 0 0 0 113.042 2z"/><path d="M1 34.17a1 1 0 0 1-.285-1.958L105.244 1.043a1 1 0 0 1 .572 1.916L1.286 34.128A1.016 1.016 0 0 1 1 34.17zm55.915 88.085a1 1 0 0 1-.686-1.727l76.162-71.863a1 1 0 0 1 1.372 1.455L57.6 121.983a1 1 0 0 1-.685.272zM11.98 87.107a1 1 0 0 1-.527-1.851L86.2 39.02a1 1 0 0 1 1.052 1.7L12.505 86.957a.991.991 0 0 1-.525.15z"/></g></svg></g><g transform="translate(425.0 603.0) rotate(0.0 79.0 79.0) scale(0.991210845603227 0.991210845603227)"><svg width="159.401" height="159.401" viewBox="0 0 159.401 159.401"><g fill="#6ecfea"><path d="M79.575 159.377a79.679 79.679 0 1 1 71.839-44.939 79.2 79.2 0 0 1-71.839 44.939zM79.82 5.024a74.68 74.68 0 1 0 67.094 107.234l2.25 1.09-2.25-1.09A74.67 74.67 0 0 0 79.82 5.024z"/><path d="M55.037 153.553a24.953 24.953 0 0 1-10.984-2.453c-10.542-5.1-16.61-17.52-17.084-34.96-.458-16.825 4.338-36.513 13.5-55.437S62.116 25.812 75.6 15.74C89.581 5.3 103.085 2.365 113.627 7.472S130.237 25 130.712 42.436c.457 16.825-4.338 36.513-13.5 55.437s-21.642 34.892-35.128 44.962c-9.497 7.088-18.772 10.718-27.047 10.718zM102.62 10.26c-7.123 0-15.322 3.281-23.885 9.676-12.826 9.579-24.741 24.864-33.548 43.05S31.768 100 32.2 116c.419 15.388 5.438 26.182 14.133 30.394s20.276 1.459 32.61-7.751c12.826-9.578 24.741-24.867 33.548-43.05s13.419-37.009 12.984-53.012c-.419-15.387-5.438-26.181-14.133-30.393a19.806 19.806 0 0 0-8.722-1.928z"/><path d="M126.8 79.937a91.769 91.769 0 0 1-55.789-18.69 93.272 93.272 0 0 1-32.92-47.324 2.5 2.5 0 0 1 4.791-1.432 88.225 88.225 0 0 0 31.141 44.768A86.811 86.811 0 0 0 126.8 74.937a87.291 87.291 0 0 0 28.924-4.89 2.5 2.5 0 1 1 1.653 4.719 92.271 92.271 0 0 1-30.577 5.171zM98.006 132.3a92.581 92.581 0 0 1-91.92-81.467 2.5 2.5 0 0 1 4.965-.594A87.578 87.578 0 0 0 98.006 127.3a87.1 87.1 0 0 0 48.883-14.9 2.5 2.5 0 0 1 2.795 4.146A92.083 92.083 0 0 1 98.006 132.3z"/></g></svg></g><g transform="translate(977.0 408.0) rotate(0.0 265.5 119.5) scale(0.9975802573043164 0.9917300502504223)"><svg width="532.288" height="240.993" viewBox="0 0 532.288 240.993"><path d="m457.661 175.123-65.72 9.53-66.82 9.69-30.66 4.45-11.66 1.69-46.94 6.81-52.84 7.66-21 3.05-11.55 1.63-144 20.36c-4.88-1.12-7.65-9.3-3.32-13.66 0 0 74.12-41.62 160.44-89.03 95.45-52.41 205.81-111.9 247.39-130z" fill="#dedffe"/><path d="M6.471 240.993a.984.984 0 0 1-.223-.025c-2.66-.61-4.891-2.994-5.825-6.22a9.118 9.118 0 0 1 2.019-9.119 1 1 0 0 1 .22-.168c.741-.416 75.111-42.164 160.448-89.034C252.583 87.3 368.146 24.859 410.582 6.386a1 1 0 0 1 1.363.649l46.68 167.82a1 1 0 0 1-.82 1.258l-295.64 42.88-155.554 21.99a.932.932 0 0 1-.14.01zm-2.7-13.858a7.179 7.179 0 0 0-1.423 7.058 6.7 6.7 0 0 0 4.181 4.782l155.357-21.962L456.393 174.3 410.327 8.681c-43.2 19-157.55 80.792-246.255 129.5-83.667 45.952-156.79 86.981-160.305 88.954z" fill="#112c41"/><path d="M329.661 192.953c-37.28 0-67.43-30.94-67.43-68.44a67.651 67.651 0 0 1 31.53-57.58 78.655 78.655 0 0 0-10.96 133.55l11.66-1.69 30.66-4.45 13.02-1.89a69.722 69.722 0 0 1-8.48.5zm-135.84 20.43-10.8 1.57-21 3.05-11.55 1.63a52.577 52.577 0 0 1 13.39-82.15 42.075 42.075 0 0 0 29.96 75.9z" fill="#b2b0f7"/><path d="M6.471 240.993a.984.984 0 0 1-.223-.025c-2.66-.61-4.891-2.994-5.825-6.22a9.118 9.118 0 0 1 2.019-9.119 1 1 0 0 1 .22-.168c.741-.416 75.111-42.164 160.448-89.034C252.583 87.3 368.146 24.859 410.582 6.386a1 1 0 0 1 1.363.649l46.68 167.82a1 1 0 0 1-.82 1.258l-295.64 42.88-155.554 21.99a.932.932 0 0 1-.14.01zm-2.7-13.858a7.179 7.179 0 0 0-1.423 7.058 6.7 6.7 0 0 0 4.181 4.782l155.357-21.962L456.393 174.3 410.327 8.681c-43.2 19-157.55 80.792-246.255 129.5-83.667 45.952-156.79 86.981-160.305 88.954z" fill="#112c41"/><circle cx="443.672" cy="88.616" fill="#9797f7" r="72.732"/><path d="M188.3 214.733a43.061 43.061 0 0 1-18.847-81.749 1 1 0 1 1 .874 1.8 41.071 41.071 0 0 0 23.36 77.609 1 1 0 1 1 .266 1.982 42.577 42.577 0 0 1-5.653.358zm141.361-20.78c-37.732 0-68.43-31.15-68.43-69.44a68.468 68.468 0 0 1 32-58.426 61.746 61.746 0 0 1 5.3-3.025 1 1 0 1 1 .906 1.783 60.17 60.17 0 0 0-5.134 2.931 66.485 66.485 0 0 0-31.069 56.737c0 37.187 29.8 67.44 66.43 67.44a68.923 68.923 0 0 0 8.359-.492.983.983 0 0 1 .121-.008c-.026 0 .037-.01.11-.01a1 1 0 0 1 .012 2h-.034a70.981 70.981 0 0 1-8.571.51z" fill="#112c41"/><path d="M514.549 90.909a3.874 3.874 0 0 0 .007-4.578c-13.633-18.692-39.039-40.978-70.982-40.978-29.1 0-55.325 21.343-70.607 40.672a4.256 4.256 0 0 0-.055 5.221c14.688 19.247 42.16 40.649 70.662 40.632 29.786-.017 56.981-21.889 70.975-40.969z" fill="#fff"/><circle cx="443.672" cy="88.616" fill="#112c41" r="43.28"/><path d="M443.672 1a87.616 87.616 0 1 0 87.616 87.616A87.616 87.616 0 0 0 443.672 1zm0 160.348A72.733 72.733 0 1 1 516.4 88.616a72.733 72.733 0 0 1-72.728 72.732z" fill="#dedffe"/><path d="M443.672 177.232a88.616 88.616 0 1 1 88.615-88.616 88.716 88.716 0 0 1-88.615 88.616zm0-175.232a86.616 86.616 0 1 0 86.615 86.616A86.714 86.714 0 0 0 443.672 2zm0 160.348A73.732 73.732 0 1 1 517.4 88.616a73.816 73.816 0 0 1-73.728 73.732zm0-145.464A71.732 71.732 0 1 0 515.4 88.616a71.813 71.813 0 0 0-71.728-71.732z" fill="#112c41"/></svg></g><g transform="translate(1087.0 504.0) rotate(0.0 52.5 88.5) scale(0.9937253343175947 1.003788308418211)"><svg width="105.663" height="176.332" viewBox="0 0 105.663 176.332"><path d="M77.088 175.332C40.184 140.784 15.3 140.1 18.876 124.268 22.433 108.515 61 117.63 61 117.63c27.319-5.106 43.66 4.7 43.66 4.7" fill="#ffd6c0"/><path d="M77.088 176.332a.994.994 0 0 1-.683-.27c-16.451-15.4-30.47-24.023-40.708-30.318-12.85-7.9-19.928-12.257-17.8-21.7a10.4 10.4 0 0 1 4.905-6.655c10.878-6.793 35.511-1.406 38.221-.785 27.254-5.031 43.473 4.457 44.151 4.864a1 1 0 0 1-1.028 1.716c-.16-.1-16.38-9.542-42.962-4.575a1 1 0 0 1-.414-.01c-.262-.061-26.341-6.116-36.91.487a8.362 8.362 0 0 0-4.012 5.4c-1.816 8.045 4.437 11.89 16.894 19.552 10.31 6.34 24.429 15.024 41.027 30.562a1 1 0 0 1-.684 1.73z" fill="#112c41"/><ellipse cx="17.798" cy="60.191" fill="#ffd6c0" rx="31.552" ry="16.072" transform="matrix(.179 -.984 .984 .179 -44.609 66.903)"/><path d="M13.633 92.366a9.265 9.265 0 0 1-2.914-.467c-9.1-3-13.171-19.254-9.268-37 2.607-11.853 8.3-21.536 14.857-25.271a10.438 10.438 0 0 1 8.569-1.149c9.1 3 13.172 19.255 9.269 37-2.607 11.853-8.3 21.536-14.857 25.271a11.44 11.44 0 0 1-5.656 1.616zm8.311-62.357A9.375 9.375 0 0 0 17.3 31.37C11.217 34.833 5.893 44.015 3.4 55.332-.22 71.807 3.343 87.358 11.346 90a8.374 8.374 0 0 0 6.953-.988C24.38 85.549 29.7 76.367 32.193 65.049c3.624-16.474.061-32.026-7.943-34.667a7.3 7.3 0 0 0-2.306-.373z" fill="#112c41"/><ellipse cx="44.621" cy="42.322" fill="#ffd6c0" rx="31.904" ry="16.926" transform="matrix(.17517771 -.98453683 .98453683 .17517771 -4.863 78.839)"/><path d="M40.633 74.873a10.036 10.036 0 0 1-3.165-.508c-9.4-3.1-13.894-19.97-10.015-37.6 2.586-11.76 8.361-21.438 15.073-25.265a11.248 11.248 0 0 1 9.247-1.226c9.4 3.1 13.894 19.971 10.016 37.6-2.589 11.764-8.362 21.442-15.074 25.265a12.288 12.288 0 0 1-6.082 1.734zm7.954-63.11a10.235 10.235 0 0 0-5.071 1.479c-6.235 3.552-11.642 12.729-14.11 23.95-3.664 16.66.233 32.483 8.689 35.274a9.18 9.18 0 0 0 7.631-1.066c6.234-3.551 11.641-12.728 14.109-23.95 3.665-16.658-.235-32.482-8.689-35.273a8.117 8.117 0 0 0-2.559-.414z" fill="#112c41"/><ellipse cx="71.041" cy="32.347" fill="#ffd6c0" rx="32.158" ry="17.098" transform="matrix(.26466419 -.96434064 .96434064 .26466419 21.046 92.294)"/><path d="M65.012 64.689a10.222 10.222 0 0 1-4.288-.927C51.625 59.6 48.787 42.144 54.4 24.856c3.736-11.51 10.457-20.593 17.541-23.7a11.269 11.269 0 0 1 9.42-.219c9.097 4.163 11.939 21.612 6.324 38.9-3.736 11.51-10.457 20.593-17.541 23.705a12.756 12.756 0 0 1-5.132 1.147zm-3.456-2.746a9.206 9.206 0 0 0 7.784-.232C75.917 58.822 82.218 50.2 85.783 39.22c5.308-16.353 2.949-32.714-5.257-36.47a9.214 9.214 0 0 0-7.783.232C66.165 5.872 59.865 14.49 56.3 25.473c-5.308 16.354-2.95 32.715 5.257 36.47z" fill="#112c41"/></svg></g><g transform="translate(611.0 862.0) rotate(0.0 313.5 255.5) scale(1.000799682042589 1.0016681400924043)"><svg width="626.499" height="510.149" viewBox="0 0 626.499 510.149"><path d="M160.326 481.268c-39 24.511-96.424 37.039-138.445 12.3C48.273 433 114.5 372.69 167.962 341.273c0 0 28.692 31.7 46.828 49.921" fill="#ffa9dc"/><path d="M166.567 341.1s28.79 31.609 46.982 49.777l-10.885 9.023c-17.8-13.712-45.295-35.559-65.4-39.644-.213-.042 17.26-12.039 29.303-19.156z" fill="#ff90d8"/><path d="M75.042 508.133c-19.965 0-38.277-4.645-53.668-13.709a1 1 0 0 1-.409-1.261C47.792 431.6 115.707 370.821 167.456 340.41a1 1 0 0 1 1.248.192c.287.316 28.884 31.889 46.795 49.887a1 1 0 0 1-1.418 1.411c-16.57-16.651-42.249-44.876-46.312-49.352-51.16 30.25-117.843 90-144.613 150.6 19.147 11.017 42.853 15.14 68.621 11.921 23.081-2.882 47.237-11.636 68.019-24.649a1 1 0 0 1 1.061 1.695c-21.023 13.163-45.468 22.021-68.832 24.939a137 137 0 0 1-16.983 1.079z" fill="#112c41"/><path d="M97.026 427.312c-8.647 0-15.9-2.186-23.739-5.011a2.5 2.5 0 1 1 1.7-4.7c13.376 4.821 26.011 9.378 55.671-4.6 27.162-12.8 45.427-11.356 67.391 5.317a2.5 2.5 0 0 1-3.023 3.983c-20.464-15.535-36.75-16.784-62.237-4.776-15.268 7.191-26.341 9.787-35.763 9.787z" fill="#fff"/><path d="M2.763 480.5a4.932 4.932 0 0 1-1.748-4.2c2.339-32.338 84.877-123.642 141.193-152.571 4.824-2.478 7.747-1.231 10.307.889l15.447 16.66C114.5 372.69 48.275 433 21.881 493.563c-6.995-3.909-13.757-8.235-19.118-13.063z" fill="#fff"/><path d="M21.881 494.563a1 1 0 0 1-.487-.127c-8.242-4.6-14.555-8.919-19.3-13.191a5.91 5.91 0 0 1-2.076-5.022c1.113-15.4 20.508-45.35 50.615-78.167 30.871-33.651 64.933-61.77 91.118-75.221 5.538-2.844 8.872-1.087 11.4 1.008a.915.915 0 0 1 .1.091l15.449 16.659a1 1 0 0 1-.227 1.542C116.992 372.386 49.45 432.8 22.8 493.962a1 1 0 0 1-.917.6zm-18.449-14.8A102.193 102.193 0 0 0 21.41 492.15c26.942-60.8 93.652-120.662 144.975-151.108l-14.558-15.7c-2.445-2.01-4.949-2.894-9.162-.728C84.53 354.478 4.228 445.734 2.013 476.367a3.951 3.951 0 0 0 1.419 3.392z" fill="#112c41"/><circle cx="111.78" cy="470.556" fill="#ffe993" r="8.5"/><path d="M108.936 469.771c-10.175 11.432-15.085 29.1-14.86 35.574a2.833 2.833 0 0 0 5.662-.2c-.174-4.973 4.387-21.931 14.024-32.264a2.832 2.832 0 1 0-4.139-3.866c-.232.25-.461.502-.687.756z" fill="#fff"/><path d="M96.907 509.079a3.838 3.838 0 0 1-3.83-3.7c-.232-6.664 4.62-24.485 15.112-36.274.231-.26.466-.517.7-.771a3.833 3.833 0 0 1 5.6 5.231c-9.448 10.13-13.926 26.705-13.757 31.547a3.837 3.837 0 0 1-3.7 3.963 1.534 1.534 0 0 1-.125.004zm14.786-39.959a1.832 1.832 0 0 0-1.34.58c-.225.242-.45.488-.67.736-10 11.231-14.823 28.673-14.607 34.874a1.854 1.854 0 0 0 1.9 1.768 1.836 1.836 0 0 0 1.767-1.895c-.177-5.09 4.472-22.451 14.293-32.981a1.831 1.831 0 0 0-1.338-3.082z" fill="#112c41"/><circle cx="84.941" cy="469.094" fill="#ffe993" r="8.5"/><path d="M82.074 468.394c-9.832 11.729-13.463 31.636-13.046 38.1a2.832 2.832 0 1 0 5.653-.364c-.321-4.966 2.983-24.157 12.309-34.771a2.832 2.832 0 0 0-4.252-3.742q-.338.383-.664.777z" fill="#fff"/><path d="M71.849 510.149a3.834 3.834 0 0 1-3.819-3.586c-.392-6.072 2.983-26.532 13.277-38.811.223-.268.451-.531.68-.792a3.832 3.832 0 0 1 5.755 5.062c-9.288 10.569-12.358 29.483-12.063 34.046a3.838 3.838 0 0 1-3.578 4.072 3.578 3.578 0 0 1-.252.009zm13.016-42.488a1.826 1.826 0 0 0-1.376.621c-.218.248-.435.5-.648.754-9.933 11.848-13.191 31.553-12.814 37.4a1.834 1.834 0 0 0 1.946 1.711 1.837 1.837 0 0 0 1.711-1.948c-.308-4.761 2.887-24.49 12.556-35.494a1.831 1.831 0 0 0-1.374-3.042z" fill="#112c41"/><path d="M308.9 205.79c58.213-9.957 144.154-11.934 228.482 20.425C642.816 266.672 663.2 409.4 545.794 450.757c-111.433 39.259-223.581 49.593-320.68 41.3a474.2 474.2 0 0 1-65.484-10.47" fill="#b2b0f7"/><path d="M288.409 495.72c-23.436 0-44.7-1.072-63.381-2.669a473.371 473.371 0 0 1-65.628-10.492l.457-1.948a471.352 471.352 0 0 0 65.343 10.448 772.849 772.849 0 0 0 320.263-41.245c25.707-9.057 45.728-23.21 59.507-42.067a102.158 102.158 0 0 0 19.518-59.247c.723-52.23-34.425-101-87.462-121.347-93.1-35.726-182.783-28.1-227.954-20.374l-.337-1.97c45.372-7.763 135.458-15.421 229.008 20.476 53.816 20.651 89.48 70.178 88.745 123.243a104.151 104.151 0 0 1-19.9 60.4c-14.022 19.189-34.362 33.58-60.457 42.773a776.96 776.96 0 0 1-257.722 44.019z" fill="#112c41"/><path d="M545.8 450.754c-111.44 39.26-223.58 49.6-320.68 41.3-7.09-.6-14.66-1.45-22.48-2.53 9.91.89 158.853 1.708 343.412-59.882 57.571-19.212 80.328-67.848 75.528-112.4 13.768 52.192-8.132 109.682-75.78 133.512z" fill="#9797f7"/><path d="M288.409 495.72c-23.436 0-44.7-1.072-63.381-2.669a473.371 473.371 0 0 1-65.628-10.492l-1.274-.3.623-1.151 149.506-276.221.48-.082c45.372-7.763 135.458-15.421 229.008 20.476 53.816 20.651 89.48 70.178 88.745 123.243a104.151 104.151 0 0 1-19.9 60.4c-14.022 19.189-34.362 33.58-60.457 42.773a776.96 776.96 0 0 1-257.722 44.023zm-127.276-14.812a471.785 471.785 0 0 0 64.067 10.151c18.624 1.591 39.852 2.661 63.213 2.661a774.737 774.737 0 0 0 257.05-43.906c25.707-9.057 45.728-23.21 59.507-42.067a102.158 102.158 0 0 0 19.518-59.247c.723-52.23-34.425-101-87.462-121.347C444.252 191.55 354.875 199 309.551 206.694z" fill="#112c41"/><path d="M532.478 302.884c-.6 9.99-2.14 25.03-3.76 39.37-2.35 20.9-4.86 40.29-4.86 40.29l-140.25 10.29h-.04v-.01c-.02-.48-.03-.96-.04-1.43-.01-.19-.01-.38-.01-.57-.14-8.46.21-23.16.48-37.68.27-13.52.48-26.88.18-34.9 0 0 98.18-6.95 148.3-15.36z" fill="#ffd6c0"/><path d="M383.645 393.834h-1.077v-1c-.019-.444-.029-.921-.039-1.388-.01-.209-.011-.415-.011-.623-.116-7.006.1-18.282.337-30.22l.144-7.478c.249-12.513.49-26.556.18-34.845l-.036-.966.965-.068c.981-.07 98.706-7.043 148.2-15.348l1.239-.208-.075 1.253c-.52 8.644-1.786 21.908-3.765 39.423a2769.968 2769.968 0 0 1-4.862 40.306l-.105.81zm1.566-74.662c.261 8.433.028 21.925-.213 33.991l-.143 7.479c-.233 11.92-.453 23.178-.337 30.165 0 .189 0 .362.009.536q0 .214.009.42l138.435-10.156c.5-3.889 2.7-21.2 4.753-39.464 1.882-16.656 3.118-29.45 3.678-38.067-47.278 7.788-135.962 14.354-146.191 15.096z" fill="#112c41"/><path d="m404.092 306.5-4.792 85.339c-3.734 2.857-12.836 9.315-15.633 10.791-.383-36.256 1.276-93.064 1.276-93.064z" fill="#f5b9ab"/><path d="M591.5 459.576c-47.853 18.091-112.267 18.957-166.664 10.831a385.2 385.2 0 0 1-44.355-9.2s2.683-42.671 3.081-68.378l11.334-.8s128.622-9.383 128.96-9.493c10.094 4.822 56.05 29.675 67.644 77.04z" fill="#ffa9dc"/><path d="M383.645 393.834h-1.077v-1c-.019-.444-.029-.921-.039-1.388-.01-.209-.011-.415-.011-.623-.116-7.006.1-18.282.337-30.22l.144-7.478c.249-12.513.49-26.556.18-34.845l-.036-.966.965-.068c.981-.07 98.706-7.043 148.2-15.348l1.239-.208-.075 1.253c-.52 8.644-1.786 21.908-3.765 39.423a2769.968 2769.968 0 0 1-4.862 40.306l-.105.81zm1.566-74.662c.261 8.433.028 21.925-.213 33.991l-.143 7.479c-.233 11.92-.453 23.178-.337 30.165 0 .189 0 .362.009.536q0 .214.009.42l138.435-10.156c.5-3.889 2.7-21.2 4.753-39.464 1.882-16.656 3.118-29.45 3.678-38.067-47.278 7.788-135.962 14.354-146.191 15.096z" fill="#112c41"/><path d="M380.485 461.211s2.683-42.671 3.081-68.378l14.058 1.54c2.533 22.329 5.96 57.276 17.012 74.563.116.181-20.657-4.028-34.151-7.725z" fill="#ff90d8"/><path d="M505.009 478.179a2.5 2.5 0 0 1-2.294-1.5c-4.935-11.344-14.359-24.658-46.835-37.405-27.949-10.971-39.437-25.245-42.386-52.662a2.5 2.5 0 0 1 4.971-.535c2.748 25.545 13.017 38.248 39.242 48.542 27.185 10.671 42.017 22.653 49.593 40.066a2.5 2.5 0 0 1-2.291 3.5z" fill="#fff"/><path d="M489.851 476.29a443.52 443.52 0 0 1-65.158-4.894 384.983 384.983 0 0 1-44.473-9.22 1 1 0 0 1-.734-1.027c.027-.427 2.687-42.943 3.08-68.332a1 1 0 0 1 .93-.981l11.334-.8c1.265-.093 126.519-9.23 128.88-9.484a1.013 1.013 0 0 1 .581.086c9.3 4.438 56.27 29.043 68.185 77.7a1 1 0 0 1-.618 1.174c-27.509 10.399-63.343 15.778-102.007 15.778zm-108.318-15.83a383.821 383.821 0 0 0 43.455 8.957c61.377 9.171 123.083 5.254 165.33-10.464-12.168-47.639-60.132-72.249-66.668-75.4-2.644.233-19.335 1.5-128.677 9.481l-10.422.736c-.408 23.546-2.651 60.73-3.018 66.69z" fill="#112c41"/><path d="M528.718 342.254c-2.35 20.9-4.86 40.29-4.86 40.29-37.63 11.62-97.87 17.06-140.25 10.29a.06.06 0 0 0-.04-.01c-.02-.48-.03-.96-.04-1.43-.01-.19-.01-.38-.01-.57-.14-8.46.21-23.16.48-37.68 43.87 2.24 102.99-1.444 144.72-10.89z" fill="#fff"/><path d="M425.413 396.763a271.455 271.455 0 0 1-41.962-2.942.8.8 0 0 1-.12-.026 1 1 0 0 1-.762-.93c-.02-.475-.03-.952-.04-1.419-.01-.209-.011-.415-.011-.623-.116-7.006.1-18.282.337-30.22l.144-7.478a1 1 0 0 1 1.05-.98c47.079 2.407 105.128-1.962 144.448-10.867a1 1 0 0 1 1.215 1.087 2769.119 2769.119 0 0 1-4.862 40.307 1 1 0 0 1-.7.827c-27.566 8.514-64.961 13.264-98.737 13.264zm-40.872-4.794c39.836 6.186 99.007 1.832 138.408-10.192a2785.08 2785.08 0 0 0 4.618-38.241c-39.16 8.669-96.077 12.933-142.589 10.657l-.123 6.449c-.233 11.92-.453 23.178-.337 30.165 0 .189 0 .362.009.536l.014.626z" fill="#112c41"/><path d="M595.49 482.384a4.93 4.93 0 0 1-1.794 4.188c-24.8 20.891-147.791 25.483-207.809 5.332-5.141-1.726-6.288-4.691-6.556-8l1.154-22.689c59.808 16.365 149.215 21.721 211.015-1.639 2.086 7.738 3.706 15.6 3.99 22.808z" fill="#fff"/><path d="M487.643 505.859c-39.979 0-77.321-4.7-102.074-13.007-5.9-1.982-6.97-5.6-7.235-8.87a1.163 1.163 0 0 1 0-.132l1.154-22.69a1 1 0 0 1 .412-.76 1.013 1.013 0 0 1 .85-.154c57.59 15.762 148 21.984 210.4-1.6a1 1 0 0 1 1.319.676c2.453 9.119 3.768 16.651 4.02 23.029a5.911 5.911 0 0 1-2.15 4.991c-11.806 9.947-46.794 16.956-91.31 18.291-5.155.15-10.295.226-15.386.226zm-107.31-21.974c.268 3.153 1.381 5.563 5.872 7.07 61.958 20.8 183.359 14.643 206.847-5.147a3.954 3.954 0 0 0 1.439-3.384 102.157 102.157 0 0 0-3.67-21.524c-62.348 23.128-151.78 17.118-209.4 1.6z" fill="#112c41"/><circle cx="512.292" cy="411.238" fill="#ffe993" r="8.5"/><path d="M513.715 413.823c15.289-.689 31.368-9.5 35.85-14.18a2.832 2.832 0 1 0-4.091-3.918c-3.441 3.594-18.771 12.161-32.9 12.469a2.832 2.832 0 1 0 .119 5.663c.342-.007.683-.019 1.022-.034z" fill="#fff"/><path d="M512.633 414.858a3.833 3.833 0 0 1-.079-7.665c13.851-.3 28.847-8.66 32.2-12.16a3.832 3.832 0 1 1 5.536 5.3c-4.612 4.816-20.763 13.777-36.528 14.488a46.4 46.4 0 0 1-1.041.035zm34.888-19.005a1.83 1.83 0 0 0-1.325.563c-3.522 3.679-19.2 12.464-33.6 12.777a1.837 1.837 0 0 0-1.793 1.871 1.817 1.817 0 0 0 .564 1.284 1.759 1.759 0 0 0 1.306.509q.5-.011 1-.033c15.02-.677 30.882-9.391 35.173-13.873a1.83 1.83 0 0 0-1.322-3.1z" fill="#112c41"/><circle cx="529.975" cy="431.482" fill="#ffe993" r="8.5"/><path d="M531.474 434.024c15.261-1.141 32.055-12.432 36.4-17.244a2.833 2.833 0 1 0-4.206-3.795c-3.333 3.694-19.385 14.72-33.5 15.446a2.832 2.832 0 0 0 .287 5.657c.34-.017.68-.038 1.019-.064z" fill="#fff"/><path d="M530.31 435.092a3.832 3.832 0 0 1-.193-7.66c14.054-.723 29.743-11.722 32.806-15.117a3.832 3.832 0 1 1 5.69 5.134c-4.076 4.518-21.085 16.377-37.065 17.573-.347.026-.7.047-1.043.065a4.266 4.266 0 0 1-.195.005zm35.459-22.041a1.835 1.835 0 0 0-1.362.6c-3.2 3.543-19.555 15.023-34.187 15.776a1.832 1.832 0 1 0 .186 3.659c.331-.016.663-.037.993-.062 15.418-1.153 31.806-12.57 35.729-16.918a1.831 1.831 0 0 0-1.359-3.058z" fill="#112c41"/><path d="M159.367 481.522c-75.92-18.96-135.18-103.57-118.73-204.44a224.183 224.183 0 0 1 6.52-28.26 350.463 350.463 0 0 1 152.71-199.45c1.51-.92 3.01-1.84 4.52-2.74s3.02-1.78 4.53-2.66c1.42-.81 2.84-1.62 4.26-2.41 1.85-1.03 3.71-2.05 5.58-3.04 1.28-.69 2.56-1.36 3.84-2.02.02-.01.03-.02.05-.03 1.52-.79 3.05-1.57 4.57-2.33q2.535-1.26 5.08-2.48c1.17-.56 2.33-1.11 3.5-1.65.69-.32 1.38-.64 2.07-.95a325.25 325.25 0 0 1 53.85-19.18c49.93-12.88 97.65-11.64 133.27 3.75 118.64 51.29 118.37 164.55 107.1 293.18-34.47 6.11-130.05 13.16-159.03 13.1-2.54-.01-4.56-.07-5.99-.19-5.51-.47-8.36-3.13-8.62-8.75-.03-.6-.05-1.21-.07-1.84v-.04c-.39-13.19 1.04-32.49.93-49.42-.1-16.89-1.73-31.4-8.2-35.14-15.62-9.02-27.82 26.32-46.98 75.4-15.63 40.06-34.04 87.49-69.78 131.74" fill="#b2b0f7"/><path d="M159.368 482.523a1.01 1.01 0 0 1-.243-.03c-37.782-9.435-72.267-35.66-94.613-71.95C40.726 371.916 31.9 324.462 39.65 276.921a226.082 226.082 0 0 1 6.55-28.385A351.462 351.462 0 0 1 199.342 48.521l.875-.534c1.22-.744 2.435-1.485 3.658-2.213a595.12 595.12 0 0 1 4.539-2.666 474.762 474.762 0 0 1 4.277-2.419c2.158-1.2 3.938-2.171 5.6-3.05q1.919-1.035 3.85-2.026c1.572-.82 3.106-1.6 4.631-2.365q2.546-1.266 5.1-2.488a271.298 271.298 0 0 1 3.511-1.656l.154-.072c.642-.3 1.284-.593 1.926-.882a326.643 326.643 0 0 1 54.004-19.237c50.522-13.031 98.08-11.681 133.917 3.8 28.882 12.486 51.368 28.723 68.743 49.638 15.807 19.028 26.96 41.472 34.093 68.614 14.033 53.389 9.868 118.807 4.863 175.934a1 1 0 0 1-.821.9c-34.363 6.091-129.847 13.115-158.844 13.115h-.363c-2.65-.01-4.635-.073-6.071-.193-6.139-.525-9.258-3.7-9.536-9.7-.03-.6-.05-1.219-.07-1.855-.206-6.994.09-15.588.4-24.686.285-8.245.578-16.772.526-24.8-.076-12.85-.957-30.383-7.7-34.28a7.907 7.907 0 0 0-6.9-.825c-10.73 3.778-21.241 30.871-34.548 65.173q-2 5.152-4.1 10.549l-.24.613c-15.955 40.9-34.039 87.246-69.694 131.391a1 1 0 1 1-1.556-1.256c35.46-43.9 53.485-90.1 69.387-130.861l.239-.614q2.1-5.388 4.1-10.545c14.02-36.141 24.15-62.253 35.748-66.336a9.929 9.929 0 0 1 8.563.978c5.89 3.405 8.573 14.508 8.7 36 .052 8.068-.242 16.615-.527 24.881-.312 9.065-.607 17.628-.4 24.516.019.661.039 1.265.069 1.86.233 5.029 2.537 7.362 7.706 7.8 1.362.113 3.35.175 5.909.185h.362c28.718 0 122.829-6.906 157.735-12.952 11.3-129.425 10.9-240.625-106.568-291.41-35.43-15.307-82.53-16.621-132.623-3.7a324.352 324.352 0 0 0-53.684 19.121c-.641.288-1.276.582-1.91.876l-.156.071a281.7 281.7 0 0 0-3.489 1.646 311.58 311.58 0 0 0-9.62 4.795c-1.327.688-2.6 1.355-3.876 2.042a290.152 290.152 0 0 0-5.568 3.035c-1.418.788-2.835 1.595-4.251 2.4-1.5.874-3.007 1.752-4.514 2.65-1.217.725-2.427 1.463-3.641 2.2l-.871.532A349.466 349.466 0 0 0 48.115 249.108a224.18 224.18 0 0 0-6.491 28.134c-7.676 47.068 1.058 94.035 24.591 132.252 22.074 35.849 56.115 61.748 93.394 71.058a1 1 0 0 1-.241 1.971z" fill="#112c41"/><path d="M359.447 260.882a8.465 8.465 0 0 1-1.06.68c-32.678 15.663-61.36 127.663-123.78 169.88 35.65-44.2 54.04-91.57 69.65-131.58 19.16-49.08 31.36-84.42 46.98-75.4 6.47 3.74 8.1 18.25 8.2 35.14 0 .42 0 .85.01 1.28zm-67.41-251.12c-.11.04-.21.08-.32.12-94.2 33.44-191.46 119.35-221.68 252.76-22.8 100.64 21.01 188.36 90.05 218.07l-.72.81c-75.92-18.96-135.18-103.57-118.73-204.44a241.632 241.632 0 0 1 6.65-28.32 350.506 350.506 0 0 1 152.58-199.39c1.51-.92 3.01-1.84 4.52-2.74s3.02-1.78 4.53-2.66c1.42-.81 2.84-1.62 4.26-2.41 1.85-1.03 3.71-2.05 5.58-3.04 1.28-.69 2.56-1.36 3.84-2.02.02-.01.03-.02.05-.03 1.52-.79 3.05-1.57 4.57-2.33q2.535-1.26 5.08-2.48c1.17-.56 2.33-1.11 3.5-1.65.69-.32 1.38-.64 2.07-.95a324.932 324.932 0 0 1 54.17-19.3z" fill="#9797f7"/><g fill="#112c41"><path d="M159.958 482.632a1.058 1.058 0 0 1-.229-.026c-39.753-9.314-75.4-36.827-97.8-75.484-26.8-46.258-32.344-102.6-15.6-158.646a350.853 350.853 0 0 1 76.579-136.448A355.916 355.916 0 0 1 235.159 29.2C268.852 13.484 304.334 3.687 337.771.861c33.094-2.792 63.435 1.279 87.743 11.784 28.882 12.486 51.368 28.722 68.742 49.637 15.808 19.029 26.96 41.472 34.094 68.614 14.033 53.388 9.868 118.806 4.863 175.933a1 1 0 0 1-.822.9c-34.357 6.09-129.842 13.115-158.843 13.115h-.363c-2.662-.01-4.648-.073-6.072-.193-6.139-.523-9.257-3.7-9.535-9.7-.03-.6-.05-1.217-.071-1.853-.2-7.005.092-15.612.406-24.726.269-7.789.548-15.844.534-23.485-.01-.416-.01-.854-.01-1.281-.076-12.843-.957-30.377-7.7-34.275a7.911 7.911 0 0 0-6.9-.824c-10.73 3.778-21.241 30.872-34.549 65.175q-2 5.15-4.1 10.547l-.232.593c-15.937 40.85-34 87.149-69.572 131.251l-.123.152a1 1 0 1 1-1.57-1.239l.088-.109c35.425-43.921 53.429-90.067 69.314-130.781l.231-.594q2.1-5.389 4.1-10.544c14.021-36.141 24.151-62.254 35.749-66.337a9.912 9.912 0 0 1 8.563.978c5.89 3.405 8.573 14.508 8.7 36 0 .418 0 .84.01 1.261.014 7.7-.265 15.773-.535 23.58-.313 9.081-.609 17.657-.406 24.555.02.661.04 1.265.07 1.86.232 5.03 2.537 7.362 7.706 7.8 1.35.114 3.338.176 5.909.186 28.259.062 123.049-6.881 158.1-12.952 11.3-129.424 10.9-240.624-106.568-291.409C400.714 4.106 370.706.086 337.94 2.855 304.735 5.66 269.486 15.4 236 31.008a353.884 353.884 0 0 0-111.61 82.364 348.861 348.861 0 0 0-76.145 135.676C31.66 304.562 37.135 360.344 63.66 406.12c22.125 38.182 57.307 65.35 96.525 74.538a1 1 0 0 1-.227 1.974z"/><path d="M214.1 488.329a261.392 261.392 0 0 1-55.512-5.969l.425-1.955c83.942 18.258 171.232-6.474 222.384-63l1.483 1.342c-40.354 44.589-102.957 69.582-168.78 69.582z"/></g></svg></g></svg>