<svg xmlns="http://www.w3.org/2000/svg" viewBox="0 0 3000 3000" width="3000" height="3000"><g transform="translate(2083.2 1052.3999999999999) rotate(0.0 262.20000000000005 280.20000000000005) scale(1.1977087311230692 1.1995453543303718)"><svg width="437.836" height="467.177" viewBox="0 0 437.836 467.177"><linearGradient id="a" gradientUnits="userSpaceOnUse" x1="300.842" x2="482.885" y1="337.863" y2="196.287"><stop offset=".189" stop-color="#3658c1"/><stop offset=".593" stop-color="#b0c3ff"/><stop offset="1" stop-color="#3658c1"/></linearGradient><path d="m377.487 19.647 16.174 33.379c4.479 9.244 4.35 20.613-1.409 31.062a40.147 40.147 0 0 1-2.61 4.119l-16.174-33.379a39.976 39.976 0 0 0 2.61-4.119c5.759-10.45 5.888-21.819 1.409-31.062" fill="#3658c1"/><path d="M389.642 89.208a.997.997 0 0 1-.9-.564l-16.174-33.379a.998.998 0 0 1 .089-1.021 38.987 38.987 0 0 0 2.545-4.017c5.405-9.807 5.912-20.787 1.392-30.128l-.007-.015a1 1 0 1 1 1.8-.872l16.174 33.379c4.814 9.937 4.292 21.593-1.433 31.981a41.452 41.452 0 0 1-2.675 4.222 1 1 0 0 1-.811.415zm-15.016-34.282 15.167 31.301a39.222 39.222 0 0 0 1.583-2.621c5.408-9.812 5.913-20.799 1.385-30.144l-11.268-23.255c.697 6.985-.828 14.251-4.539 20.985a41.263 41.263 0 0 1-2.328 3.733z" fill="#111"/><path d="M360.332 3.829c18.726 7.689 25.777 28.68 15.746 46.88a40.147 40.147 0 0 1-2.61 4.119c-9.21-7.168-19.673-13.269-31.299-18.042-11.626-4.774-23.711-7.931-35.965-9.576a38.472 38.472 0 0 1 2.055-4.347C318.29 4.662 341.605-3.86 360.332 3.829z" fill="#b0c3ff"/><path d="M373.468 55.829a.995.995 0 0 1-.614-.211c-9.296-7.235-19.748-13.259-31.064-17.906-11.32-4.649-23.338-7.849-35.717-9.51a.999.999 0 0 1-.796-1.361c.6-1.51 1.31-3.011 2.108-4.461 10.253-18.604 34.176-27.339 53.329-19.476 9.157 3.76 15.929 10.741 19.07 19.655 3.257 9.245 2.252 19.414-2.828 28.633a41.357 41.357 0 0 1-2.676 4.222.997.997 0 0 1-.811.414zm-65.84-29.431c12.094 1.73 23.836 4.911 34.921 9.463 11.149 4.578 21.473 10.475 30.702 17.537a39 39 0 0 0 1.952-3.171c4.802-8.713 5.759-18.303 2.694-27.003-2.949-8.37-9.321-14.929-17.943-18.47-18.241-7.488-41.04.849-50.817 18.592-.55.997-1.055 2.02-1.508 3.052z" fill="#111"/><path d="M121.498 342.93 12.157 298.034c-4.497-1.847-7.642-4.952-9.421-8.624l16.174 33.379c1.779 3.672 4.924 6.777 9.421 8.624l109.341 44.897-16.174-33.379z" fill="#3658c1"/><path d="M137.671 377.308a.99.99 0 0 1-.38-.075L27.95 332.336c-4.513-1.853-7.95-5.004-9.941-9.112L1.836 289.845a1 1 0 1 1 1.8-.872l.007.014c1.774 3.652 4.849 6.46 8.894 8.121l109.341 44.896c.228.094.413.268.52.489l16.173 33.378a1 1 0 0 1-.9 1.436zM7.227 296.384l12.583 25.968c1.773 3.659 4.851 6.471 8.901 8.135l106.92 43.902-14.866-30.68-108.988-44.751a20.399 20.399 0 0 1-4.55-2.574z" fill="#111"/><path d="M206.22 377.717c-.022 7.988-2.1 16.261-6.454 24.162-14.185 25.738-47.163 37.792-73.645 26.919-26.482-10.874-36.454-40.563-22.269-66.302 4.355-7.901 10.481-14.512 17.646-19.567z" fill="#fff"/><path d="M146.719 433.782c-7.142 0-14.268-1.304-20.978-4.059-12.838-5.271-22.333-15.057-26.735-27.553-4.567-12.963-3.157-27.225 3.97-40.157 4.273-7.752 10.479-14.633 17.946-19.901.28-.196.64-.236.956-.108l84.722 34.788a1 1 0 0 1 .62.928c-.023 8.354-2.298 16.875-6.578 24.642-10.81 19.613-32.435 31.42-53.923 31.42zm-25.09-89.717c-7.023 5.051-12.859 11.581-16.901 18.915-6.849 12.426-8.211 26.109-3.836 38.527 4.21 11.951 13.305 21.315 25.609 26.367 25.991 10.674 58.463-1.206 72.39-26.476 4.004-7.265 6.184-15.207 6.323-23.012l-83.584-34.32z" fill="#111"/><path d="m206.22 377.717 16.174 33.379c-.022 7.988-2.1 16.261-6.454 24.162-14.185 25.738-47.163 37.792-73.645 26.919-11.277-4.631-19.561-12.674-24.259-22.371l-16.174-33.379c4.699 9.697 12.982 17.74 24.259 22.371 26.482 10.874 59.46-1.18 73.645-26.919 4.355-7.901 6.432-16.175 6.454-24.162" fill="#3658c1"/><path d="M162.893 467.161c-7.142 0-14.268-1.304-20.978-4.059-11.191-4.596-19.76-12.5-24.78-22.86l-16.173-33.378a1 1 0 1 1 1.8-.872c4.802 9.91 13.011 17.476 23.739 21.882 25.991 10.672 58.463-1.207 72.39-26.477 4.119-7.473 6.308-15.663 6.33-23.682a1 1 0 0 1 1.9-.433l16.173 33.378a.997.997 0 0 1 .1.439c-.023 8.354-2.298 16.875-6.578 24.642-10.81 19.613-32.434 31.42-53.923 31.42zm-54.304-49.143 10.346 21.351c4.802 9.91 13.011 17.477 23.74 21.882 25.99 10.671 58.463-1.206 72.389-26.477 4.08-7.403 6.266-15.506 6.329-23.452l-14.352-29.62c-.615 7.054-2.797 14.124-6.398 20.659-14.402 26.132-48.003 38.404-74.901 27.361-6.734-2.766-12.519-6.729-17.152-11.705z" fill="#111"/><path d="m424.64 131.292-16.174-33.379c17.306 35.716 16.807 79.643-5.444 120.017l-42.595 77.287c-16.097 29.206-16.253 74.637-13.838 106.199 1.167 15.223-16.4 27.203-31.015 21.202L206.22 377.716l16.174 33.379 109.354 44.901c14.615 6.002 32.182-5.979 31.015-21.202-2.415-31.561-2.259-76.992 13.838-106.198l42.595-77.287c22.252-40.375 22.75-84.301 5.444-120.017z" fill="url(#a)"/><path d="M339.791 458.555c-2.892 0-5.755-.537-8.424-1.633l-109.354-44.901a1.001 1.001 0 0 1-.52-.489l-16.173-33.379a1 1 0 0 1 1.279-1.361l109.354 44.902c6.704 2.753 14.77 1.624 21.05-2.944 5.878-4.275 9.088-10.727 8.588-17.257-2.496-32.619-2.1-77.619 13.959-106.758l42.595-77.287c21.349-38.737 23.325-82.147 5.42-119.099a1 1 0 1 1 1.8-.872l16.173 33.379c18.192 37.543 16.198 81.623-5.468 120.937l-42.595 77.287c-15.822 28.708-16.192 73.292-13.717 105.64.554 7.228-2.962 14.341-9.405 19.027-4.352 3.165-9.501 4.809-14.563 4.809zm-116.665-48.239 109 44.756c6.705 2.754 14.77 1.625 21.051-2.943 5.878-4.275 9.088-10.727 8.587-17.257-2.496-32.619-2.1-77.618 13.959-106.758l42.595-77.286c21.35-38.738 23.325-82.147 5.42-119.099l-6.526-13.468c8.994 32.431 4.461 67.897-13.316 100.153l-42.595 77.287c-15.821 28.707-16.192 73.292-13.717 105.64.554 7.228-2.962 14.341-9.406 19.027-6.837 4.973-15.645 6.189-22.986 3.176l-106.933-43.908 14.866 30.68z" fill="#111"/><path d="M342.169 36.786c11.626 4.774 22.089 10.874 31.299 18.042 48.122 37.454 62.086 104.074 29.554 163.102l-42.595 77.287c-16.097 29.207-16.253 74.637-13.838 106.199 1.167 15.223-16.4 27.203-31.015 21.202L206.22 377.717l-84.722-34.788-109.341-44.896c-14.628-6.006-14.943-25.329-.523-34.152 29.905-18.29 70.629-47.064 86.726-76.271l42.595-77.287c32.532-59.028 101.224-91.709 165.25-83.114 12.254 1.645 24.339 4.803 35.965 9.576z" fill="#b0c3ff"/><path d="M323.618 425.176c-2.892 0-5.754-.537-8.424-1.633L11.777 298.959C5.005 296.178.625 290.311.062 283.265c-.634-7.924 3.601-15.678 11.05-20.236 30.652-18.747 70.518-47.133 86.372-75.9l42.595-77.287c32.009-58.08 100.381-92.466 166.259-83.622 12.549 1.685 24.733 4.929 36.211 9.643 11.485 4.716 22.094 10.832 31.533 18.178 49.612 38.614 61.873 106.207 29.816 164.374l-42.595 77.287c-15.822 28.707-16.192 73.292-13.717 105.64.554 7.228-2.962 14.341-9.406 19.028-4.351 3.165-9.501 4.809-14.563 4.809zM285.577 26.839c-58.35 0-115.438 32.602-143.747 83.967l-42.595 77.287c-16.066 29.151-56.223 57.768-87.08 76.641-6.803 4.163-10.673 11.202-10.101 18.371.51 6.373 4.33 11.477 10.482 14.003l303.417 124.585c6.704 2.752 14.77 1.625 21.05-2.943 5.878-4.275 9.088-10.727 8.588-17.258-2.496-32.619-2.1-77.619 13.959-106.758l42.595-77.287c31.573-57.286 19.527-123.833-29.292-161.83-9.296-7.235-19.748-13.259-31.064-17.906-11.32-4.649-23.338-7.849-35.718-9.51a154.085 154.085 0 0 0-20.495-1.362z" fill="#111"/></svg></g><g transform="translate(769.1999999999999 514.8) rotate(0.0 762.0 1033.1999999999998) scale(1.2004707357688291 1.2003715435730105)"><svg width="1269.502" height="1721.467" viewBox="0 0 1269.502 1721.467"><linearGradient id="b" gradientUnits="userSpaceOnUse" x1="282.953" x2="857.561" y1="128.802" y2="1668.446"><stop offset="0" stop-color="#111"/><stop offset=".31" stop-color="#3658c1"/><stop offset=".761" stop-color="#3658c1"/><stop offset="1" stop-color="#111"/></linearGradient><path d="M775.3 27.458c17.622-2.476 36.3 10.674 41.72 29.374l424.427 1463.941c5.423 18.7-4.466 35.865-22.088 38.342l-680.046 95.574c-17.665 2.483-36.34-10.666-41.763-29.368L73.122 161.38c-5.421-18.7 4.465-35.865 22.131-38.347zM543.536 141.281c13.272-1.866 20.787-14.91 16.7-29s-18.273-24.072-31.546-22.207l-171.3 24.074c-13.271 1.866-20.786 14.91-16.7 28.993s18.278 24.079 31.549 22.214l171.3-24.074" fill="#fff"/><path d="M535.019 1655.987c-16.7 0-33.335-12.815-38.43-30.387L72.162 161.659c-2.83-9.761-1.643-19.7 3.257-27.27a27.607 27.607 0 0 1 19.7-12.347L775.16 26.468c18.064-2.539 37.274 10.958 42.82 30.086L1242.407 1520.5c2.831 9.764 1.643 19.708-3.259 27.281a27.548 27.548 0 0 1-19.65 12.329l-680.046 95.574a31.849 31.849 0 0 1-4.433.303zM775.3 27.458l.139.991-680.047 95.574A25.634 25.634 0 0 0 77.1 135.476c-4.584 7.083-5.683 16.423-3.015 25.626L498.51 1625.043c5.28 18.21 23.521 31.066 40.663 28.656l680.046-95.574a25.579 25.579 0 0 0 18.25-11.436c4.587-7.086 5.686-16.43 3.017-25.637L816.059 57.111c-5.28-18.211-23.5-31.069-40.621-28.662zM369.005 166.579c-12.717 0-25.391-9.768-29.274-23.159-2.153-7.426-1.232-15.013 2.525-20.818a21.049 21.049 0 0 1 15-9.444l171.3-24.074c13.776-1.935 28.423 8.347 32.649 22.923 2.153 7.426 1.233 15.015-2.525 20.819a21.047 21.047 0 0 1-15 9.445l-.139-.991.139.991-171.3 24.074a24.309 24.309 0 0 1-3.375.234zm162.948-75.731a22.428 22.428 0 0 0-3.124.217l-171.3 24.074a19.074 19.074 0 0 0-13.6 8.55c-3.442 5.317-4.274 12.306-2.283 19.174 3.96 13.659 17.618 23.3 30.448 21.5L543.4 140.29a19.075 19.075 0 0 0 13.6-8.551c3.442-5.317 4.274-12.306 2.283-19.175-3.643-12.552-15.483-21.716-27.33-21.716z" fill="#111"/><path d="M528.692 90.075c13.271-1.866 27.465 8.128 31.548 22.212s-3.431 27.128-16.7 28.994l-171.3 24.074c-13.272 1.865-27.466-8.129-31.549-22.213s3.432-27.128 16.7-28.993z" fill="#b0c3ff"/><path d="M369.006 166.579c-12.717 0-25.392-9.768-29.274-23.158-2.153-7.426-1.233-15.013 2.524-20.818a21.043 21.043 0 0 1 15-9.444l171.3-24.075.139.991-.139-.991c13.776-1.937 28.422 8.348 32.648 22.924 2.153 7.426 1.232 15.014-2.525 20.818a21.047 21.047 0 0 1-15 9.445l-171.3 24.074a24.32 24.32 0 0 1-3.373.234zm162.948-75.731a22.4 22.4 0 0 0-3.123.217l-171.3 24.074a19.077 19.077 0 0 0-13.6 8.551c-3.442 5.317-4.274 12.306-2.283 19.174 3.64 12.553 15.474 21.716 27.326 21.717a22.4 22.4 0 0 0 3.123-.217L543.4 140.29a19.076 19.076 0 0 0 13.6-8.55c3.442-5.318 4.274-12.306 2.283-19.175-3.643-12.553-15.477-21.717-27.329-21.717z" fill="#111"/><path d="m1226.876 1585.044-680.091 95.58c-31.068 4.367-64.053-18.857-73.625-51.874L48.732 164.808c-6.549-22.592-.442-43.917 14.034-56.533L17.655 147.59C3.179 160.206-2.928 181.532 3.622 204.124l424.427 1463.941c9.573 33.017 42.557 56.241 73.626 51.875l680.09-95.581a47.692 47.692 0 0 0 24.971-11.171l45.11-39.316a47.686 47.686 0 0 1-24.97 11.172z" fill="url(#b)"/><path d="M494.114 1721.464c-29.1 0-58.121-22.407-67.025-53.121L2.661 204.4c-6.434-22.193-.94-44.251 14.337-57.566l45.111-39.315a1 1 0 1 1 1.314 1.507c-14.684 12.8-19.945 34.065-13.73 55.5L474.12 1628.471c8.662 29.875 36.845 51.678 65.077 51.68a53.46 53.46 0 0 0 7.449-.517l680.091-95.58a46.966 46.966 0 0 0 24.452-10.936 1 1 0 0 1 1.314 1.508l-45.11 39.315a48.956 48.956 0 0 1-25.488 11.408l-680.091 95.581a55.377 55.377 0 0 1-7.7.534zM53.155 117.977l-34.843 30.367c-14.684 12.8-19.945 34.064-13.73 55.5L429.01 1667.786c9.424 32.508 41.959 55.457 72.526 51.163l680.09-95.58a46.968 46.968 0 0 0 24.453-10.935l34.915-30.43a50.952 50.952 0 0 1-13.979 4.03l-680.09 95.58c-31.513 4.427-65.035-19.161-74.726-52.586L47.772 165.087c-4.956-17.095-2.835-34.109 5.383-47.11z" fill="#111"/><path d="M767.781 1.529c31.113-4.373 64.1 18.851 73.672 51.87L1265.88 1517.34c9.573 33.018-7.892 63.331-39 67.7l-680.09 95.58c-31.069 4.367-64.054-18.857-73.626-51.874L48.732 164.808c-9.572-33.019 7.891-63.332 39-67.7zm473.666 1519.245L817.02 56.833c-5.422-18.7-24.1-31.851-41.721-29.375L95.254 123.033c-17.666 2.482-27.554 19.646-22.132 38.348l424.427 1463.941c5.422 18.7 24.1 31.851 41.765 29.368l680.045-95.574c17.622-2.477 27.51-19.642 22.088-38.342" fill="#b0c3ff"/><path d="M539.225 1682.149c-29.1 0-58.121-22.407-67.026-53.121L47.772 165.087c-4.936-17.027-2.872-34.356 5.665-47.544A47.886 47.886 0 0 1 87.6 96.113L767.642.539c31.538-4.434 65.081 19.155 74.771 52.582l424.428 1463.94c4.936 17.026 2.871 34.355-5.666 47.543a47.886 47.886 0 0 1-34.16 21.43l-680.09 95.581a55.388 55.388 0 0 1-7.7.534zM767.781 1.529l.14.99L87.876 98.093a45.918 45.918 0 0 0-32.76 20.537c-8.221 12.7-10.2 29.43-5.423 45.9L474.12 1628.471c8.661 29.874 36.845 51.678 65.077 51.68a53.45 53.45 0 0 0 7.449-.517l680.091-95.58a45.916 45.916 0 0 0 32.759-20.537c8.222-12.7 10.2-29.43 5.424-45.9L840.493 53.677c-9.425-32.508-41.98-55.457-72.572-51.158zM535.02 1655.988c-16.7 0-33.337-12.817-38.431-30.387L72.162 161.659c-2.83-9.76-1.643-19.7 3.257-27.269a27.607 27.607 0 0 1 19.7-12.348L775.16 26.468c18.066-2.538 37.274 10.958 42.82 30.086L1242.407 1520.5c2.831 9.764 1.643 19.707-3.259 27.281a27.548 27.548 0 0 1-19.65 12.329l-680.045 95.57a31.838 31.838 0 0 1-4.433.308zM779.609 28.159a29.917 29.917 0 0 0-4.171.29L95.393 124.023a25.632 25.632 0 0 0-18.3 11.454c-4.585 7.082-5.684 16.422-3.016 25.625L498.51 1625.043c5.279 18.211 23.522 31.067 40.665 28.657l680.045-95.574a25.579 25.579 0 0 0 18.249-11.436c4.587-7.086 5.687-16.431 3.018-25.638L816.059 57.111c-4.852-16.735-20.638-28.952-36.45-28.952z" fill="#111"/></svg></g><g transform="translate(1057.2 883.1999999999999) rotate(0.0 481.19999999999993 722.4000000000001) scale(1.1988893082842202 1.1999591376041183)"><svg width="802.743" height="1204.041" viewBox="0 0 802.743 1204.041"><path d="m710.566 1018.036-294.825 41.435c-37.176 5.225-58.049 41.453-46.61 80.908 11.452 39.501 50.875 67.255 88.051 62.03l294.825-41.435c37.179-5.225 58.049-41.453 46.597-80.954-11.439-39.455-50.859-67.21-88.038-61.985" fill="#b0c3ff"/><path d="M448.136 1204.038c-34.717 0-69.341-26.735-79.965-63.38-5.883-20.291-3.423-40.941 6.749-56.654 9.095-14.05 23.543-23.114 40.683-25.522l294.825-41.435c37.597-5.282 77.583 22.842 89.137 62.697 5.891 20.317 3.433 40.986-6.743 56.706-9.092 14.046-23.538 23.107-40.675 25.516l-294.825 41.435c-3.05.429-6.12.638-9.185.638zm262.43-186.001.139.99-294.825 41.435c-16.557 2.327-30.507 11.074-39.282 24.629-9.856 15.226-12.228 35.277-6.506 55.011 11.295 38.961 50.3 66.465 86.951 61.318l294.825-41.435c16.554-2.327 30.502-11.071 39.274-24.623 9.861-15.233 12.23-35.302 6.501-55.063-11.289-38.937-50.292-66.423-86.938-61.273l-.139-.99z" fill="#111"/><path d="m639.087 804.138-279.445 39.273 14.115 48.688 279.445-39.273z" fill="#3658c1"/><path d="M373.756 893.099a1 1 0 0 1-.959-.722l-14.116-48.688a.998.998 0 0 1 .821-1.269l279.445-39.273a1 1 0 0 1 1.1.712l14.116 48.688a.998.998 0 0 1-.821 1.269l-279.445 39.273a.951.951 0 0 1-.14.01zm-12.833-48.858 13.553 46.748 277.444-38.992-13.553-46.748z" fill="#111"/><path d="m520.828 715.531-325.85 45.795 14.115 48.688 325.85-45.795z" fill="#3658c1"/><path d="M209.093 811.014c-.439 0-.834-.29-.96-.722l-14.116-48.688a.998.998 0 0 1 .821-1.269l325.85-45.795a1 1 0 0 1 1.1.712l14.116 48.688a.998.998 0 0 1-.821 1.269l-325.85 45.795a.951.951 0 0 1-.14.01zm-12.833-48.858 13.553 46.748 323.849-45.514-13.553-46.747-323.849 45.514z" fill="#111"/><path d="m745.167 684.002-178.461 25.081 14.116 48.688 178.461-25.081z" fill="#3658c1"/><path d="M580.821 758.771a1 1 0 0 1-.959-.722l-14.116-48.688a.998.998 0 0 1 .821-1.269l178.461-25.082a.997.997 0 0 1 1.1.712l14.116 48.688a.998.998 0 0 1-.821 1.269L580.962 758.76a.951.951 0 0 1-.14.01zm-12.833-48.858 13.553 46.747 176.46-24.8-13.553-46.748-176.46 24.8z" fill="#111"/><path d="m744.771 518.258-34.258-118.162-65.66-226.475c-4.841-16.697-17.665-30.959-33.722-37.44L284.948 4.625C276.87 1.368 268.6.334 260.95 1.409c-7.653 1.075-14.687 4.26-20.297 9.441L13.263 220.207C2.117 230.511-1.8 247.126 3.041 263.823l99.917 344.637c7.504 25.884 33.349 44.044 57.694 40.622l553.573-77.799c24.39-3.428 38.05-27.14 30.546-53.024z" fill="#3658c1"/><path d="M154.724 650.493c-22.897 0-45.728-17.612-52.727-41.755L2.08 264.101c-4.924-16.986-.899-34.087 10.504-44.629L239.976 10.114c5.653-5.221 12.858-8.574 20.834-9.695 7.947-1.116 16.423.017 24.512 3.279l326.183 131.557c16.253 6.559 29.399 21.154 34.309 38.089l99.917 344.637c3.887 13.406 2.265 27.044-4.451 37.418-6.012 9.287-15.571 15.28-26.917 16.875L160.79 650.073a43.611 43.611 0 0 1-6.066.421zM266.852 2.002c-1.945 0-3.87.132-5.764.398-7.571 1.064-14.403 4.24-19.757 9.186L13.94 220.942C3.098 230.965-.711 247.29 4.001 263.544l99.917 344.637c7.352 25.359 32.735 43.26 56.594 39.91l553.573-77.799c10.763-1.513 19.825-7.188 25.517-15.981 6.399-9.886 7.934-22.925 4.208-35.774L643.893 173.9c-4.743-16.358-17.44-30.456-33.136-36.791L284.574 5.552c-5.83-2.351-11.861-3.551-17.722-3.551z" fill="#111"/><path d="M469.294 1.578 326.981 21.579 211.349 37.83l-142.306 20 76.366 263.401 209.75 84.578c8.057 3.26 16.314 4.295 23.968 3.22 7.651-1.075 14.697-4.261 20.328-9.445l146.2-134.619z" fill="#fff"/><path d="M373.231 410.437c-6.115 0-12.392-1.25-18.446-3.701l-209.75-84.577a.998.998 0 0 1-.586-.649L68.083 58.108a.998.998 0 0 1 .821-1.269L469.155.588a1 1 0 0 1 1.1.712l76.361 263.386c.105.364-.004.757-.283 1.014L400.132 400.32c-5.675 5.225-12.891 8.579-20.866 9.699a43.342 43.342 0 0 1-6.035.417zm-226.997-89.951 209.299 84.396c7.745 3.134 15.855 4.225 23.454 3.157 7.571-1.064 14.414-4.242 19.79-9.19l145.745-134.2L468.575 2.69 70.326 58.66l75.909 261.826z" fill="#111"/><path d="M644.853 173.622 399.454 399.584c-5.631 5.184-12.677 8.37-20.328 9.445-7.653 1.076-15.911.04-23.967-3.22L3.04 263.823l99.917 344.637c7.504 25.883 33.349 44.044 57.694 40.622l553.573-77.8c24.39-3.428 38.05-27.14 30.546-53.024l-99.917-344.637" fill="#b0c3ff"/><path d="M154.725 650.493c-22.897 0-45.728-17.613-52.728-41.755L2.08 264.101a1.001 1.001 0 0 1 1.334-1.206l352.12 141.986c7.745 3.134 15.855 4.225 23.454 3.157 7.571-1.064 14.415-4.242 19.79-9.191l245.399-225.962a1 1 0 0 1 1.637.457l99.917 344.637c3.887 13.406 2.265 27.044-4.45 37.417-6.012 9.288-15.572 15.28-26.917 16.875l-553.573 77.8a43.6 43.6 0 0 1-6.066.421zM4.573 265.519l99.345 342.662c7.353 25.359 32.739 43.268 56.594 39.911l553.573-77.8c10.763-1.513 19.825-7.188 25.517-15.981 6.399-9.886 7.933-22.925 4.208-35.774l-99.467-343.085L400.132 400.32c-5.675 5.225-12.891 8.579-20.866 9.7-7.947 1.117-16.413-.018-24.481-3.283z" fill="#111"/><path d="M364.759 67.573 202.162 90.425l8.247 28.446L373.006 96.02z" fill="#b0c3ff"/><g fill="#111"><path d="M210.408 119.871a1 1 0 0 1-.959-.722l-8.248-28.446a.998.998 0 0 1 .821-1.269L364.62 66.582a.999.999 0 0 1 1.1.712l8.247 28.447a.998.998 0 0 1-.821 1.269l-162.597 22.851a.951.951 0 0 1-.14.01zm-6.965-28.617 7.685 26.506 160.596-22.57-7.685-26.506-160.597 22.57zm-64.539 76.185a1.001 1.001 0 0 1-.138-1.99l326.508-45.888a.995.995 0 0 1 1.129.851.999.999 0 0 1-.851 1.129l-326.508 45.888a.955.955 0 0 1-.141.01zm18.969 65.43a1.001 1.001 0 0 1-.138-1.99l326.508-45.888a.999.999 0 1 1 .278 1.98l-326.508 45.888a.955.955 0 0 1-.141.01zm18.97 65.429a1.001 1.001 0 0 1-.138-1.99l326.508-45.888a.999.999 0 1 1 .278 1.98l-326.508 45.888a.955.955 0 0 1-.141.01z"/></g></svg></g><g transform="translate(1069.2 1465.2) rotate(2.4926124705659696 -456.6 493.79999999999984) scale(-1.3828485590027502 1.382573636465449)"><svg width="660.376" height="714.32" viewBox="0 0 660.376 714.32"><g><path d="M295.493 405.332c-2.613-22.602-8.513-41.002-13.838-56.475-.095-.267-.263-.286-.587-.249 15.9 44.572 18.43 81.889 5.653 83.349s-36.025-33.49-51.924-78.062-18.43-81.889-5.653-83.348c12.777-1.46 36.024 33.49 51.924 78.062.324-.037.492-.018.517.051-6.947-18.84-16.064-41.023-31.006-62.714-9.127-12.881-17.629-20.25-23.81-19.543-13.481 1.54-10.81 40.91 5.964 87.936s41.301 83.899 54.782 82.358c7.35-.84 9.899-12.925 7.978-31.365" fill="#fff"/><path d="M286.71 437.742c-14.255 0-38.104-35.928-54.918-83.067-13.772-38.607-18.389-73.6-11.228-85.095 1.547-2.482 3.596-3.886 6.092-4.171 8.078-.945 17.925 10.342 24.739 19.959 15.008 21.786 24.155 44.038 31.123 62.934l.01.026c.01.028.019.057.025.085.017.037.031.074.044.111 5.345 15.528 11.264 33.987 13.889 56.693l.001.012c2.088 20.042-1.058 31.57-8.858 32.461a7.973 7.973 0 0 1-.919.052zm-59.096-170.387a6.5 6.5 0 0 0-.731.04c-1.885.216-3.396 1.276-4.621 3.242-6.86 11.012-2.167 45.293 11.413 83.365 16.32 45.751 40.95 83.135 53.728 81.701 3.716-.425 6.165-4.485 7.175-11.44-.493 1.854-1.135 3.435-1.93 4.71-1.475 2.367-3.431 3.705-5.812 3.977-.286.033-.578.05-.874.05-13.533.001-36.16-34.069-52.105-78.769-13.059-36.608-17.434-69.794-10.638-80.7 1.475-2.367 3.431-3.706 5.812-3.978 2.532-.297 5.428.712 8.558 2.837-3.796-3.309-7.178-5.035-9.975-5.035zm2.344 4.145c-.238 0-.47.013-.7.039-1.77.202-3.189 1.199-4.342 3.049-6.494 10.424-2.044 42.898 10.823 78.971 15.461 43.343 38.744 78.802 50.869 77.404 1.77-.202 3.189-1.199 4.342-3.048 6.494-10.424 2.044-42.897-10.823-78.971-15.168-42.519-37.876-77.444-50.169-77.444z" fill="#111"/><path d="M281.585 348.66c13.686 39.688 24.692 89.207-.59 99.735a7.237 7.237 0 0 1-1.769.43c-14.738 1.684-41.552-38.628-59.89-90.039-17.59-49.311-20.994-90.922-8.238-95.725 35.127-11.972 66.972 75.576 70.487 85.599-.025-.069-.192-.088-.517-.051-15.899-44.572-39.147-79.522-51.924-78.062s-10.246 38.776 5.653 83.348 39.147 79.522 51.924 78.062 10.246-38.776-5.653-83.349c.325-.037.492-.017.517.052" fill="#fff"/><path d="M278.339 449.874c-15.542 0-41.575-39.256-59.944-90.753-17.906-50.197-21.194-91.896-7.649-96.996 36.062-12.297 68.227 76.063 71.782 86.199l.001.003v.001a.049.049 0 0 1 .004.011c13.824 40.091 24.845 90.152-1.152 100.978a8.303 8.303 0 0 1-3.042.557zm-60.673-186.913c-2.067 0-4.151.332-6.246 1.046-12.057 4.541-8.097 46.912 8.857 94.442 17.854 50.054 44.757 90.972 58.836 89.382a6.34 6.34 0 0 0 1.53-.373c6.754-2.813 12.881-9.626 14.269-24.602-.524 2.472-1.276 4.529-2.265 6.116-1.475 2.367-3.431 3.705-5.812 3.977-.286.033-.578.05-.874.05-13.533.001-36.16-34.07-52.105-78.769-13.059-36.608-17.434-69.794-10.638-80.7 1.475-2.367 3.431-3.706 5.812-3.978 2.532-.297 5.428.712 8.559 2.838-6.218-5.663-12.968-9.429-19.923-9.429zm12.292 8.539c-.238 0-.47.013-.7.039-1.77.202-3.189 1.199-4.342 3.049-6.494 10.424-2.044 42.898 10.823 78.971 15.461 43.343 38.744 78.802 50.869 77.404 1.77-.202 3.189-1.199 4.342-3.048 6.494-10.424 2.044-42.897-10.823-78.971-15.168-42.519-37.876-77.444-50.169-77.444z" fill="#111"/><path d="M61.611 332.77c-21.838 8.572-43.019 26.139-52.848 47.073-11.244 23.947-13.703 63.365 16.375 95.644 7.725 8.29 21.756 19.251 44.732 24.388 21.217 4.744 43.931-2.979 51.694-5.548-21.862-19.944-60.201-107.093-59.953-161.557z" fill="#b0c3ff"/><path d="M84.385 502.394c-4.849 0-9.82-.444-14.732-1.543-23.228-5.193-37.426-16.288-45.246-24.682-30.418-32.646-27.925-72.522-16.548-96.751 9.453-20.133 29.91-38.363 53.388-47.579a.999.999 0 0 1 1.366.935c-.244 53.606 37.55 140.673 59.626 160.814a1 1 0 0 1-.359 1.687l-.39.129c-6.446 2.137-21.087 6.99-37.105 6.99zM60.614 334.247c-22.447 9.196-41.884 26.723-50.945 46.021-11.112 23.664-13.537 62.622 16.2 94.538 7.628 8.187 21.491 19.012 44.219 24.094 19.683 4.4 40.559-2.03 49.581-4.999-22.252-22.143-58.618-106.472-59.055-159.654z" fill="#111"/><path d="M619.028 232.969c-41.026-111.247-78.69-168.165-103.063-196.325-6.543-7.56-26.454-30.564-46.319-34.726-21.853-4.578-31.999 10.796-35.346 17.619-14.865 30.296-6.594 86.966-2.348 109.925 4.045 21.872 16.355 88.428 56.333 181.974 17.195 40.235 45.198 97.193 80.952 140.05 16.584 19.878 41.173 41.89 64.137 33.863l.131-.049c7.246-3.063 29.295-12.383 25.416-80.046-3.888-67.817-30.048-143.722-39.893-172.285z" fill="#3658c1"/><path d="M623.34 488.037c-20.271 0-40.54-18.733-54.869-35.909-35.832-42.949-63.882-100.001-81.104-140.299-40.022-93.648-52.347-160.286-56.396-182.185-4.264-23.057-12.563-79.984 2.434-110.548 3.45-7.032 13.913-22.875 36.448-18.156 20.19 4.229 40.268 27.423 46.865 35.044 24.432 28.229 62.172 85.253 103.25 196.639l.007.02c9.859 28.607 36.05 104.599 39.946 172.555 3.92 68.369-18.618 77.895-26.024 81.024l-.156.06a31.36 31.36 0 0 1-10.401 1.755zM461.971 2.086c-16.069 0-23.937 12.111-26.772 17.891-14.733 30.027-6.49 86.442-2.262 109.304 4.04 21.844 16.334 88.317 56.27 181.763 17.169 40.174 45.124 97.04 80.8 139.803 16.38 19.635 40.614 41.404 63.039 33.559 7.156-3.02 28.717-12.133 24.879-79.093-3.881-67.672-30-143.463-39.837-172.007-40.972-111.095-78.561-167.91-102.878-196.008-6.493-7.501-26.238-30.311-45.769-34.401-2.666-.559-5.154-.811-7.47-.811z" fill="#111"/><path d="M570.491 271.394 271.49 408.685c-.415.191-.86.315-1.335.369-9.07 1.036-25.571-23.772-36.857-55.41-10.954-30.709-12.969-56.565-4.784-59.006l315.309-94.016c-5.079 1.514-3.829 17.56 2.969 36.616 7.003 19.633 17.243 35.028 22.871 34.385.295-.034.571-.111.828-.229" fill="#b0c3ff"/><path d="M269.592 410.085c-10.797 0-27.271-28.169-37.234-56.105-9.074-25.438-12.267-48.26-7.942-56.789.94-1.855 2.224-3.037 3.813-3.511l315.309-94.016a1 1 0 1 1 .572 1.916c-.544.162-1.01.62-1.385 1.359-2.456 4.844-.396 18.811 5.009 33.963 7.315 20.508 17.337 34.2 21.816 33.728.188-.022.359-.069.524-.146a1 1 0 0 1 .834 1.818L271.906 409.594a5.359 5.359 0 0 1-1.637.453 5.833 5.833 0 0 1-.677.038zm271.091-207.483L228.8 295.596c-1.044.312-1.919 1.152-2.602 2.499-4.027 7.944-.721 30.648 8.041 55.213 12.063 33.817 28.251 55.66 35.802 54.753a3.396 3.396 0 0 0 1.028-.284l295.82-135.83c-5.639-2.859-13.971-14.551-21.04-34.372-5.474-15.348-7.5-29.206-5.166-34.973z" fill="#111"/><path d="M574.937 231.328c-13.018-35.299-26.633-31.844-31.107-30.708-5.087 1.503-3.839 17.553 2.962 36.618 7.003 19.633 17.243 35.027 22.871 34.384.297-.034.575-.112.835-.232 10.521-5.098 11.973-18.203 4.439-40.062z" fill="#b0c3ff"/><path d="M569.386 272.639c-5.42 0-15.328-12.055-23.535-35.064-5.668-15.888-7.639-30.174-4.905-35.548.634-1.247 1.51-2.043 2.602-2.365 4.725-1.203 18.998-4.826 32.328 31.321l.007.02c7.729 22.423 6.11 35.929-4.947 41.288a3.73 3.73 0 0 1-1.55.348zm-21.128-71.659c-1.777 0-3.207.362-4.182.61-.507.15-.974.605-1.349 1.344-2.461 4.838-.402 18.807 5.006 33.969 7.315 20.508 17.337 34.2 21.816 33.728a1.73 1.73 0 0 0 .528-.146c9.966-4.831 11.252-17.532 3.916-38.819-9.796-26.562-19.743-30.686-25.735-30.686z" fill="#111"/><ellipse cx="568.163" cy="232.102" fill="#fff" rx="6.626" ry="25.139" transform="matrix(.9359 -.3524 .3524 .9359 -45.3445 215.0966)"/><path d="M576.375 256.743c-4.896 0-11.805-11.975-15.927-23.53-3.953-11.081-5.179-20.822-3.049-24.239.687-1.104 1.587-1.421 2.222-1.493 4.937-.573 12.044 11.697 16.257 23.513 3.953 11.081 5.179 20.822 3.049 24.239-.687 1.103-1.587 1.42-2.222 1.492a3.013 3.013 0 0 1-.33.018zm-16.399-47.284c-.044 0-.087.002-.129.007-.185.021-.464.103-.751.564-1.516 2.432-.891 10.944 3.234 22.51 5.057 14.176 11.604 22.472 14.147 22.197.185-.021.464-.103.751-.563 1.516-2.432.891-10.944-3.234-22.51-4.972-13.94-11.427-22.205-14.018-22.205z" fill="#111"/><path d="M469.53 254.865c-33.41-93.661-45.389-175.69-33.563-211.106-1.87 5.6-1.87 5.6 0 0-46.679 138.584-166.331 200.119-211.375 223.284-2.083 1.042-3.651 3.244-4.715 6.432-4.53 13.566.058 44.986 12.856 80.863 14.199 39.806 33.953 72.337 47.86 80.454 2.522 1.472 4.852 2.141 6.922 1.904.322-.037.635-.095.938-.175 19.455-5.031 45.996-11.295 78.822-15.11 122.682-14.258 198.605 27.689 227.193 43.487-36.304-21.195-87.871-106.12-124.938-210.033z" fill="#b0c3ff"/><path d="M594.469 465.899a.99.99 0 0 1-.482-.125c-28.503-15.75-104.22-57.587-226.595-43.369-32.77 3.809-59.266 10.062-78.688 15.085-.348.091-.71.158-1.074.2-2.247.263-4.786-.426-7.54-2.034-14.435-8.424-34.295-41.726-48.298-80.981-12.576-35.258-17.625-67.255-12.862-81.516 1.169-3.505 2.924-5.863 5.216-7.01C269.08 243.04 388.47 181.641 435.02 43.44a.992.992 0 0 1 .304-.446l.004-.003.003-.003h.001l.003-.003.004-.003.004-.003v-.001l.004-.003.003-.002.001-.001.003-.002.001-.001.003-.002.001-.001c.001-.002.001-.003.004-.003.002-.001.001-.003.004-.003.002-.001.001-.003.004-.003.003-.002.002-.003.004-.003l.004-.003.004-.003c.001-.001.001.001.004-.003l.002-.001.002-.002.004-.002.001-.001a.017.017 0 0 1 .004-.003l.004-.003c.002 0 .004 0 .004-.003l.004-.002c.002-.001.005.003.004-.003l.004-.002.004-.003.004-.003.004-.002.004-.003.004-.002s-.001-.001.005-.003a1 1 0 0 1 .361-.136c.002-.002.004-.001.006-.001l.005-.001a.02.02 0 0 0 .005-.001l.006-.001s.004.001.006-.001h.001a1.001 1.001 0 0 1 1.091.695l.002.006.001.006h.001l.001.005v.001l.002.005v.001c.002.002.002.006.002.006l.001.006c.002.002.001.003.002.006 0 .002 0 .004.002.006l.001.004.001.005.001.006c.002.002.002.004.002.006l.001.005.001.006.002.006.001.006.001.006.001.006c.002.002 0 .004.002.006a.02.02 0 0 0 .001.005l.001.006.001.006.001.006.001.006.006.042.006.078.001.007v.074l-.001.001a.96.96 0 0 1-.051.277l-.013.038c-5.824 17.486-5.87 46.256-.13 83.203 5.896 37.948 17.549 81.938 33.698 127.213 36.295 101.746 87.492 187.898 124.502 209.506a.998.998 0 0 1-.508 1.86zM416.56 417.501c80.531 0 135.762 24.062 165.47 39.54-35.877-31.055-80.746-110.182-113.441-201.84-28.831-80.824-42.489-154.966-36.894-196.702-49.957 128.853-163.096 187.037-206.645 209.434-1.811.905-3.228 2.875-4.224 5.858-4.559 13.65.605 45.885 12.849 80.211 13.859 38.852 33.36 71.719 47.423 79.927 2.373 1.383 4.493 1.982 6.305 1.774.271-.031.54-.082.8-.149 19.485-5.039 46.067-11.312 78.959-15.136 17.402-2.022 33.873-2.917 49.398-2.917z" fill="#111"/><path d="M280.944 448.414a7.199 7.199 0 0 1-1.718.411c-14.738 1.684-41.552-38.628-59.89-90.039-17.59-49.311-20.994-90.922-8.238-95.725 0 0-143.765 53.989-145.724 54.949-2.403 1.148-6.411 3.446-9.558 9.217-12.867 23.602 6.034 83.944 20.969 116.436 20.522 44.643 40.28 64.609 58.749 59.413 3.48-.869 145.41-54.662 145.41-54.662z" fill="#3658c1"/><path d="M129.768 504.886c-17.214 0-35.318-20.4-53.892-60.806-15.018-32.667-33.981-93.408-20.939-117.332 3.211-5.89 7.247-8.322 10.004-9.641 1.971-.967 139.916-52.771 145.804-54.982l.001-.001a1 1 0 0 1 .704 1.872c-12.087 4.552-8.127 46.923 8.827 94.453 17.854 50.054 44.757 90.972 58.836 89.382a6.301 6.301 0 0 0 1.479-.354 1 1 0 0 1 .706 1.872c-5.798 2.197-142.026 53.824-145.522 54.697-1.99.561-3.993.84-6.008.84zm76.527-238.953c-50.604 19.006-138.59 52.097-140.487 52.978-2.51 1.2-6.182 3.415-9.114 8.795-5.583 10.241-5.528 28.979.156 54.186 4.439 19.683 12.231 42.618 20.844 61.354 20.274 44.104 39.631 63.915 57.57 58.869 2.642-.66 89.956-33.655 140.134-52.668-15.733-4.385-39.75-41.955-57.003-90.324-15.568-43.642-20.087-80.861-12.1-93.19z" fill="#111"/><path d="M650.04 341.786c-8.504-43.516-24.276-89.277-31.011-108.817-10.365-28.105-41.906-113.631-88.068-177.119-31.647-43.526-57.574-60.868-79.264-53.02-17.96 6.499-27.122 31.756-25.801 71.119 2.149 63.989 24.206 132.609 33.625 161.911 32.379 100.727 97.581 223.778 146.46 246.936 28.486 13.496 50.691-6.018 52.8-46.4 1.333-25.526.335-48.164-8.741-94.61zm-21.574 126.841c-35.463 4.052-99.984-92.949-144.112-216.656-44.128-123.708-51.152-227.277-15.69-231.328 35.463-4.052 99.984 92.949 144.112 216.656s51.153 227.277 15.69 231.328z" fill="#fff"/><path d="M623.187 488.054c-5.577 0-11.507-1.451-17.634-4.354-49.12-23.271-114.541-146.606-146.984-247.533-9.433-29.346-31.52-98.058-33.672-162.184-1.338-39.831 8.06-65.435 26.46-72.093 22.163-8.022 48.47 9.438 80.412 53.371 46.246 63.603 77.821 149.225 88.197 177.361 6.749 19.58 22.537 65.386 31.055 108.972 9.096 46.547 10.096 69.247 8.759 94.854-1.205 23.076-8.83 39.938-21.47 47.482-4.606 2.75-9.698 4.124-15.123 4.124zM462.13 1.999c-3.471 0-6.832.592-10.093 1.771-17.518 6.339-26.446 31.251-25.142 70.146 2.145 63.846 24.171 132.372 33.576 161.634 32.317 100.534 97.302 223.301 145.937 246.343 11.458 5.429 22.133 5.538 30.877.319 11.874-7.086 19.345-23.805 20.496-45.868 1.329-25.447.333-48.022-8.724-94.367-8.491-43.448-24.247-89.162-30.976-108.683-10.345-28.052-41.849-113.479-87.931-176.857-26.529-36.489-48.909-54.438-68.02-54.438zm164.169 467.749c-17.377 0-41.201-21.491-67.472-60.986-27.263-40.986-54.046-96.55-75.414-156.455-36.074-101.128-48.281-192.601-29.688-222.443 3.792-6.087 8.78-9.523 14.826-10.214 17.534-2.017 42.313 19.608 69.752 60.857 27.263 40.987 54.046 96.551 75.414 156.456 36.074 101.128 48.282 192.6 29.688 222.443-3.792 6.087-8.78 9.523-14.826 10.214l-.113-.993.113.993c-.746.086-1.508.128-2.28.128zM470.796 21.524c-.687 0-1.357.037-2.018.112-5.408.618-9.902 3.742-13.355 9.285-18.293 29.36-6.009 120.121 29.873 220.714 21.316 59.756 48.021 115.164 75.196 156.02 25.546 38.405 49.366 60.089 65.843 60.092.687 0 1.357-.037 2.018-.112 5.408-.618 9.902-3.742 13.355-9.285 18.293-29.361 6.009-120.122-29.873-220.714-21.316-59.756-48.021-115.165-75.196-156.021-25.546-38.405-49.367-60.091-65.843-60.091z" fill="#111"/></g><g><path d="m180.872 486.521 64.49-31.873 12.995 22.038 29.803 14.012c2.967 1.4 4.388 4.897 3.241 8.054l-7.63 21.122 56.189 103.289 16.51 6.953c7.237 1.804 10.8 10.177 7.144 16.838-10.632 19.387-18.17 43.48-30.561 53.728-1.661 1.378-3.523 2.565-5.519 3.552-11.686 5.775-27.894 4.642-34.407-5.52z" fill="#b0c3ff"/><path d="M312.368 708.727c-8.067 0-15.849-2.867-20.083-9.474L179.989 486.989a1.001 1.001 0 0 1 .441-1.364l64.489-31.872a.999.999 0 0 1 1.305.389l12.839 21.771 29.523 13.881c3.416 1.611 5.065 5.696 3.755 9.301l-7.478 20.697 55.808 102.586 16.118 6.787c3.673.94 6.66 3.5 8.205 7.033a12.652 12.652 0 0 1-.503 11.237c-3.375 6.152-6.466 12.848-9.456 19.322-6.547 14.178-12.73 27.57-21.345 34.694a29.259 29.259 0 0 1-5.713 3.678c-4.676 2.312-10.208 3.598-15.609 3.598zM182.237 486.962 294.01 698.245c6.229 9.71 22.147 10.494 33.08 5.091 1.965-.971 3.756-2.123 5.323-3.425 8.266-6.836 14.356-20.027 20.806-33.993 3.004-6.505 6.11-13.232 9.518-19.445a10.67 10.67 0 0 0 .425-9.474c-1.306-2.985-3.832-5.141-6.934-5.913a1.043 1.043 0 0 1-.146-.049l-16.511-6.952a1.001 1.001 0 0 1-.491-.444l-56.189-103.289a1.002 1.002 0 0 1-.062-.817l7.631-21.122c.961-2.645-.237-5.635-2.728-6.81l-29.802-14.012a1.009 1.009 0 0 1-.436-.397l-12.523-21.237z" fill="#111"/><path d="M381.286 639.309c-.53-3.526-2.166-6.822-4.67-9.34a16.008 16.008 0 0 0-7.484-4.25l-14.223-6.036-54.255-99.734 6.844-18.947c.688-1.897.856-3.864.575-5.733a11.532 11.532 0 0 0-3.212-6.416 11.13 11.13 0 0 0-3.149-2.219l-28.437-13.37-10.577-17.938-17.334-.678 12.995 22.038 29.803 14.012c2.967 1.4 4.388 4.897 3.241 8.054l-7.63 21.122 56.189 103.289 16.511 6.953c6.97 1.738 10.532 9.568 7.519 16.093-7.329 12.881-19.254 45.544-30.936 54.472-11.189 9.366-32.307 9.993-39.927-1.968 5.939 10.804 17.428 15.469 29.339 14.477 34.669-2.885 41.647-35.957 56.919-63.266a16.805 16.805 0 0 0 1.899-10.615z" fill="#fff"/><path d="M319.307 714.324c-11.805 0-21.77-5.512-27.057-15.129a1 1 0 0 1 1.72-1.019c2.749 4.315 7.681 7.221 13.885 8.18 8.654 1.339 18.285-1.192 24.557-6.441 8.038-6.146 16.345-24.077 23.02-38.486 2.942-6.353 5.483-11.838 7.688-15.714 1.303-2.829 1.274-6.157-.115-9.056-1.343-2.803-3.812-4.834-6.776-5.572a1.043 1.043 0 0 1-.146-.049l-16.511-6.953a1.001 1.001 0 0 1-.491-.444l-56.188-103.288a.994.994 0 0 1-.062-.817l7.631-21.122c.961-2.645-.237-5.635-2.728-6.81l-29.802-14.012a1.009 1.009 0 0 1-.436-.397l-12.995-22.037a1 1 0 0 1 .003-1.021c.187-.314.538-.517.897-.486l17.334.678c.34.013.649.198.822.491l10.421 17.672 28.158 13.237a12.133 12.133 0 0 1 3.433 2.42 12.61 12.61 0 0 1 3.492 6.972 12.77 12.77 0 0 1-.623 6.224l-6.692 18.522 53.874 99.032 13.832 5.87a17.087 17.087 0 0 1 7.872 4.496c2.629 2.643 4.388 6.157 4.951 9.896v.001c.584 3.886-.112 7.774-2.014 11.244-3.162 5.655-6.001 11.628-8.746 17.404-10.764 22.65-20.932 44.046-48.967 46.378a39.08 39.08 0 0 1-3.241.136zm-18.185-7.801c5.638 4.299 13.05 6.352 21.261 5.672 26.889-2.238 36.816-23.128 47.327-45.244 2.759-5.806 5.611-11.809 8.802-17.515a15.74 15.74 0 0 0 1.785-9.979c-.5-3.32-2.06-6.44-4.391-8.783a15.084 15.084 0 0 0-7.019-3.986 1.043 1.043 0 0 1-.146-.049l-14.224-6.036a1.002 1.002 0 0 1-.488-.443l-54.255-99.733a1.002 1.002 0 0 1-.062-.817l6.845-18.946c.607-1.678.79-3.491.525-5.245a10.58 10.58 0 0 0-2.932-5.859 10.151 10.151 0 0 0-2.867-2.021l-28.437-13.368a1.014 1.014 0 0 1-.436-.397l-10.3-17.468-14.958-.584 11.908 20.192 29.523 13.881c3.416 1.611 5.065 5.696 3.755 9.301l-7.478 20.697 55.808 102.585 16.118 6.788c3.51.899 6.43 3.312 8.02 6.629a12.684 12.684 0 0 1 .089 10.834c-2.203 3.879-4.85 9.593-7.651 15.642-6.767 14.608-15.188 32.789-23.585 39.207-6.658 5.573-16.922 8.281-26.11 6.856-2.313-.359-4.469-.97-6.427-1.811z" fill="#111"/></g></svg></g><g transform="translate(489.59999999999997 373.2) rotate(4.998169212425705 287.4 259.79999999999995) scale(1.201181119639562 1.2021794708651943)"><svg width="478.529" height="432.215" viewBox="0 0 478.529 432.215"><path d="m449.604 256.753-33.328 19.491-1.246 20.902 33.327-19.491c17.065-9.98 26.799-26.553 27.834-43.891l1.247-20.902c-1.035 17.339-10.77 33.911-27.834 43.891z" fill="#b0c3ff"/><path d="M415.03 298.147a1.001 1.001 0 0 1-.998-1.059l1.246-20.902c.02-.333.205-.635.493-.804l33.328-19.491c16.07-9.398 26.291-25.506 27.341-43.087a1.009 1.009 0 0 1 1.058-.938.998.998 0 0 1 .938 1.058l-.001.016-1.246 20.887c-1.09 18.25-11.679 34.959-28.327 44.695l-33.327 19.49a1.025 1.025 0 0 1-.505.135zm2.212-21.309-1.104 18.501 31.713-18.546c16.07-9.398 26.291-25.506 27.341-43.088l.392-6.561c-4.343 12.473-13.285 23.342-25.476 30.472zm32.362-20.085h.01z" fill="#111"/><path d="M412.608 328.997a10.927 10.927 0 0 1-9.98.504l-43.688-19.722-1.247 20.902 43.688 19.722a10.927 10.927 0 0 0 9.98-.504c2.634-1.54 4.506-4.177 4.697-7.371l1.247-20.903c-.191 3.194-2.063 5.831-4.697 7.372z" fill="#b0c3ff"/><path d="M405.901 352.368c-1.672 0-3.354-.349-4.928-1.052l-43.691-19.725a1 1 0 0 1-.587-.971l1.247-20.902a1.001 1.001 0 0 1 1.409-.852l43.688 19.723c2.939 1.312 6.328 1.146 9.064-.456 2.509-1.467 4.041-3.86 4.203-6.567a1.013 1.013 0 0 1 1.058-.938.999.999 0 0 1 .938 1.058l-1.247 20.902c-.203 3.386-2.095 6.365-5.19 8.175a11.82 11.82 0 0 1-5.964 1.605zm-47.169-22.316 43.061 19.439c2.941 1.313 6.331 1.144 9.063-.456 2.51-1.467 4.042-3.86 4.204-6.567l.893-14.967a10.969 10.969 0 0 1-2.839 2.358c-3.293 1.924-7.363 2.13-10.894.554l-42.368-19.127z" fill="#111"/><path d="M201.864 401.642c-28.281 16.541-65.995 8.715-84.217-17.515L11.954 231.994c-7.221-10.393-10.295-22.111-9.615-33.501l-1.247 20.902c-.68 11.39 2.394 23.109 9.615 33.502L116.4 405.03c18.222 26.229 55.936 34.055 84.218 17.515l157.075-91.865 1.247-20.902z" fill="#b0c3ff"/><path d="M168.293 432.19c-20.559.001-40.782-9.415-52.714-26.59L9.886 253.466C2.76 243.209-.627 231.406.094 219.335l1.247-20.902a.996.996 0 0 1 1.058-.938.997.997 0 0 1 .938 1.058c-.693 11.619 2.57 22.986 9.438 32.871l105.693 152.134c17.897 25.761 55.082 33.486 82.891 17.222l157.075-91.864a1.001 1.001 0 0 1 1.503.923l-1.247 20.902c-.02.333-.205.635-.493.804L201.123 423.41c-10.165 5.944-21.549 8.779-32.83 8.78zM2.478 212.955l-.388 6.499c-.693 11.619 2.57 22.986 9.438 32.871l105.693 152.134c17.896 25.761 55.08 33.487 82.892 17.223l156.612-91.596 1.104-18.501-155.461 90.92c-28.689 16.778-67.064 8.792-85.543-17.808L11.133 232.564c-4.226-6.081-7.136-12.706-8.655-19.609z" fill="#111"/><path d="M277.94 9.663c28.282-16.54 65.953-8.692 84.177 17.539l105.694 152.134c18.223 26.229 10.075 60.877-18.207 77.417l-33.328 19.491 1.043 44.664c.067 3.515-1.882 6.434-4.711 8.088a10.927 10.927 0 0 1-9.98.504l-43.689-19.722-157.075 91.865c-28.282 16.54-65.995 8.714-84.217-17.515L11.954 231.994c-18.223-26.23-10.034-60.901 18.248-77.441z" fill="#fff"/><g fill="#111"><path d="M169.54 411.287c-20.559 0-40.782-9.415-52.714-26.59L11.133 232.564c-8.808-12.677-11.876-27.737-8.639-42.405 3.359-15.223 13.02-28.175 27.202-36.47L277.436 8.8c28.667-16.766 67.023-8.767 85.503 17.832l105.693 152.134c8.815 12.689 11.888 27.756 8.65 42.425-3.354 15.203-13.005 28.14-27.174 36.426L417.29 276.81l1.028 44.075c.07 3.674-1.876 7.027-5.205 8.975-3.291 1.924-7.365 2.13-10.893.554l-43.222-19.512-156.63 91.604c-10.164 5.945-21.546 8.781-32.828 8.781zM277.941 9.663l.505.863-247.74 144.889c-13.695 8.01-23.021 20.502-26.259 35.174-3.115 14.118-.158 28.619 8.328 40.834l105.693 152.134c17.897 25.76 55.082 33.487 82.891 17.223l157.075-91.865a.993.993 0 0 1 .916-.048l43.689 19.723c2.942 1.313 6.328 1.144 9.063-.456 2.695-1.577 4.271-4.271 4.215-7.205l-1.042-44.66a1.005 1.005 0 0 1 .495-.887l33.327-19.491c13.682-8.002 22.997-20.478 26.231-35.13 3.115-14.118.153-28.627-8.341-40.854L361.296 27.773C343.4 2.012 306.232-5.723 278.446 10.527z"/><g><path d="M149.191 237.526c-9.646 5.641-12.439 17.517-6.225 26.461 6.241 8.983 19.128 11.636 28.774 5.995 9.683-5.663 12.462-17.479 6.221-26.462-6.214-8.943-19.087-11.657-28.77-5.994"/><path d="M160.711 273.929c-7.237 0-14.361-3.318-18.566-9.372-3.111-4.479-4.193-9.81-3.046-15.012 1.189-5.387 4.594-9.962 9.587-12.883 10.089-5.897 23.59-3.078 30.097 6.288 3.125 4.498 4.215 9.833 3.07 15.022-1.186 5.37-4.598 9.941-9.608 12.872-3.571 2.089-7.57 3.085-11.534 3.085zm-11.015-35.54c-4.507 2.636-7.576 6.751-8.644 11.587-1.026 4.651-.055 9.425 2.735 13.44 5.926 8.529 18.238 11.089 27.447 5.702 4.524-2.646 7.602-6.757 8.665-11.577 1.023-4.639.043-9.415-2.76-13.45-5.926-8.528-18.238-11.086-27.443-5.702zm80.391-48.175c-9.643 5.64-12.436 17.516-6.223 26.46 6.241 8.983 19.128 11.636 28.771 5.996 9.685-5.664 12.464-17.48 6.224-26.463-6.214-8.943-19.087-11.657-28.772-5.993"/><path d="M241.61 226.617c-7.237.001-14.361-3.318-18.566-9.372-3.112-4.479-4.193-9.812-3.045-15.015 1.188-5.386 4.592-9.96 9.584-12.879 10.089-5.898 23.589-3.081 30.098 6.286 3.125 4.498 4.216 9.833 3.07 15.021-1.185 5.371-4.599 9.943-9.61 12.875-3.57 2.088-7.569 3.084-11.531 3.084zm-.474-38.36c-3.624 0-7.278.91-10.544 2.82-4.505 2.635-7.574 6.748-8.642 11.584-1.026 4.651-.055 9.426 2.735 13.442 5.926 8.529 18.237 11.088 27.444 5.703 4.525-2.646 7.604-6.759 8.667-11.579 1.024-4.639.044-9.415-2.76-13.45-3.823-5.502-10.308-8.52-16.9-8.52zm-11.049 1.957h.01zm80.898-47.313c-9.643 5.64-12.439 17.517-6.225 26.461 6.241 8.983 19.13 11.635 28.773 5.995 9.685-5.664 12.464-17.48 6.224-26.463-6.214-8.943-19.087-11.657-28.772-5.993"/><path d="M322.505 179.305c-7.237 0-14.361-3.319-18.566-9.372-3.111-4.479-4.193-9.811-3.045-15.014 1.189-5.387 4.594-9.961 9.586-12.881 10.09-5.9 23.59-3.082 30.099 6.286 3.125 4.498 4.215 9.833 3.07 15.021-1.186 5.371-4.599 9.943-9.61 12.875-3.571 2.089-7.569 3.085-11.534 3.085zm-.471-38.361c-3.624 0-7.279.911-10.545 2.821-4.506 2.635-7.575 6.75-8.643 11.586-1.026 4.651-.056 9.426 2.734 13.441 5.926 8.529 18.238 11.089 27.447 5.702 4.525-2.646 7.604-6.759 8.667-11.579 1.023-4.639.043-9.415-2.76-13.45-3.822-5.504-10.307-8.521-16.9-8.521zm-11.049 1.958h.01z"/></g></g></svg></g></svg>